G04 #@! TF.GenerationSoftware,KiCad,Pcbnew,9.0.4*
G04 #@! TF.CreationDate,2025-09-12T09:59:32-04:00*
G04 #@! TF.ProjectId,SBP_Routing_Board,5342505f-526f-4757-9469-6e675f426f61,rev?*
G04 #@! TF.SameCoordinates,Original*
G04 #@! TF.FileFunction,Copper,L2,Inr*
G04 #@! TF.FilePolarity,Positive*
%FSLAX46Y46*%
G04 Gerber Fmt 4.6, Leading zero omitted, Abs format (unit mm)*
G04 Created by KiCad (PCBNEW 9.0.4) date 2025-09-12 09:59:32*
%MOMM*%
%LPD*%
G01*
G04 APERTURE LIST*
G04 Aperture macros list*
%AMRoundRect*
0 Rectangle with rounded corners*
0 $1 Rounding radius*
0 $2 $3 $4 $5 $6 $7 $8 $9 X,Y pos of 4 corners*
0 Add a 4 corners polygon primitive as box body*
4,1,4,$2,$3,$4,$5,$6,$7,$8,$9,$2,$3,0*
0 Add four circle primitives for the rounded corners*
1,1,$1+$1,$2,$3*
1,1,$1+$1,$4,$5*
1,1,$1+$1,$6,$7*
1,1,$1+$1,$8,$9*
0 Add four rect primitives between the rounded corners*
20,1,$1+$1,$2,$3,$4,$5,0*
20,1,$1+$1,$4,$5,$6,$7,0*
20,1,$1+$1,$6,$7,$8,$9,0*
20,1,$1+$1,$8,$9,$2,$3,0*%
G04 Aperture macros list end*
G04 #@! TA.AperFunction,ComponentPad*
%ADD10R,1.700000X1.700000*%
G04 #@! TD*
G04 #@! TA.AperFunction,ComponentPad*
%ADD11C,1.700000*%
G04 #@! TD*
G04 #@! TA.AperFunction,ComponentPad*
%ADD12RoundRect,0.250000X-0.550000X0.550000X-0.550000X-0.550000X0.550000X-0.550000X0.550000X0.550000X0*%
G04 #@! TD*
G04 #@! TA.AperFunction,ComponentPad*
%ADD13C,1.600000*%
G04 #@! TD*
G04 #@! TA.AperFunction,ComponentPad*
%ADD14C,2.500000*%
G04 #@! TD*
G04 #@! TA.AperFunction,ViaPad*
%ADD15C,0.700000*%
G04 #@! TD*
G04 #@! TA.AperFunction,ViaPad*
%ADD16C,0.600000*%
G04 #@! TD*
G04 APERTURE END LIST*
D10*
X103840000Y-122200000D03*
D11*
X101300000Y-122200000D03*
X98760000Y-122200000D03*
X96220000Y-122200000D03*
X93680000Y-122200000D03*
X91140000Y-122200000D03*
X88600000Y-122200000D03*
X86060000Y-122200000D03*
D12*
X118900000Y-62550000D03*
D13*
X118900000Y-70170000D03*
D10*
X72400000Y-106750000D03*
D11*
X74940000Y-106750000D03*
X72400000Y-109290000D03*
X74940000Y-109290000D03*
X72400000Y-111830000D03*
X74940000Y-111830000D03*
X72400000Y-114370000D03*
X74940000Y-114370000D03*
X72400000Y-116910000D03*
X74940000Y-116910000D03*
X72400000Y-119450000D03*
X74940000Y-119450000D03*
X72400000Y-121990000D03*
X74940000Y-121990000D03*
X72400000Y-124530000D03*
X74940000Y-124530000D03*
X72400000Y-127070000D03*
X74940000Y-127070000D03*
X72400000Y-129610000D03*
X74940000Y-129610000D03*
D10*
X72400000Y-98210000D03*
D11*
X74940000Y-98210000D03*
X77480000Y-98210000D03*
X80020000Y-98210000D03*
X82560000Y-98210000D03*
X85100000Y-98210000D03*
D10*
X117625000Y-73550000D03*
D11*
X120165000Y-73550000D03*
D14*
X97000000Y-82750000D03*
X90600000Y-94650000D03*
D10*
X115580000Y-106750000D03*
D11*
X118120000Y-106750000D03*
X115580000Y-109290000D03*
X118120000Y-109290000D03*
X115580000Y-111830000D03*
X118120000Y-111830000D03*
X115580000Y-114370000D03*
X118120000Y-114370000D03*
X115580000Y-116910000D03*
X118120000Y-116910000D03*
X115580000Y-119450000D03*
X118120000Y-119450000D03*
X115580000Y-121990000D03*
X118120000Y-121990000D03*
X115580000Y-124530000D03*
X118120000Y-124530000D03*
X115580000Y-127070000D03*
X118120000Y-127070000D03*
X115580000Y-129610000D03*
X118120000Y-129610000D03*
D10*
X113200000Y-70150000D03*
D11*
X110660000Y-70150000D03*
X108120000Y-70150000D03*
X105580000Y-70150000D03*
X103040000Y-70150000D03*
X100500000Y-70150000D03*
D14*
X94000000Y-88550000D03*
D15*
X84600000Y-114700000D03*
D16*
X81500000Y-101150000D03*
D15*
X91500000Y-116600000D03*
X109550000Y-114400000D03*
X109600000Y-116400000D03*
D16*
X79050000Y-132100000D03*
X101100000Y-92450000D03*
X106500000Y-103650000D03*
X95200000Y-103750000D03*
X112100000Y-121350000D03*
X101200000Y-104550000D03*
X112100000Y-125750000D03*
X101000000Y-117550000D03*
X84100000Y-103850000D03*
X103800000Y-101950000D03*
X92800000Y-101950000D03*
X95100000Y-94750000D03*
M02*
