G04 #@! TF.GenerationSoftware,KiCad,Pcbnew,9.0.4*
G04 #@! TF.CreationDate,2025-09-12T09:59:32-04:00*
G04 #@! TF.ProjectId,SBP_Routing_Board,5342505f-526f-4757-9469-6e675f426f61,rev?*
G04 #@! TF.SameCoordinates,Original*
G04 #@! TF.FileFunction,Soldermask,Top*
G04 #@! TF.FilePolarity,Negative*
%FSLAX46Y46*%
G04 Gerber Fmt 4.6, Leading zero omitted, Abs format (unit mm)*
G04 Created by KiCad (PCBNEW 9.0.4) date 2025-09-12 09:59:32*
%MOMM*%
%LPD*%
G01*
G04 APERTURE LIST*
G04 APERTURE END LIST*
G36*
X70041807Y-140484538D02*
G01*
X70228354Y-140545151D01*
X70403123Y-140634200D01*
X70561810Y-140749493D01*
X70700507Y-140888190D01*
X70815800Y-141046877D01*
X70904849Y-141221646D01*
X70965462Y-141408193D01*
X70996147Y-141601926D01*
X70996147Y-141798074D01*
X70965462Y-141991807D01*
X70904849Y-142178354D01*
X70815800Y-142353123D01*
X70700507Y-142511810D01*
X70561810Y-142650507D01*
X70403123Y-142765800D01*
X70228354Y-142854849D01*
X70041807Y-142915462D01*
X69848074Y-142946147D01*
X69651926Y-142946147D01*
X69458193Y-142915462D01*
X69271646Y-142854849D01*
X69096877Y-142765800D01*
X68938190Y-142650507D01*
X68799493Y-142511810D01*
X68684200Y-142353123D01*
X68595151Y-142178354D01*
X68534538Y-141991807D01*
X68503853Y-141798074D01*
X68503853Y-141601926D01*
X68534538Y-141408193D01*
X68595151Y-141221646D01*
X68684200Y-141046877D01*
X68799493Y-140888190D01*
X68938190Y-140749493D01*
X69096877Y-140634200D01*
X69271646Y-140545151D01*
X69458193Y-140484538D01*
X69651926Y-140453853D01*
X69848074Y-140453853D01*
X70041807Y-140484538D01*
G37*
G36*
X120391807Y-140484538D02*
G01*
X120578354Y-140545151D01*
X120753123Y-140634200D01*
X120911810Y-140749493D01*
X121050507Y-140888190D01*
X121165800Y-141046877D01*
X121254849Y-141221646D01*
X121315462Y-141408193D01*
X121346147Y-141601926D01*
X121346147Y-141798074D01*
X121315462Y-141991807D01*
X121254849Y-142178354D01*
X121165800Y-142353123D01*
X121050507Y-142511810D01*
X120911810Y-142650507D01*
X120753123Y-142765800D01*
X120578354Y-142854849D01*
X120391807Y-142915462D01*
X120198074Y-142946147D01*
X120001926Y-142946147D01*
X119808193Y-142915462D01*
X119621646Y-142854849D01*
X119446877Y-142765800D01*
X119288190Y-142650507D01*
X119149493Y-142511810D01*
X119034200Y-142353123D01*
X118945151Y-142178354D01*
X118884538Y-141991807D01*
X118853853Y-141798074D01*
X118853853Y-141601926D01*
X118884538Y-141408193D01*
X118945151Y-141221646D01*
X119034200Y-141046877D01*
X119149493Y-140888190D01*
X119288190Y-140749493D01*
X119446877Y-140634200D01*
X119621646Y-140545151D01*
X119808193Y-140484538D01*
X120001926Y-140453853D01*
X120198074Y-140453853D01*
X120391807Y-140484538D01*
G37*
G36*
X77822208Y-139534254D02*
G01*
X77923943Y-139592991D01*
X78007009Y-139676057D01*
X78065746Y-139777792D01*
X78096150Y-139891263D01*
X78096150Y-140008737D01*
X78065746Y-140122208D01*
X78007009Y-140223943D01*
X77923943Y-140307009D01*
X77822208Y-140365746D01*
X77708737Y-140396150D01*
X77591263Y-140396150D01*
X77477792Y-140365746D01*
X77376057Y-140307009D01*
X77292991Y-140223943D01*
X77234254Y-140122208D01*
X77203850Y-140008737D01*
X77203850Y-139891263D01*
X77234254Y-139777792D01*
X77292991Y-139676057D01*
X77376057Y-139592991D01*
X77477792Y-139534254D01*
X77591263Y-139503850D01*
X77708737Y-139503850D01*
X77822208Y-139534254D01*
G37*
G36*
X84622208Y-139534254D02*
G01*
X84723943Y-139592991D01*
X84807009Y-139676057D01*
X84865746Y-139777792D01*
X84896150Y-139891263D01*
X84896150Y-140008737D01*
X84865746Y-140122208D01*
X84807009Y-140223943D01*
X84723943Y-140307009D01*
X84622208Y-140365746D01*
X84508737Y-140396150D01*
X84391263Y-140396150D01*
X84277792Y-140365746D01*
X84176057Y-140307009D01*
X84092991Y-140223943D01*
X84034254Y-140122208D01*
X84003850Y-140008737D01*
X84003850Y-139891263D01*
X84034254Y-139777792D01*
X84092991Y-139676057D01*
X84176057Y-139592991D01*
X84277792Y-139534254D01*
X84391263Y-139503850D01*
X84508737Y-139503850D01*
X84622208Y-139534254D01*
G37*
G36*
X78929116Y-135950818D02*
G01*
X78980379Y-135956766D01*
X78997892Y-135964499D01*
X79020671Y-135969030D01*
X79045057Y-135985324D01*
X79065788Y-135994478D01*
X79079946Y-136008636D01*
X79101777Y-136023223D01*
X79116363Y-136045053D01*
X79130521Y-136059211D01*
X79139673Y-136079939D01*
X79155970Y-136104329D01*
X79160501Y-136127109D01*
X79168233Y-136144620D01*
X79174178Y-136195872D01*
X79175000Y-136200000D01*
X79175000Y-138200000D01*
X79174178Y-138204128D01*
X79168233Y-138255379D01*
X79160501Y-138272888D01*
X79155970Y-138295671D01*
X79139672Y-138320062D01*
X79130521Y-138340788D01*
X79116365Y-138354943D01*
X79101777Y-138376777D01*
X79079943Y-138391365D01*
X79065788Y-138405521D01*
X79045062Y-138414672D01*
X79020671Y-138430970D01*
X78997888Y-138435501D01*
X78980379Y-138443233D01*
X78929129Y-138449178D01*
X78925000Y-138450000D01*
X78175000Y-138450000D01*
X78170873Y-138449179D01*
X78119620Y-138443233D01*
X78102109Y-138435501D01*
X78079329Y-138430970D01*
X78054939Y-138414673D01*
X78034211Y-138405521D01*
X78020053Y-138391363D01*
X77998223Y-138376777D01*
X77983636Y-138354946D01*
X77969478Y-138340788D01*
X77960324Y-138320057D01*
X77944030Y-138295671D01*
X77939499Y-138272892D01*
X77931766Y-138255379D01*
X77925818Y-138204117D01*
X77925000Y-138200000D01*
X77925000Y-136200000D01*
X77925818Y-136195885D01*
X77931766Y-136144620D01*
X77939499Y-136127105D01*
X77944030Y-136104329D01*
X77960323Y-136079944D01*
X77969478Y-136059211D01*
X77983638Y-136045050D01*
X77998223Y-136023223D01*
X78020050Y-136008638D01*
X78034211Y-135994478D01*
X78054944Y-135985323D01*
X78079329Y-135969030D01*
X78102105Y-135964499D01*
X78119620Y-135956766D01*
X78170884Y-135950818D01*
X78175000Y-135950000D01*
X78925000Y-135950000D01*
X78929116Y-135950818D01*
G37*
G36*
X81429116Y-135950818D02*
G01*
X81480379Y-135956766D01*
X81497892Y-135964499D01*
X81520671Y-135969030D01*
X81545057Y-135985324D01*
X81565788Y-135994478D01*
X81579946Y-136008636D01*
X81601777Y-136023223D01*
X81616363Y-136045053D01*
X81630521Y-136059211D01*
X81639673Y-136079939D01*
X81655970Y-136104329D01*
X81660501Y-136127109D01*
X81668233Y-136144620D01*
X81674178Y-136195872D01*
X81675000Y-136200000D01*
X81675000Y-138200000D01*
X81674178Y-138204128D01*
X81668233Y-138255379D01*
X81660501Y-138272888D01*
X81655970Y-138295671D01*
X81639672Y-138320062D01*
X81630521Y-138340788D01*
X81616365Y-138354943D01*
X81601777Y-138376777D01*
X81579943Y-138391365D01*
X81565788Y-138405521D01*
X81545062Y-138414672D01*
X81520671Y-138430970D01*
X81497888Y-138435501D01*
X81480379Y-138443233D01*
X81429129Y-138449178D01*
X81425000Y-138450000D01*
X80675000Y-138450000D01*
X80670873Y-138449179D01*
X80619620Y-138443233D01*
X80602109Y-138435501D01*
X80579329Y-138430970D01*
X80554939Y-138414673D01*
X80534211Y-138405521D01*
X80520053Y-138391363D01*
X80498223Y-138376777D01*
X80483636Y-138354946D01*
X80469478Y-138340788D01*
X80460324Y-138320057D01*
X80444030Y-138295671D01*
X80439499Y-138272892D01*
X80431766Y-138255379D01*
X80425818Y-138204117D01*
X80425000Y-138200000D01*
X80425000Y-136200000D01*
X80425818Y-136195885D01*
X80431766Y-136144620D01*
X80439499Y-136127105D01*
X80444030Y-136104329D01*
X80460323Y-136079944D01*
X80469478Y-136059211D01*
X80483638Y-136045050D01*
X80498223Y-136023223D01*
X80520050Y-136008638D01*
X80534211Y-135994478D01*
X80554944Y-135985323D01*
X80579329Y-135969030D01*
X80602105Y-135964499D01*
X80619620Y-135956766D01*
X80670884Y-135950818D01*
X80675000Y-135950000D01*
X81425000Y-135950000D01*
X81429116Y-135950818D01*
G37*
G36*
X83929116Y-135950818D02*
G01*
X83980379Y-135956766D01*
X83997892Y-135964499D01*
X84020671Y-135969030D01*
X84045057Y-135985324D01*
X84065788Y-135994478D01*
X84079946Y-136008636D01*
X84101777Y-136023223D01*
X84116363Y-136045053D01*
X84130521Y-136059211D01*
X84139673Y-136079939D01*
X84155970Y-136104329D01*
X84160501Y-136127109D01*
X84168233Y-136144620D01*
X84174178Y-136195872D01*
X84175000Y-136200000D01*
X84175000Y-138200000D01*
X84174178Y-138204128D01*
X84168233Y-138255379D01*
X84160501Y-138272888D01*
X84155970Y-138295671D01*
X84139672Y-138320062D01*
X84130521Y-138340788D01*
X84116365Y-138354943D01*
X84101777Y-138376777D01*
X84079943Y-138391365D01*
X84065788Y-138405521D01*
X84045062Y-138414672D01*
X84020671Y-138430970D01*
X83997888Y-138435501D01*
X83980379Y-138443233D01*
X83929129Y-138449178D01*
X83925000Y-138450000D01*
X83175000Y-138450000D01*
X83170873Y-138449179D01*
X83119620Y-138443233D01*
X83102109Y-138435501D01*
X83079329Y-138430970D01*
X83054939Y-138414673D01*
X83034211Y-138405521D01*
X83020053Y-138391363D01*
X82998223Y-138376777D01*
X82983636Y-138354946D01*
X82969478Y-138340788D01*
X82960324Y-138320057D01*
X82944030Y-138295671D01*
X82939499Y-138272892D01*
X82931766Y-138255379D01*
X82925818Y-138204117D01*
X82925000Y-138200000D01*
X82925000Y-136200000D01*
X82925818Y-136195885D01*
X82931766Y-136144620D01*
X82939499Y-136127105D01*
X82944030Y-136104329D01*
X82960323Y-136079944D01*
X82969478Y-136059211D01*
X82983638Y-136045050D01*
X82998223Y-136023223D01*
X83020050Y-136008638D01*
X83034211Y-135994478D01*
X83054944Y-135985323D01*
X83079329Y-135969030D01*
X83102105Y-135964499D01*
X83119620Y-135956766D01*
X83170884Y-135950818D01*
X83175000Y-135950000D01*
X83925000Y-135950000D01*
X83929116Y-135950818D01*
G37*
G36*
X72646742Y-128796601D02*
G01*
X72800687Y-128860367D01*
X72939234Y-128952941D01*
X73057059Y-129070766D01*
X73149633Y-129209313D01*
X73213399Y-129363258D01*
X73245907Y-129526685D01*
X73245907Y-129693315D01*
X73213399Y-129856742D01*
X73149633Y-130010687D01*
X73057059Y-130149234D01*
X72939234Y-130267059D01*
X72800687Y-130359633D01*
X72646742Y-130423399D01*
X72483315Y-130455907D01*
X72316685Y-130455907D01*
X72153258Y-130423399D01*
X71999313Y-130359633D01*
X71860766Y-130267059D01*
X71742941Y-130149234D01*
X71650367Y-130010687D01*
X71586601Y-129856742D01*
X71554093Y-129693315D01*
X71554093Y-129526685D01*
X71586601Y-129363258D01*
X71650367Y-129209313D01*
X71742941Y-129070766D01*
X71860766Y-128952941D01*
X71999313Y-128860367D01*
X72153258Y-128796601D01*
X72316685Y-128764093D01*
X72483315Y-128764093D01*
X72646742Y-128796601D01*
G37*
G36*
X75186742Y-128796601D02*
G01*
X75340687Y-128860367D01*
X75479234Y-128952941D01*
X75597059Y-129070766D01*
X75689633Y-129209313D01*
X75753399Y-129363258D01*
X75785907Y-129526685D01*
X75785907Y-129693315D01*
X75753399Y-129856742D01*
X75689633Y-130010687D01*
X75597059Y-130149234D01*
X75479234Y-130267059D01*
X75340687Y-130359633D01*
X75186742Y-130423399D01*
X75023315Y-130455907D01*
X74856685Y-130455907D01*
X74693258Y-130423399D01*
X74539313Y-130359633D01*
X74400766Y-130267059D01*
X74282941Y-130149234D01*
X74190367Y-130010687D01*
X74126601Y-129856742D01*
X74094093Y-129693315D01*
X74094093Y-129526685D01*
X74126601Y-129363258D01*
X74190367Y-129209313D01*
X74282941Y-129070766D01*
X74400766Y-128952941D01*
X74539313Y-128860367D01*
X74693258Y-128796601D01*
X74856685Y-128764093D01*
X75023315Y-128764093D01*
X75186742Y-128796601D01*
G37*
G36*
X115826742Y-128796601D02*
G01*
X115980687Y-128860367D01*
X116119234Y-128952941D01*
X116237059Y-129070766D01*
X116329633Y-129209313D01*
X116393399Y-129363258D01*
X116425907Y-129526685D01*
X116425907Y-129693315D01*
X116393399Y-129856742D01*
X116329633Y-130010687D01*
X116237059Y-130149234D01*
X116119234Y-130267059D01*
X115980687Y-130359633D01*
X115826742Y-130423399D01*
X115663315Y-130455907D01*
X115496685Y-130455907D01*
X115333258Y-130423399D01*
X115179313Y-130359633D01*
X115040766Y-130267059D01*
X114922941Y-130149234D01*
X114830367Y-130010687D01*
X114766601Y-129856742D01*
X114734093Y-129693315D01*
X114734093Y-129526685D01*
X114766601Y-129363258D01*
X114830367Y-129209313D01*
X114922941Y-129070766D01*
X115040766Y-128952941D01*
X115179313Y-128860367D01*
X115333258Y-128796601D01*
X115496685Y-128764093D01*
X115663315Y-128764093D01*
X115826742Y-128796601D01*
G37*
G36*
X118366742Y-128796601D02*
G01*
X118520687Y-128860367D01*
X118659234Y-128952941D01*
X118777059Y-129070766D01*
X118869633Y-129209313D01*
X118933399Y-129363258D01*
X118965907Y-129526685D01*
X118965907Y-129693315D01*
X118933399Y-129856742D01*
X118869633Y-130010687D01*
X118777059Y-130149234D01*
X118659234Y-130267059D01*
X118520687Y-130359633D01*
X118366742Y-130423399D01*
X118203315Y-130455907D01*
X118036685Y-130455907D01*
X117873258Y-130423399D01*
X117719313Y-130359633D01*
X117580766Y-130267059D01*
X117462941Y-130149234D01*
X117370367Y-130010687D01*
X117306601Y-129856742D01*
X117274093Y-129693315D01*
X117274093Y-129526685D01*
X117306601Y-129363258D01*
X117370367Y-129209313D01*
X117462941Y-129070766D01*
X117580766Y-128952941D01*
X117719313Y-128860367D01*
X117873258Y-128796601D01*
X118036685Y-128764093D01*
X118203315Y-128764093D01*
X118366742Y-128796601D01*
G37*
G36*
X72646742Y-126256601D02*
G01*
X72800687Y-126320367D01*
X72939234Y-126412941D01*
X73057059Y-126530766D01*
X73149633Y-126669313D01*
X73213399Y-126823258D01*
X73245907Y-126986685D01*
X73245907Y-127153315D01*
X73213399Y-127316742D01*
X73149633Y-127470687D01*
X73057059Y-127609234D01*
X72939234Y-127727059D01*
X72800687Y-127819633D01*
X72646742Y-127883399D01*
X72483315Y-127915907D01*
X72316685Y-127915907D01*
X72153258Y-127883399D01*
X71999313Y-127819633D01*
X71860766Y-127727059D01*
X71742941Y-127609234D01*
X71650367Y-127470687D01*
X71586601Y-127316742D01*
X71554093Y-127153315D01*
X71554093Y-126986685D01*
X71586601Y-126823258D01*
X71650367Y-126669313D01*
X71742941Y-126530766D01*
X71860766Y-126412941D01*
X71999313Y-126320367D01*
X72153258Y-126256601D01*
X72316685Y-126224093D01*
X72483315Y-126224093D01*
X72646742Y-126256601D01*
G37*
G36*
X75186742Y-126256601D02*
G01*
X75340687Y-126320367D01*
X75479234Y-126412941D01*
X75597059Y-126530766D01*
X75689633Y-126669313D01*
X75753399Y-126823258D01*
X75785907Y-126986685D01*
X75785907Y-127153315D01*
X75753399Y-127316742D01*
X75689633Y-127470687D01*
X75597059Y-127609234D01*
X75479234Y-127727059D01*
X75340687Y-127819633D01*
X75186742Y-127883399D01*
X75023315Y-127915907D01*
X74856685Y-127915907D01*
X74693258Y-127883399D01*
X74539313Y-127819633D01*
X74400766Y-127727059D01*
X74282941Y-127609234D01*
X74190367Y-127470687D01*
X74126601Y-127316742D01*
X74094093Y-127153315D01*
X74094093Y-126986685D01*
X74126601Y-126823258D01*
X74190367Y-126669313D01*
X74282941Y-126530766D01*
X74400766Y-126412941D01*
X74539313Y-126320367D01*
X74693258Y-126256601D01*
X74856685Y-126224093D01*
X75023315Y-126224093D01*
X75186742Y-126256601D01*
G37*
G36*
X115826742Y-126256601D02*
G01*
X115980687Y-126320367D01*
X116119234Y-126412941D01*
X116237059Y-126530766D01*
X116329633Y-126669313D01*
X116393399Y-126823258D01*
X116425907Y-126986685D01*
X116425907Y-127153315D01*
X116393399Y-127316742D01*
X116329633Y-127470687D01*
X116237059Y-127609234D01*
X116119234Y-127727059D01*
X115980687Y-127819633D01*
X115826742Y-127883399D01*
X115663315Y-127915907D01*
X115496685Y-127915907D01*
X115333258Y-127883399D01*
X115179313Y-127819633D01*
X115040766Y-127727059D01*
X114922941Y-127609234D01*
X114830367Y-127470687D01*
X114766601Y-127316742D01*
X114734093Y-127153315D01*
X114734093Y-126986685D01*
X114766601Y-126823258D01*
X114830367Y-126669313D01*
X114922941Y-126530766D01*
X115040766Y-126412941D01*
X115179313Y-126320367D01*
X115333258Y-126256601D01*
X115496685Y-126224093D01*
X115663315Y-126224093D01*
X115826742Y-126256601D01*
G37*
G36*
X118366742Y-126256601D02*
G01*
X118520687Y-126320367D01*
X118659234Y-126412941D01*
X118777059Y-126530766D01*
X118869633Y-126669313D01*
X118933399Y-126823258D01*
X118965907Y-126986685D01*
X118965907Y-127153315D01*
X118933399Y-127316742D01*
X118869633Y-127470687D01*
X118777059Y-127609234D01*
X118659234Y-127727059D01*
X118520687Y-127819633D01*
X118366742Y-127883399D01*
X118203315Y-127915907D01*
X118036685Y-127915907D01*
X117873258Y-127883399D01*
X117719313Y-127819633D01*
X117580766Y-127727059D01*
X117462941Y-127609234D01*
X117370367Y-127470687D01*
X117306601Y-127316742D01*
X117274093Y-127153315D01*
X117274093Y-126986685D01*
X117306601Y-126823258D01*
X117370367Y-126669313D01*
X117462941Y-126530766D01*
X117580766Y-126412941D01*
X117719313Y-126320367D01*
X117873258Y-126256601D01*
X118036685Y-126224093D01*
X118203315Y-126224093D01*
X118366742Y-126256601D01*
G37*
G36*
X80304116Y-125050818D02*
G01*
X80355379Y-125056766D01*
X80372892Y-125064499D01*
X80395671Y-125069030D01*
X80420057Y-125085324D01*
X80440788Y-125094478D01*
X80454946Y-125108636D01*
X80476777Y-125123223D01*
X80491363Y-125145053D01*
X80505521Y-125159211D01*
X80514673Y-125179939D01*
X80530970Y-125204329D01*
X80535501Y-125227109D01*
X80543233Y-125244620D01*
X80549178Y-125295872D01*
X80550000Y-125300000D01*
X80550000Y-126400000D01*
X80549178Y-126404128D01*
X80543233Y-126455379D01*
X80535501Y-126472888D01*
X80530970Y-126495671D01*
X80514672Y-126520062D01*
X80505521Y-126540788D01*
X80491365Y-126554943D01*
X80476777Y-126576777D01*
X80454943Y-126591365D01*
X80440788Y-126605521D01*
X80420062Y-126614672D01*
X80395671Y-126630970D01*
X80372888Y-126635501D01*
X80355379Y-126643233D01*
X80304129Y-126649178D01*
X80300000Y-126650000D01*
X78600000Y-126650000D01*
X78595873Y-126649179D01*
X78544620Y-126643233D01*
X78527109Y-126635501D01*
X78504329Y-126630970D01*
X78479939Y-126614673D01*
X78459211Y-126605521D01*
X78445053Y-126591363D01*
X78423223Y-126576777D01*
X78408636Y-126554946D01*
X78394478Y-126540788D01*
X78385324Y-126520057D01*
X78369030Y-126495671D01*
X78364499Y-126472892D01*
X78356766Y-126455379D01*
X78350818Y-126404117D01*
X78350000Y-126400000D01*
X78350000Y-125300000D01*
X78350818Y-125295885D01*
X78356766Y-125244620D01*
X78364499Y-125227105D01*
X78369030Y-125204329D01*
X78385323Y-125179944D01*
X78394478Y-125159211D01*
X78408638Y-125145050D01*
X78423223Y-125123223D01*
X78445050Y-125108638D01*
X78459211Y-125094478D01*
X78479944Y-125085323D01*
X78504329Y-125069030D01*
X78527105Y-125064499D01*
X78544620Y-125056766D01*
X78595884Y-125050818D01*
X78600000Y-125050000D01*
X80300000Y-125050000D01*
X80304116Y-125050818D01*
G37*
G36*
X83304116Y-125050818D02*
G01*
X83355379Y-125056766D01*
X83372892Y-125064499D01*
X83395671Y-125069030D01*
X83420057Y-125085324D01*
X83440788Y-125094478D01*
X83454946Y-125108636D01*
X83476777Y-125123223D01*
X83491363Y-125145053D01*
X83505521Y-125159211D01*
X83514673Y-125179939D01*
X83530970Y-125204329D01*
X83535501Y-125227109D01*
X83543233Y-125244620D01*
X83549178Y-125295872D01*
X83550000Y-125300000D01*
X83550000Y-126400000D01*
X83549178Y-126404128D01*
X83543233Y-126455379D01*
X83535501Y-126472888D01*
X83530970Y-126495671D01*
X83514672Y-126520062D01*
X83505521Y-126540788D01*
X83491365Y-126554943D01*
X83476777Y-126576777D01*
X83454943Y-126591365D01*
X83440788Y-126605521D01*
X83420062Y-126614672D01*
X83395671Y-126630970D01*
X83372888Y-126635501D01*
X83355379Y-126643233D01*
X83304129Y-126649178D01*
X83300000Y-126650000D01*
X81600000Y-126650000D01*
X81595873Y-126649179D01*
X81544620Y-126643233D01*
X81527109Y-126635501D01*
X81504329Y-126630970D01*
X81479939Y-126614673D01*
X81459211Y-126605521D01*
X81445053Y-126591363D01*
X81423223Y-126576777D01*
X81408636Y-126554946D01*
X81394478Y-126540788D01*
X81385324Y-126520057D01*
X81369030Y-126495671D01*
X81364499Y-126472892D01*
X81356766Y-126455379D01*
X81350818Y-126404117D01*
X81350000Y-126400000D01*
X81350000Y-125300000D01*
X81350818Y-125295885D01*
X81356766Y-125244620D01*
X81364499Y-125227105D01*
X81369030Y-125204329D01*
X81385323Y-125179944D01*
X81394478Y-125159211D01*
X81408638Y-125145050D01*
X81423223Y-125123223D01*
X81445050Y-125108638D01*
X81459211Y-125094478D01*
X81479944Y-125085323D01*
X81504329Y-125069030D01*
X81527105Y-125064499D01*
X81544620Y-125056766D01*
X81595884Y-125050818D01*
X81600000Y-125050000D01*
X83300000Y-125050000D01*
X83304116Y-125050818D01*
G37*
G36*
X72646742Y-123716601D02*
G01*
X72800687Y-123780367D01*
X72939234Y-123872941D01*
X73057059Y-123990766D01*
X73149633Y-124129313D01*
X73213399Y-124283258D01*
X73245907Y-124446685D01*
X73245907Y-124613315D01*
X73213399Y-124776742D01*
X73149633Y-124930687D01*
X73057059Y-125069234D01*
X72939234Y-125187059D01*
X72800687Y-125279633D01*
X72646742Y-125343399D01*
X72483315Y-125375907D01*
X72316685Y-125375907D01*
X72153258Y-125343399D01*
X71999313Y-125279633D01*
X71860766Y-125187059D01*
X71742941Y-125069234D01*
X71650367Y-124930687D01*
X71586601Y-124776742D01*
X71554093Y-124613315D01*
X71554093Y-124446685D01*
X71586601Y-124283258D01*
X71650367Y-124129313D01*
X71742941Y-123990766D01*
X71860766Y-123872941D01*
X71999313Y-123780367D01*
X72153258Y-123716601D01*
X72316685Y-123684093D01*
X72483315Y-123684093D01*
X72646742Y-123716601D01*
G37*
G36*
X75186742Y-123716601D02*
G01*
X75340687Y-123780367D01*
X75479234Y-123872941D01*
X75597059Y-123990766D01*
X75689633Y-124129313D01*
X75753399Y-124283258D01*
X75785907Y-124446685D01*
X75785907Y-124613315D01*
X75753399Y-124776742D01*
X75689633Y-124930687D01*
X75597059Y-125069234D01*
X75479234Y-125187059D01*
X75340687Y-125279633D01*
X75186742Y-125343399D01*
X75023315Y-125375907D01*
X74856685Y-125375907D01*
X74693258Y-125343399D01*
X74539313Y-125279633D01*
X74400766Y-125187059D01*
X74282941Y-125069234D01*
X74190367Y-124930687D01*
X74126601Y-124776742D01*
X74094093Y-124613315D01*
X74094093Y-124446685D01*
X74126601Y-124283258D01*
X74190367Y-124129313D01*
X74282941Y-123990766D01*
X74400766Y-123872941D01*
X74539313Y-123780367D01*
X74693258Y-123716601D01*
X74856685Y-123684093D01*
X75023315Y-123684093D01*
X75186742Y-123716601D01*
G37*
G36*
X115826742Y-123716601D02*
G01*
X115980687Y-123780367D01*
X116119234Y-123872941D01*
X116237059Y-123990766D01*
X116329633Y-124129313D01*
X116393399Y-124283258D01*
X116425907Y-124446685D01*
X116425907Y-124613315D01*
X116393399Y-124776742D01*
X116329633Y-124930687D01*
X116237059Y-125069234D01*
X116119234Y-125187059D01*
X115980687Y-125279633D01*
X115826742Y-125343399D01*
X115663315Y-125375907D01*
X115496685Y-125375907D01*
X115333258Y-125343399D01*
X115179313Y-125279633D01*
X115040766Y-125187059D01*
X114922941Y-125069234D01*
X114830367Y-124930687D01*
X114766601Y-124776742D01*
X114734093Y-124613315D01*
X114734093Y-124446685D01*
X114766601Y-124283258D01*
X114830367Y-124129313D01*
X114922941Y-123990766D01*
X115040766Y-123872941D01*
X115179313Y-123780367D01*
X115333258Y-123716601D01*
X115496685Y-123684093D01*
X115663315Y-123684093D01*
X115826742Y-123716601D01*
G37*
G36*
X118366742Y-123716601D02*
G01*
X118520687Y-123780367D01*
X118659234Y-123872941D01*
X118777059Y-123990766D01*
X118869633Y-124129313D01*
X118933399Y-124283258D01*
X118965907Y-124446685D01*
X118965907Y-124613315D01*
X118933399Y-124776742D01*
X118869633Y-124930687D01*
X118777059Y-125069234D01*
X118659234Y-125187059D01*
X118520687Y-125279633D01*
X118366742Y-125343399D01*
X118203315Y-125375907D01*
X118036685Y-125375907D01*
X117873258Y-125343399D01*
X117719313Y-125279633D01*
X117580766Y-125187059D01*
X117462941Y-125069234D01*
X117370367Y-124930687D01*
X117306601Y-124776742D01*
X117274093Y-124613315D01*
X117274093Y-124446685D01*
X117306601Y-124283258D01*
X117370367Y-124129313D01*
X117462941Y-123990766D01*
X117580766Y-123872941D01*
X117719313Y-123780367D01*
X117873258Y-123716601D01*
X118036685Y-123684093D01*
X118203315Y-123684093D01*
X118366742Y-123716601D01*
G37*
G36*
X104690000Y-123050000D02*
G01*
X102990000Y-123050000D01*
X102990000Y-121350000D01*
X104690000Y-121350000D01*
X104690000Y-123050000D01*
G37*
G36*
X86306742Y-121386601D02*
G01*
X86460687Y-121450367D01*
X86599234Y-121542941D01*
X86717059Y-121660766D01*
X86809633Y-121799313D01*
X86873399Y-121953258D01*
X86905907Y-122116685D01*
X86905907Y-122283315D01*
X86873399Y-122446742D01*
X86809633Y-122600687D01*
X86717059Y-122739234D01*
X86599234Y-122857059D01*
X86460687Y-122949633D01*
X86306742Y-123013399D01*
X86143315Y-123045907D01*
X85976685Y-123045907D01*
X85813258Y-123013399D01*
X85659313Y-122949633D01*
X85520766Y-122857059D01*
X85402941Y-122739234D01*
X85310367Y-122600687D01*
X85246601Y-122446742D01*
X85214093Y-122283315D01*
X85214093Y-122116685D01*
X85246601Y-121953258D01*
X85310367Y-121799313D01*
X85402941Y-121660766D01*
X85520766Y-121542941D01*
X85659313Y-121450367D01*
X85813258Y-121386601D01*
X85976685Y-121354093D01*
X86143315Y-121354093D01*
X86306742Y-121386601D01*
G37*
G36*
X88846742Y-121386601D02*
G01*
X89000687Y-121450367D01*
X89139234Y-121542941D01*
X89257059Y-121660766D01*
X89349633Y-121799313D01*
X89413399Y-121953258D01*
X89445907Y-122116685D01*
X89445907Y-122283315D01*
X89413399Y-122446742D01*
X89349633Y-122600687D01*
X89257059Y-122739234D01*
X89139234Y-122857059D01*
X89000687Y-122949633D01*
X88846742Y-123013399D01*
X88683315Y-123045907D01*
X88516685Y-123045907D01*
X88353258Y-123013399D01*
X88199313Y-122949633D01*
X88060766Y-122857059D01*
X87942941Y-122739234D01*
X87850367Y-122600687D01*
X87786601Y-122446742D01*
X87754093Y-122283315D01*
X87754093Y-122116685D01*
X87786601Y-121953258D01*
X87850367Y-121799313D01*
X87942941Y-121660766D01*
X88060766Y-121542941D01*
X88199313Y-121450367D01*
X88353258Y-121386601D01*
X88516685Y-121354093D01*
X88683315Y-121354093D01*
X88846742Y-121386601D01*
G37*
G36*
X91386742Y-121386601D02*
G01*
X91540687Y-121450367D01*
X91679234Y-121542941D01*
X91797059Y-121660766D01*
X91889633Y-121799313D01*
X91953399Y-121953258D01*
X91985907Y-122116685D01*
X91985907Y-122283315D01*
X91953399Y-122446742D01*
X91889633Y-122600687D01*
X91797059Y-122739234D01*
X91679234Y-122857059D01*
X91540687Y-122949633D01*
X91386742Y-123013399D01*
X91223315Y-123045907D01*
X91056685Y-123045907D01*
X90893258Y-123013399D01*
X90739313Y-122949633D01*
X90600766Y-122857059D01*
X90482941Y-122739234D01*
X90390367Y-122600687D01*
X90326601Y-122446742D01*
X90294093Y-122283315D01*
X90294093Y-122116685D01*
X90326601Y-121953258D01*
X90390367Y-121799313D01*
X90482941Y-121660766D01*
X90600766Y-121542941D01*
X90739313Y-121450367D01*
X90893258Y-121386601D01*
X91056685Y-121354093D01*
X91223315Y-121354093D01*
X91386742Y-121386601D01*
G37*
G36*
X93926742Y-121386601D02*
G01*
X94080687Y-121450367D01*
X94219234Y-121542941D01*
X94337059Y-121660766D01*
X94429633Y-121799313D01*
X94493399Y-121953258D01*
X94525907Y-122116685D01*
X94525907Y-122283315D01*
X94493399Y-122446742D01*
X94429633Y-122600687D01*
X94337059Y-122739234D01*
X94219234Y-122857059D01*
X94080687Y-122949633D01*
X93926742Y-123013399D01*
X93763315Y-123045907D01*
X93596685Y-123045907D01*
X93433258Y-123013399D01*
X93279313Y-122949633D01*
X93140766Y-122857059D01*
X93022941Y-122739234D01*
X92930367Y-122600687D01*
X92866601Y-122446742D01*
X92834093Y-122283315D01*
X92834093Y-122116685D01*
X92866601Y-121953258D01*
X92930367Y-121799313D01*
X93022941Y-121660766D01*
X93140766Y-121542941D01*
X93279313Y-121450367D01*
X93433258Y-121386601D01*
X93596685Y-121354093D01*
X93763315Y-121354093D01*
X93926742Y-121386601D01*
G37*
G36*
X96466742Y-121386601D02*
G01*
X96620687Y-121450367D01*
X96759234Y-121542941D01*
X96877059Y-121660766D01*
X96969633Y-121799313D01*
X97033399Y-121953258D01*
X97065907Y-122116685D01*
X97065907Y-122283315D01*
X97033399Y-122446742D01*
X96969633Y-122600687D01*
X96877059Y-122739234D01*
X96759234Y-122857059D01*
X96620687Y-122949633D01*
X96466742Y-123013399D01*
X96303315Y-123045907D01*
X96136685Y-123045907D01*
X95973258Y-123013399D01*
X95819313Y-122949633D01*
X95680766Y-122857059D01*
X95562941Y-122739234D01*
X95470367Y-122600687D01*
X95406601Y-122446742D01*
X95374093Y-122283315D01*
X95374093Y-122116685D01*
X95406601Y-121953258D01*
X95470367Y-121799313D01*
X95562941Y-121660766D01*
X95680766Y-121542941D01*
X95819313Y-121450367D01*
X95973258Y-121386601D01*
X96136685Y-121354093D01*
X96303315Y-121354093D01*
X96466742Y-121386601D01*
G37*
G36*
X99006742Y-121386601D02*
G01*
X99160687Y-121450367D01*
X99299234Y-121542941D01*
X99417059Y-121660766D01*
X99509633Y-121799313D01*
X99573399Y-121953258D01*
X99605907Y-122116685D01*
X99605907Y-122283315D01*
X99573399Y-122446742D01*
X99509633Y-122600687D01*
X99417059Y-122739234D01*
X99299234Y-122857059D01*
X99160687Y-122949633D01*
X99006742Y-123013399D01*
X98843315Y-123045907D01*
X98676685Y-123045907D01*
X98513258Y-123013399D01*
X98359313Y-122949633D01*
X98220766Y-122857059D01*
X98102941Y-122739234D01*
X98010367Y-122600687D01*
X97946601Y-122446742D01*
X97914093Y-122283315D01*
X97914093Y-122116685D01*
X97946601Y-121953258D01*
X98010367Y-121799313D01*
X98102941Y-121660766D01*
X98220766Y-121542941D01*
X98359313Y-121450367D01*
X98513258Y-121386601D01*
X98676685Y-121354093D01*
X98843315Y-121354093D01*
X99006742Y-121386601D01*
G37*
G36*
X101546742Y-121386601D02*
G01*
X101700687Y-121450367D01*
X101839234Y-121542941D01*
X101957059Y-121660766D01*
X102049633Y-121799313D01*
X102113399Y-121953258D01*
X102145907Y-122116685D01*
X102145907Y-122283315D01*
X102113399Y-122446742D01*
X102049633Y-122600687D01*
X101957059Y-122739234D01*
X101839234Y-122857059D01*
X101700687Y-122949633D01*
X101546742Y-123013399D01*
X101383315Y-123045907D01*
X101216685Y-123045907D01*
X101053258Y-123013399D01*
X100899313Y-122949633D01*
X100760766Y-122857059D01*
X100642941Y-122739234D01*
X100550367Y-122600687D01*
X100486601Y-122446742D01*
X100454093Y-122283315D01*
X100454093Y-122116685D01*
X100486601Y-121953258D01*
X100550367Y-121799313D01*
X100642941Y-121660766D01*
X100760766Y-121542941D01*
X100899313Y-121450367D01*
X101053258Y-121386601D01*
X101216685Y-121354093D01*
X101383315Y-121354093D01*
X101546742Y-121386601D01*
G37*
G36*
X72646742Y-121176601D02*
G01*
X72800687Y-121240367D01*
X72939234Y-121332941D01*
X73057059Y-121450766D01*
X73149633Y-121589313D01*
X73213399Y-121743258D01*
X73245907Y-121906685D01*
X73245907Y-122073315D01*
X73213399Y-122236742D01*
X73149633Y-122390687D01*
X73057059Y-122529234D01*
X72939234Y-122647059D01*
X72800687Y-122739633D01*
X72646742Y-122803399D01*
X72483315Y-122835907D01*
X72316685Y-122835907D01*
X72153258Y-122803399D01*
X71999313Y-122739633D01*
X71860766Y-122647059D01*
X71742941Y-122529234D01*
X71650367Y-122390687D01*
X71586601Y-122236742D01*
X71554093Y-122073315D01*
X71554093Y-121906685D01*
X71586601Y-121743258D01*
X71650367Y-121589313D01*
X71742941Y-121450766D01*
X71860766Y-121332941D01*
X71999313Y-121240367D01*
X72153258Y-121176601D01*
X72316685Y-121144093D01*
X72483315Y-121144093D01*
X72646742Y-121176601D01*
G37*
G36*
X75186742Y-121176601D02*
G01*
X75340687Y-121240367D01*
X75479234Y-121332941D01*
X75597059Y-121450766D01*
X75689633Y-121589313D01*
X75753399Y-121743258D01*
X75785907Y-121906685D01*
X75785907Y-122073315D01*
X75753399Y-122236742D01*
X75689633Y-122390687D01*
X75597059Y-122529234D01*
X75479234Y-122647059D01*
X75340687Y-122739633D01*
X75186742Y-122803399D01*
X75023315Y-122835907D01*
X74856685Y-122835907D01*
X74693258Y-122803399D01*
X74539313Y-122739633D01*
X74400766Y-122647059D01*
X74282941Y-122529234D01*
X74190367Y-122390687D01*
X74126601Y-122236742D01*
X74094093Y-122073315D01*
X74094093Y-121906685D01*
X74126601Y-121743258D01*
X74190367Y-121589313D01*
X74282941Y-121450766D01*
X74400766Y-121332941D01*
X74539313Y-121240367D01*
X74693258Y-121176601D01*
X74856685Y-121144093D01*
X75023315Y-121144093D01*
X75186742Y-121176601D01*
G37*
G36*
X115826742Y-121176601D02*
G01*
X115980687Y-121240367D01*
X116119234Y-121332941D01*
X116237059Y-121450766D01*
X116329633Y-121589313D01*
X116393399Y-121743258D01*
X116425907Y-121906685D01*
X116425907Y-122073315D01*
X116393399Y-122236742D01*
X116329633Y-122390687D01*
X116237059Y-122529234D01*
X116119234Y-122647059D01*
X115980687Y-122739633D01*
X115826742Y-122803399D01*
X115663315Y-122835907D01*
X115496685Y-122835907D01*
X115333258Y-122803399D01*
X115179313Y-122739633D01*
X115040766Y-122647059D01*
X114922941Y-122529234D01*
X114830367Y-122390687D01*
X114766601Y-122236742D01*
X114734093Y-122073315D01*
X114734093Y-121906685D01*
X114766601Y-121743258D01*
X114830367Y-121589313D01*
X114922941Y-121450766D01*
X115040766Y-121332941D01*
X115179313Y-121240367D01*
X115333258Y-121176601D01*
X115496685Y-121144093D01*
X115663315Y-121144093D01*
X115826742Y-121176601D01*
G37*
G36*
X118366742Y-121176601D02*
G01*
X118520687Y-121240367D01*
X118659234Y-121332941D01*
X118777059Y-121450766D01*
X118869633Y-121589313D01*
X118933399Y-121743258D01*
X118965907Y-121906685D01*
X118965907Y-122073315D01*
X118933399Y-122236742D01*
X118869633Y-122390687D01*
X118777059Y-122529234D01*
X118659234Y-122647059D01*
X118520687Y-122739633D01*
X118366742Y-122803399D01*
X118203315Y-122835907D01*
X118036685Y-122835907D01*
X117873258Y-122803399D01*
X117719313Y-122739633D01*
X117580766Y-122647059D01*
X117462941Y-122529234D01*
X117370367Y-122390687D01*
X117306601Y-122236742D01*
X117274093Y-122073315D01*
X117274093Y-121906685D01*
X117306601Y-121743258D01*
X117370367Y-121589313D01*
X117462941Y-121450766D01*
X117580766Y-121332941D01*
X117719313Y-121240367D01*
X117873258Y-121176601D01*
X118036685Y-121144093D01*
X118203315Y-121144093D01*
X118366742Y-121176601D01*
G37*
G36*
X80391615Y-121225818D02*
G01*
X80440017Y-121231434D01*
X80456555Y-121238736D01*
X80478387Y-121243079D01*
X80501759Y-121258695D01*
X80521224Y-121267290D01*
X80534517Y-121280583D01*
X80555438Y-121294562D01*
X80569416Y-121315482D01*
X80582709Y-121328775D01*
X80591302Y-121348238D01*
X80606921Y-121371613D01*
X80611264Y-121393446D01*
X80618565Y-121409982D01*
X80624178Y-121458372D01*
X80625000Y-121462500D01*
X80625000Y-121937500D01*
X80624178Y-121941627D01*
X80618565Y-121990017D01*
X80611264Y-122006551D01*
X80606921Y-122028387D01*
X80591301Y-122051763D01*
X80582709Y-122071224D01*
X80569418Y-122084514D01*
X80555438Y-122105438D01*
X80534514Y-122119418D01*
X80521224Y-122132709D01*
X80501763Y-122141301D01*
X80478387Y-122156921D01*
X80456551Y-122161264D01*
X80440017Y-122168565D01*
X80391629Y-122174178D01*
X80387500Y-122175000D01*
X79787500Y-122175000D01*
X79783373Y-122174179D01*
X79734982Y-122168565D01*
X79718446Y-122161264D01*
X79696613Y-122156921D01*
X79673238Y-122141302D01*
X79653775Y-122132709D01*
X79640482Y-122119416D01*
X79619562Y-122105438D01*
X79605583Y-122084517D01*
X79592290Y-122071224D01*
X79583695Y-122051759D01*
X79568079Y-122028387D01*
X79563736Y-122006555D01*
X79556434Y-121990017D01*
X79550818Y-121941616D01*
X79550000Y-121937500D01*
X79550000Y-121462500D01*
X79550818Y-121458385D01*
X79556434Y-121409982D01*
X79563736Y-121393442D01*
X79568079Y-121371613D01*
X79583694Y-121348242D01*
X79592290Y-121328775D01*
X79605585Y-121315479D01*
X79619562Y-121294562D01*
X79640479Y-121280585D01*
X79653775Y-121267290D01*
X79673242Y-121258694D01*
X79696613Y-121243079D01*
X79718442Y-121238736D01*
X79734982Y-121231434D01*
X79783384Y-121225818D01*
X79787500Y-121225000D01*
X80387500Y-121225000D01*
X80391615Y-121225818D01*
G37*
G36*
X82116615Y-121225818D02*
G01*
X82165017Y-121231434D01*
X82181555Y-121238736D01*
X82203387Y-121243079D01*
X82226759Y-121258695D01*
X82246224Y-121267290D01*
X82259517Y-121280583D01*
X82280438Y-121294562D01*
X82294416Y-121315482D01*
X82307709Y-121328775D01*
X82316302Y-121348238D01*
X82331921Y-121371613D01*
X82336264Y-121393446D01*
X82343565Y-121409982D01*
X82349178Y-121458372D01*
X82350000Y-121462500D01*
X82350000Y-121937500D01*
X82349178Y-121941627D01*
X82343565Y-121990017D01*
X82336264Y-122006551D01*
X82331921Y-122028387D01*
X82316301Y-122051763D01*
X82307709Y-122071224D01*
X82294418Y-122084514D01*
X82280438Y-122105438D01*
X82259514Y-122119418D01*
X82246224Y-122132709D01*
X82226763Y-122141301D01*
X82203387Y-122156921D01*
X82181551Y-122161264D01*
X82165017Y-122168565D01*
X82116629Y-122174178D01*
X82112500Y-122175000D01*
X81512500Y-122175000D01*
X81508373Y-122174179D01*
X81459982Y-122168565D01*
X81443446Y-122161264D01*
X81421613Y-122156921D01*
X81398238Y-122141302D01*
X81378775Y-122132709D01*
X81365482Y-122119416D01*
X81344562Y-122105438D01*
X81330583Y-122084517D01*
X81317290Y-122071224D01*
X81308695Y-122051759D01*
X81293079Y-122028387D01*
X81288736Y-122006555D01*
X81281434Y-121990017D01*
X81275818Y-121941616D01*
X81275000Y-121937500D01*
X81275000Y-121462500D01*
X81275818Y-121458385D01*
X81281434Y-121409982D01*
X81288736Y-121393442D01*
X81293079Y-121371613D01*
X81308694Y-121348242D01*
X81317290Y-121328775D01*
X81330585Y-121315479D01*
X81344562Y-121294562D01*
X81365479Y-121280585D01*
X81378775Y-121267290D01*
X81398242Y-121258694D01*
X81421613Y-121243079D01*
X81443442Y-121238736D01*
X81459982Y-121231434D01*
X81508384Y-121225818D01*
X81512500Y-121225000D01*
X82112500Y-121225000D01*
X82116615Y-121225818D01*
G37*
G36*
X72646742Y-118636601D02*
G01*
X72800687Y-118700367D01*
X72939234Y-118792941D01*
X73057059Y-118910766D01*
X73149633Y-119049313D01*
X73213399Y-119203258D01*
X73245907Y-119366685D01*
X73245907Y-119533315D01*
X73213399Y-119696742D01*
X73149633Y-119850687D01*
X73057059Y-119989234D01*
X72939234Y-120107059D01*
X72800687Y-120199633D01*
X72646742Y-120263399D01*
X72483315Y-120295907D01*
X72316685Y-120295907D01*
X72153258Y-120263399D01*
X71999313Y-120199633D01*
X71860766Y-120107059D01*
X71742941Y-119989234D01*
X71650367Y-119850687D01*
X71586601Y-119696742D01*
X71554093Y-119533315D01*
X71554093Y-119366685D01*
X71586601Y-119203258D01*
X71650367Y-119049313D01*
X71742941Y-118910766D01*
X71860766Y-118792941D01*
X71999313Y-118700367D01*
X72153258Y-118636601D01*
X72316685Y-118604093D01*
X72483315Y-118604093D01*
X72646742Y-118636601D01*
G37*
G36*
X75186742Y-118636601D02*
G01*
X75340687Y-118700367D01*
X75479234Y-118792941D01*
X75597059Y-118910766D01*
X75689633Y-119049313D01*
X75753399Y-119203258D01*
X75785907Y-119366685D01*
X75785907Y-119533315D01*
X75753399Y-119696742D01*
X75689633Y-119850687D01*
X75597059Y-119989234D01*
X75479234Y-120107059D01*
X75340687Y-120199633D01*
X75186742Y-120263399D01*
X75023315Y-120295907D01*
X74856685Y-120295907D01*
X74693258Y-120263399D01*
X74539313Y-120199633D01*
X74400766Y-120107059D01*
X74282941Y-119989234D01*
X74190367Y-119850687D01*
X74126601Y-119696742D01*
X74094093Y-119533315D01*
X74094093Y-119366685D01*
X74126601Y-119203258D01*
X74190367Y-119049313D01*
X74282941Y-118910766D01*
X74400766Y-118792941D01*
X74539313Y-118700367D01*
X74693258Y-118636601D01*
X74856685Y-118604093D01*
X75023315Y-118604093D01*
X75186742Y-118636601D01*
G37*
G36*
X115826742Y-118636601D02*
G01*
X115980687Y-118700367D01*
X116119234Y-118792941D01*
X116237059Y-118910766D01*
X116329633Y-119049313D01*
X116393399Y-119203258D01*
X116425907Y-119366685D01*
X116425907Y-119533315D01*
X116393399Y-119696742D01*
X116329633Y-119850687D01*
X116237059Y-119989234D01*
X116119234Y-120107059D01*
X115980687Y-120199633D01*
X115826742Y-120263399D01*
X115663315Y-120295907D01*
X115496685Y-120295907D01*
X115333258Y-120263399D01*
X115179313Y-120199633D01*
X115040766Y-120107059D01*
X114922941Y-119989234D01*
X114830367Y-119850687D01*
X114766601Y-119696742D01*
X114734093Y-119533315D01*
X114734093Y-119366685D01*
X114766601Y-119203258D01*
X114830367Y-119049313D01*
X114922941Y-118910766D01*
X115040766Y-118792941D01*
X115179313Y-118700367D01*
X115333258Y-118636601D01*
X115496685Y-118604093D01*
X115663315Y-118604093D01*
X115826742Y-118636601D01*
G37*
G36*
X118366742Y-118636601D02*
G01*
X118520687Y-118700367D01*
X118659234Y-118792941D01*
X118777059Y-118910766D01*
X118869633Y-119049313D01*
X118933399Y-119203258D01*
X118965907Y-119366685D01*
X118965907Y-119533315D01*
X118933399Y-119696742D01*
X118869633Y-119850687D01*
X118777059Y-119989234D01*
X118659234Y-120107059D01*
X118520687Y-120199633D01*
X118366742Y-120263399D01*
X118203315Y-120295907D01*
X118036685Y-120295907D01*
X117873258Y-120263399D01*
X117719313Y-120199633D01*
X117580766Y-120107059D01*
X117462941Y-119989234D01*
X117370367Y-119850687D01*
X117306601Y-119696742D01*
X117274093Y-119533315D01*
X117274093Y-119366685D01*
X117306601Y-119203258D01*
X117370367Y-119049313D01*
X117462941Y-118910766D01*
X117580766Y-118792941D01*
X117719313Y-118700367D01*
X117873258Y-118636601D01*
X118036685Y-118604093D01*
X118203315Y-118604093D01*
X118366742Y-118636601D01*
G37*
G36*
X80854116Y-117700818D02*
G01*
X80905379Y-117706766D01*
X80922892Y-117714499D01*
X80945671Y-117719030D01*
X80970057Y-117735324D01*
X80990788Y-117744478D01*
X81004946Y-117758636D01*
X81026777Y-117773223D01*
X81041363Y-117795053D01*
X81055521Y-117809211D01*
X81064673Y-117829939D01*
X81080970Y-117854329D01*
X81085501Y-117877109D01*
X81093233Y-117894620D01*
X81099178Y-117945872D01*
X81100000Y-117950000D01*
X81100000Y-119650000D01*
X81099178Y-119654128D01*
X81093233Y-119705379D01*
X81085501Y-119722888D01*
X81080970Y-119745671D01*
X81064672Y-119770062D01*
X81055521Y-119790788D01*
X81041365Y-119804943D01*
X81026777Y-119826777D01*
X81004943Y-119841365D01*
X80990788Y-119855521D01*
X80970062Y-119864672D01*
X80945671Y-119880970D01*
X80922888Y-119885501D01*
X80905379Y-119893233D01*
X80854129Y-119899178D01*
X80850000Y-119900000D01*
X79750000Y-119900000D01*
X79745873Y-119899179D01*
X79694620Y-119893233D01*
X79677109Y-119885501D01*
X79654329Y-119880970D01*
X79629939Y-119864673D01*
X79609211Y-119855521D01*
X79595053Y-119841363D01*
X79573223Y-119826777D01*
X79558636Y-119804946D01*
X79544478Y-119790788D01*
X79535324Y-119770057D01*
X79519030Y-119745671D01*
X79514499Y-119722892D01*
X79506766Y-119705379D01*
X79500818Y-119654117D01*
X79500000Y-119650000D01*
X79500000Y-117950000D01*
X79500818Y-117945885D01*
X79506766Y-117894620D01*
X79514499Y-117877105D01*
X79519030Y-117854329D01*
X79535323Y-117829944D01*
X79544478Y-117809211D01*
X79558638Y-117795050D01*
X79573223Y-117773223D01*
X79595050Y-117758638D01*
X79609211Y-117744478D01*
X79629944Y-117735323D01*
X79654329Y-117719030D01*
X79677105Y-117714499D01*
X79694620Y-117706766D01*
X79745884Y-117700818D01*
X79750000Y-117700000D01*
X80850000Y-117700000D01*
X80854116Y-117700818D01*
G37*
G36*
X72646742Y-116096601D02*
G01*
X72800687Y-116160367D01*
X72939234Y-116252941D01*
X73057059Y-116370766D01*
X73149633Y-116509313D01*
X73213399Y-116663258D01*
X73245907Y-116826685D01*
X73245907Y-116993315D01*
X73213399Y-117156742D01*
X73149633Y-117310687D01*
X73057059Y-117449234D01*
X72939234Y-117567059D01*
X72800687Y-117659633D01*
X72646742Y-117723399D01*
X72483315Y-117755907D01*
X72316685Y-117755907D01*
X72153258Y-117723399D01*
X71999313Y-117659633D01*
X71860766Y-117567059D01*
X71742941Y-117449234D01*
X71650367Y-117310687D01*
X71586601Y-117156742D01*
X71554093Y-116993315D01*
X71554093Y-116826685D01*
X71586601Y-116663258D01*
X71650367Y-116509313D01*
X71742941Y-116370766D01*
X71860766Y-116252941D01*
X71999313Y-116160367D01*
X72153258Y-116096601D01*
X72316685Y-116064093D01*
X72483315Y-116064093D01*
X72646742Y-116096601D01*
G37*
G36*
X75186742Y-116096601D02*
G01*
X75340687Y-116160367D01*
X75479234Y-116252941D01*
X75597059Y-116370766D01*
X75689633Y-116509313D01*
X75753399Y-116663258D01*
X75785907Y-116826685D01*
X75785907Y-116993315D01*
X75753399Y-117156742D01*
X75689633Y-117310687D01*
X75597059Y-117449234D01*
X75479234Y-117567059D01*
X75340687Y-117659633D01*
X75186742Y-117723399D01*
X75023315Y-117755907D01*
X74856685Y-117755907D01*
X74693258Y-117723399D01*
X74539313Y-117659633D01*
X74400766Y-117567059D01*
X74282941Y-117449234D01*
X74190367Y-117310687D01*
X74126601Y-117156742D01*
X74094093Y-116993315D01*
X74094093Y-116826685D01*
X74126601Y-116663258D01*
X74190367Y-116509313D01*
X74282941Y-116370766D01*
X74400766Y-116252941D01*
X74539313Y-116160367D01*
X74693258Y-116096601D01*
X74856685Y-116064093D01*
X75023315Y-116064093D01*
X75186742Y-116096601D01*
G37*
G36*
X115826742Y-116096601D02*
G01*
X115980687Y-116160367D01*
X116119234Y-116252941D01*
X116237059Y-116370766D01*
X116329633Y-116509313D01*
X116393399Y-116663258D01*
X116425907Y-116826685D01*
X116425907Y-116993315D01*
X116393399Y-117156742D01*
X116329633Y-117310687D01*
X116237059Y-117449234D01*
X116119234Y-117567059D01*
X115980687Y-117659633D01*
X115826742Y-117723399D01*
X115663315Y-117755907D01*
X115496685Y-117755907D01*
X115333258Y-117723399D01*
X115179313Y-117659633D01*
X115040766Y-117567059D01*
X114922941Y-117449234D01*
X114830367Y-117310687D01*
X114766601Y-117156742D01*
X114734093Y-116993315D01*
X114734093Y-116826685D01*
X114766601Y-116663258D01*
X114830367Y-116509313D01*
X114922941Y-116370766D01*
X115040766Y-116252941D01*
X115179313Y-116160367D01*
X115333258Y-116096601D01*
X115496685Y-116064093D01*
X115663315Y-116064093D01*
X115826742Y-116096601D01*
G37*
G36*
X118366742Y-116096601D02*
G01*
X118520687Y-116160367D01*
X118659234Y-116252941D01*
X118777059Y-116370766D01*
X118869633Y-116509313D01*
X118933399Y-116663258D01*
X118965907Y-116826685D01*
X118965907Y-116993315D01*
X118933399Y-117156742D01*
X118869633Y-117310687D01*
X118777059Y-117449234D01*
X118659234Y-117567059D01*
X118520687Y-117659633D01*
X118366742Y-117723399D01*
X118203315Y-117755907D01*
X118036685Y-117755907D01*
X117873258Y-117723399D01*
X117719313Y-117659633D01*
X117580766Y-117567059D01*
X117462941Y-117449234D01*
X117370367Y-117310687D01*
X117306601Y-117156742D01*
X117274093Y-116993315D01*
X117274093Y-116826685D01*
X117306601Y-116663258D01*
X117370367Y-116509313D01*
X117462941Y-116370766D01*
X117580766Y-116252941D01*
X117719313Y-116160367D01*
X117873258Y-116096601D01*
X118036685Y-116064093D01*
X118203315Y-116064093D01*
X118366742Y-116096601D01*
G37*
G36*
X80854116Y-114700818D02*
G01*
X80905379Y-114706766D01*
X80922892Y-114714499D01*
X80945671Y-114719030D01*
X80970057Y-114735324D01*
X80990788Y-114744478D01*
X81004946Y-114758636D01*
X81026777Y-114773223D01*
X81041363Y-114795053D01*
X81055521Y-114809211D01*
X81064673Y-114829939D01*
X81080970Y-114854329D01*
X81085501Y-114877109D01*
X81093233Y-114894620D01*
X81099178Y-114945872D01*
X81100000Y-114950000D01*
X81100000Y-116650000D01*
X81099178Y-116654128D01*
X81093233Y-116705379D01*
X81085501Y-116722888D01*
X81080970Y-116745671D01*
X81064672Y-116770062D01*
X81055521Y-116790788D01*
X81041365Y-116804943D01*
X81026777Y-116826777D01*
X81004943Y-116841365D01*
X80990788Y-116855521D01*
X80970062Y-116864672D01*
X80945671Y-116880970D01*
X80922888Y-116885501D01*
X80905379Y-116893233D01*
X80854129Y-116899178D01*
X80850000Y-116900000D01*
X79750000Y-116900000D01*
X79745873Y-116899179D01*
X79694620Y-116893233D01*
X79677109Y-116885501D01*
X79654329Y-116880970D01*
X79629939Y-116864673D01*
X79609211Y-116855521D01*
X79595053Y-116841363D01*
X79573223Y-116826777D01*
X79558636Y-116804946D01*
X79544478Y-116790788D01*
X79535324Y-116770057D01*
X79519030Y-116745671D01*
X79514499Y-116722892D01*
X79506766Y-116705379D01*
X79500818Y-116654117D01*
X79500000Y-116650000D01*
X79500000Y-114950000D01*
X79500818Y-114945885D01*
X79506766Y-114894620D01*
X79514499Y-114877105D01*
X79519030Y-114854329D01*
X79535323Y-114829944D01*
X79544478Y-114809211D01*
X79558638Y-114795050D01*
X79573223Y-114773223D01*
X79595050Y-114758638D01*
X79609211Y-114744478D01*
X79629944Y-114735323D01*
X79654329Y-114719030D01*
X79677105Y-114714499D01*
X79694620Y-114706766D01*
X79745884Y-114700818D01*
X79750000Y-114700000D01*
X80850000Y-114700000D01*
X80854116Y-114700818D01*
G37*
G36*
X72646742Y-113556601D02*
G01*
X72800687Y-113620367D01*
X72939234Y-113712941D01*
X73057059Y-113830766D01*
X73149633Y-113969313D01*
X73213399Y-114123258D01*
X73245907Y-114286685D01*
X73245907Y-114453315D01*
X73213399Y-114616742D01*
X73149633Y-114770687D01*
X73057059Y-114909234D01*
X72939234Y-115027059D01*
X72800687Y-115119633D01*
X72646742Y-115183399D01*
X72483315Y-115215907D01*
X72316685Y-115215907D01*
X72153258Y-115183399D01*
X71999313Y-115119633D01*
X71860766Y-115027059D01*
X71742941Y-114909234D01*
X71650367Y-114770687D01*
X71586601Y-114616742D01*
X71554093Y-114453315D01*
X71554093Y-114286685D01*
X71586601Y-114123258D01*
X71650367Y-113969313D01*
X71742941Y-113830766D01*
X71860766Y-113712941D01*
X71999313Y-113620367D01*
X72153258Y-113556601D01*
X72316685Y-113524093D01*
X72483315Y-113524093D01*
X72646742Y-113556601D01*
G37*
G36*
X75186742Y-113556601D02*
G01*
X75340687Y-113620367D01*
X75479234Y-113712941D01*
X75597059Y-113830766D01*
X75689633Y-113969313D01*
X75753399Y-114123258D01*
X75785907Y-114286685D01*
X75785907Y-114453315D01*
X75753399Y-114616742D01*
X75689633Y-114770687D01*
X75597059Y-114909234D01*
X75479234Y-115027059D01*
X75340687Y-115119633D01*
X75186742Y-115183399D01*
X75023315Y-115215907D01*
X74856685Y-115215907D01*
X74693258Y-115183399D01*
X74539313Y-115119633D01*
X74400766Y-115027059D01*
X74282941Y-114909234D01*
X74190367Y-114770687D01*
X74126601Y-114616742D01*
X74094093Y-114453315D01*
X74094093Y-114286685D01*
X74126601Y-114123258D01*
X74190367Y-113969313D01*
X74282941Y-113830766D01*
X74400766Y-113712941D01*
X74539313Y-113620367D01*
X74693258Y-113556601D01*
X74856685Y-113524093D01*
X75023315Y-113524093D01*
X75186742Y-113556601D01*
G37*
G36*
X115826742Y-113556601D02*
G01*
X115980687Y-113620367D01*
X116119234Y-113712941D01*
X116237059Y-113830766D01*
X116329633Y-113969313D01*
X116393399Y-114123258D01*
X116425907Y-114286685D01*
X116425907Y-114453315D01*
X116393399Y-114616742D01*
X116329633Y-114770687D01*
X116237059Y-114909234D01*
X116119234Y-115027059D01*
X115980687Y-115119633D01*
X115826742Y-115183399D01*
X115663315Y-115215907D01*
X115496685Y-115215907D01*
X115333258Y-115183399D01*
X115179313Y-115119633D01*
X115040766Y-115027059D01*
X114922941Y-114909234D01*
X114830367Y-114770687D01*
X114766601Y-114616742D01*
X114734093Y-114453315D01*
X114734093Y-114286685D01*
X114766601Y-114123258D01*
X114830367Y-113969313D01*
X114922941Y-113830766D01*
X115040766Y-113712941D01*
X115179313Y-113620367D01*
X115333258Y-113556601D01*
X115496685Y-113524093D01*
X115663315Y-113524093D01*
X115826742Y-113556601D01*
G37*
G36*
X118366742Y-113556601D02*
G01*
X118520687Y-113620367D01*
X118659234Y-113712941D01*
X118777059Y-113830766D01*
X118869633Y-113969313D01*
X118933399Y-114123258D01*
X118965907Y-114286685D01*
X118965907Y-114453315D01*
X118933399Y-114616742D01*
X118869633Y-114770687D01*
X118777059Y-114909234D01*
X118659234Y-115027059D01*
X118520687Y-115119633D01*
X118366742Y-115183399D01*
X118203315Y-115215907D01*
X118036685Y-115215907D01*
X117873258Y-115183399D01*
X117719313Y-115119633D01*
X117580766Y-115027059D01*
X117462941Y-114909234D01*
X117370367Y-114770687D01*
X117306601Y-114616742D01*
X117274093Y-114453315D01*
X117274093Y-114286685D01*
X117306601Y-114123258D01*
X117370367Y-113969313D01*
X117462941Y-113830766D01*
X117580766Y-113712941D01*
X117719313Y-113620367D01*
X117873258Y-113556601D01*
X118036685Y-113524093D01*
X118203315Y-113524093D01*
X118366742Y-113556601D01*
G37*
G36*
X78741615Y-113275818D02*
G01*
X78790017Y-113281434D01*
X78806555Y-113288736D01*
X78828387Y-113293079D01*
X78851759Y-113308695D01*
X78871224Y-113317290D01*
X78884517Y-113330583D01*
X78905438Y-113344562D01*
X78919416Y-113365482D01*
X78932709Y-113378775D01*
X78941302Y-113398238D01*
X78956921Y-113421613D01*
X78961264Y-113443446D01*
X78968565Y-113459982D01*
X78974178Y-113508372D01*
X78975000Y-113512500D01*
X78975000Y-114112500D01*
X78974178Y-114116627D01*
X78968565Y-114165017D01*
X78961264Y-114181551D01*
X78956921Y-114203387D01*
X78941301Y-114226763D01*
X78932709Y-114246224D01*
X78919418Y-114259514D01*
X78905438Y-114280438D01*
X78884514Y-114294418D01*
X78871224Y-114307709D01*
X78851763Y-114316301D01*
X78828387Y-114331921D01*
X78806551Y-114336264D01*
X78790017Y-114343565D01*
X78741629Y-114349178D01*
X78737500Y-114350000D01*
X78262500Y-114350000D01*
X78258373Y-114349179D01*
X78209982Y-114343565D01*
X78193446Y-114336264D01*
X78171613Y-114331921D01*
X78148238Y-114316302D01*
X78128775Y-114307709D01*
X78115482Y-114294416D01*
X78094562Y-114280438D01*
X78080583Y-114259517D01*
X78067290Y-114246224D01*
X78058695Y-114226759D01*
X78043079Y-114203387D01*
X78038736Y-114181555D01*
X78031434Y-114165017D01*
X78025818Y-114116616D01*
X78025000Y-114112500D01*
X78025000Y-113512500D01*
X78025818Y-113508385D01*
X78031434Y-113459982D01*
X78038736Y-113443442D01*
X78043079Y-113421613D01*
X78058694Y-113398242D01*
X78067290Y-113378775D01*
X78080585Y-113365479D01*
X78094562Y-113344562D01*
X78115479Y-113330585D01*
X78128775Y-113317290D01*
X78148242Y-113308694D01*
X78171613Y-113293079D01*
X78193442Y-113288736D01*
X78209982Y-113281434D01*
X78258384Y-113275818D01*
X78262500Y-113275000D01*
X78737500Y-113275000D01*
X78741615Y-113275818D01*
G37*
G36*
X72646742Y-111016601D02*
G01*
X72800687Y-111080367D01*
X72939234Y-111172941D01*
X73057059Y-111290766D01*
X73149633Y-111429313D01*
X73213399Y-111583258D01*
X73245907Y-111746685D01*
X73245907Y-111913315D01*
X73213399Y-112076742D01*
X73149633Y-112230687D01*
X73057059Y-112369234D01*
X72939234Y-112487059D01*
X72800687Y-112579633D01*
X72646742Y-112643399D01*
X72483315Y-112675907D01*
X72316685Y-112675907D01*
X72153258Y-112643399D01*
X71999313Y-112579633D01*
X71860766Y-112487059D01*
X71742941Y-112369234D01*
X71650367Y-112230687D01*
X71586601Y-112076742D01*
X71554093Y-111913315D01*
X71554093Y-111746685D01*
X71586601Y-111583258D01*
X71650367Y-111429313D01*
X71742941Y-111290766D01*
X71860766Y-111172941D01*
X71999313Y-111080367D01*
X72153258Y-111016601D01*
X72316685Y-110984093D01*
X72483315Y-110984093D01*
X72646742Y-111016601D01*
G37*
G36*
X75186742Y-111016601D02*
G01*
X75340687Y-111080367D01*
X75479234Y-111172941D01*
X75597059Y-111290766D01*
X75689633Y-111429313D01*
X75753399Y-111583258D01*
X75785907Y-111746685D01*
X75785907Y-111913315D01*
X75753399Y-112076742D01*
X75689633Y-112230687D01*
X75597059Y-112369234D01*
X75479234Y-112487059D01*
X75340687Y-112579633D01*
X75186742Y-112643399D01*
X75023315Y-112675907D01*
X74856685Y-112675907D01*
X74693258Y-112643399D01*
X74539313Y-112579633D01*
X74400766Y-112487059D01*
X74282941Y-112369234D01*
X74190367Y-112230687D01*
X74126601Y-112076742D01*
X74094093Y-111913315D01*
X74094093Y-111746685D01*
X74126601Y-111583258D01*
X74190367Y-111429313D01*
X74282941Y-111290766D01*
X74400766Y-111172941D01*
X74539313Y-111080367D01*
X74693258Y-111016601D01*
X74856685Y-110984093D01*
X75023315Y-110984093D01*
X75186742Y-111016601D01*
G37*
G36*
X115826742Y-111016601D02*
G01*
X115980687Y-111080367D01*
X116119234Y-111172941D01*
X116237059Y-111290766D01*
X116329633Y-111429313D01*
X116393399Y-111583258D01*
X116425907Y-111746685D01*
X116425907Y-111913315D01*
X116393399Y-112076742D01*
X116329633Y-112230687D01*
X116237059Y-112369234D01*
X116119234Y-112487059D01*
X115980687Y-112579633D01*
X115826742Y-112643399D01*
X115663315Y-112675907D01*
X115496685Y-112675907D01*
X115333258Y-112643399D01*
X115179313Y-112579633D01*
X115040766Y-112487059D01*
X114922941Y-112369234D01*
X114830367Y-112230687D01*
X114766601Y-112076742D01*
X114734093Y-111913315D01*
X114734093Y-111746685D01*
X114766601Y-111583258D01*
X114830367Y-111429313D01*
X114922941Y-111290766D01*
X115040766Y-111172941D01*
X115179313Y-111080367D01*
X115333258Y-111016601D01*
X115496685Y-110984093D01*
X115663315Y-110984093D01*
X115826742Y-111016601D01*
G37*
G36*
X118366742Y-111016601D02*
G01*
X118520687Y-111080367D01*
X118659234Y-111172941D01*
X118777059Y-111290766D01*
X118869633Y-111429313D01*
X118933399Y-111583258D01*
X118965907Y-111746685D01*
X118965907Y-111913315D01*
X118933399Y-112076742D01*
X118869633Y-112230687D01*
X118777059Y-112369234D01*
X118659234Y-112487059D01*
X118520687Y-112579633D01*
X118366742Y-112643399D01*
X118203315Y-112675907D01*
X118036685Y-112675907D01*
X117873258Y-112643399D01*
X117719313Y-112579633D01*
X117580766Y-112487059D01*
X117462941Y-112369234D01*
X117370367Y-112230687D01*
X117306601Y-112076742D01*
X117274093Y-111913315D01*
X117274093Y-111746685D01*
X117306601Y-111583258D01*
X117370367Y-111429313D01*
X117462941Y-111290766D01*
X117580766Y-111172941D01*
X117719313Y-111080367D01*
X117873258Y-111016601D01*
X118036685Y-110984093D01*
X118203315Y-110984093D01*
X118366742Y-111016601D01*
G37*
G36*
X78741615Y-111550818D02*
G01*
X78790017Y-111556434D01*
X78806555Y-111563736D01*
X78828387Y-111568079D01*
X78851759Y-111583695D01*
X78871224Y-111592290D01*
X78884517Y-111605583D01*
X78905438Y-111619562D01*
X78919416Y-111640482D01*
X78932709Y-111653775D01*
X78941302Y-111673238D01*
X78956921Y-111696613D01*
X78961264Y-111718446D01*
X78968565Y-111734982D01*
X78974178Y-111783372D01*
X78975000Y-111787500D01*
X78975000Y-112387500D01*
X78974178Y-112391627D01*
X78968565Y-112440017D01*
X78961264Y-112456551D01*
X78956921Y-112478387D01*
X78941301Y-112501763D01*
X78932709Y-112521224D01*
X78919418Y-112534514D01*
X78905438Y-112555438D01*
X78884514Y-112569418D01*
X78871224Y-112582709D01*
X78851763Y-112591301D01*
X78828387Y-112606921D01*
X78806551Y-112611264D01*
X78790017Y-112618565D01*
X78741629Y-112624178D01*
X78737500Y-112625000D01*
X78262500Y-112625000D01*
X78258373Y-112624179D01*
X78209982Y-112618565D01*
X78193446Y-112611264D01*
X78171613Y-112606921D01*
X78148238Y-112591302D01*
X78128775Y-112582709D01*
X78115482Y-112569416D01*
X78094562Y-112555438D01*
X78080583Y-112534517D01*
X78067290Y-112521224D01*
X78058695Y-112501759D01*
X78043079Y-112478387D01*
X78038736Y-112456555D01*
X78031434Y-112440017D01*
X78025818Y-112391616D01*
X78025000Y-112387500D01*
X78025000Y-111787500D01*
X78025818Y-111783385D01*
X78031434Y-111734982D01*
X78038736Y-111718442D01*
X78043079Y-111696613D01*
X78058694Y-111673242D01*
X78067290Y-111653775D01*
X78080585Y-111640479D01*
X78094562Y-111619562D01*
X78115479Y-111605585D01*
X78128775Y-111592290D01*
X78148242Y-111583694D01*
X78171613Y-111568079D01*
X78193442Y-111563736D01*
X78209982Y-111556434D01*
X78258384Y-111550818D01*
X78262500Y-111550000D01*
X78737500Y-111550000D01*
X78741615Y-111550818D01*
G37*
G36*
X72646742Y-108476601D02*
G01*
X72800687Y-108540367D01*
X72939234Y-108632941D01*
X73057059Y-108750766D01*
X73149633Y-108889313D01*
X73213399Y-109043258D01*
X73245907Y-109206685D01*
X73245907Y-109373315D01*
X73213399Y-109536742D01*
X73149633Y-109690687D01*
X73057059Y-109829234D01*
X72939234Y-109947059D01*
X72800687Y-110039633D01*
X72646742Y-110103399D01*
X72483315Y-110135907D01*
X72316685Y-110135907D01*
X72153258Y-110103399D01*
X71999313Y-110039633D01*
X71860766Y-109947059D01*
X71742941Y-109829234D01*
X71650367Y-109690687D01*
X71586601Y-109536742D01*
X71554093Y-109373315D01*
X71554093Y-109206685D01*
X71586601Y-109043258D01*
X71650367Y-108889313D01*
X71742941Y-108750766D01*
X71860766Y-108632941D01*
X71999313Y-108540367D01*
X72153258Y-108476601D01*
X72316685Y-108444093D01*
X72483315Y-108444093D01*
X72646742Y-108476601D01*
G37*
G36*
X75186742Y-108476601D02*
G01*
X75340687Y-108540367D01*
X75479234Y-108632941D01*
X75597059Y-108750766D01*
X75689633Y-108889313D01*
X75753399Y-109043258D01*
X75785907Y-109206685D01*
X75785907Y-109373315D01*
X75753399Y-109536742D01*
X75689633Y-109690687D01*
X75597059Y-109829234D01*
X75479234Y-109947059D01*
X75340687Y-110039633D01*
X75186742Y-110103399D01*
X75023315Y-110135907D01*
X74856685Y-110135907D01*
X74693258Y-110103399D01*
X74539313Y-110039633D01*
X74400766Y-109947059D01*
X74282941Y-109829234D01*
X74190367Y-109690687D01*
X74126601Y-109536742D01*
X74094093Y-109373315D01*
X74094093Y-109206685D01*
X74126601Y-109043258D01*
X74190367Y-108889313D01*
X74282941Y-108750766D01*
X74400766Y-108632941D01*
X74539313Y-108540367D01*
X74693258Y-108476601D01*
X74856685Y-108444093D01*
X75023315Y-108444093D01*
X75186742Y-108476601D01*
G37*
G36*
X115826742Y-108476601D02*
G01*
X115980687Y-108540367D01*
X116119234Y-108632941D01*
X116237059Y-108750766D01*
X116329633Y-108889313D01*
X116393399Y-109043258D01*
X116425907Y-109206685D01*
X116425907Y-109373315D01*
X116393399Y-109536742D01*
X116329633Y-109690687D01*
X116237059Y-109829234D01*
X116119234Y-109947059D01*
X115980687Y-110039633D01*
X115826742Y-110103399D01*
X115663315Y-110135907D01*
X115496685Y-110135907D01*
X115333258Y-110103399D01*
X115179313Y-110039633D01*
X115040766Y-109947059D01*
X114922941Y-109829234D01*
X114830367Y-109690687D01*
X114766601Y-109536742D01*
X114734093Y-109373315D01*
X114734093Y-109206685D01*
X114766601Y-109043258D01*
X114830367Y-108889313D01*
X114922941Y-108750766D01*
X115040766Y-108632941D01*
X115179313Y-108540367D01*
X115333258Y-108476601D01*
X115496685Y-108444093D01*
X115663315Y-108444093D01*
X115826742Y-108476601D01*
G37*
G36*
X118366742Y-108476601D02*
G01*
X118520687Y-108540367D01*
X118659234Y-108632941D01*
X118777059Y-108750766D01*
X118869633Y-108889313D01*
X118933399Y-109043258D01*
X118965907Y-109206685D01*
X118965907Y-109373315D01*
X118933399Y-109536742D01*
X118869633Y-109690687D01*
X118777059Y-109829234D01*
X118659234Y-109947059D01*
X118520687Y-110039633D01*
X118366742Y-110103399D01*
X118203315Y-110135907D01*
X118036685Y-110135907D01*
X117873258Y-110103399D01*
X117719313Y-110039633D01*
X117580766Y-109947059D01*
X117462941Y-109829234D01*
X117370367Y-109690687D01*
X117306601Y-109536742D01*
X117274093Y-109373315D01*
X117274093Y-109206685D01*
X117306601Y-109043258D01*
X117370367Y-108889313D01*
X117462941Y-108750766D01*
X117580766Y-108632941D01*
X117719313Y-108540367D01*
X117873258Y-108476601D01*
X118036685Y-108444093D01*
X118203315Y-108444093D01*
X118366742Y-108476601D01*
G37*
G36*
X103172208Y-108534254D02*
G01*
X103273943Y-108592991D01*
X103357009Y-108676057D01*
X103415746Y-108777792D01*
X103446150Y-108891263D01*
X103446150Y-109008737D01*
X103415746Y-109122208D01*
X103357009Y-109223943D01*
X103273943Y-109307009D01*
X103172208Y-109365746D01*
X103058737Y-109396150D01*
X102941263Y-109396150D01*
X102827792Y-109365746D01*
X102726057Y-109307009D01*
X102642991Y-109223943D01*
X102584254Y-109122208D01*
X102553850Y-109008737D01*
X102553850Y-108891263D01*
X102584254Y-108777792D01*
X102642991Y-108676057D01*
X102726057Y-108592991D01*
X102827792Y-108534254D01*
X102941263Y-108503850D01*
X103058737Y-108503850D01*
X103172208Y-108534254D01*
G37*
G36*
X109972208Y-108534254D02*
G01*
X110073943Y-108592991D01*
X110157009Y-108676057D01*
X110215746Y-108777792D01*
X110246150Y-108891263D01*
X110246150Y-109008737D01*
X110215746Y-109122208D01*
X110157009Y-109223943D01*
X110073943Y-109307009D01*
X109972208Y-109365746D01*
X109858737Y-109396150D01*
X109741263Y-109396150D01*
X109627792Y-109365746D01*
X109526057Y-109307009D01*
X109442991Y-109223943D01*
X109384254Y-109122208D01*
X109353850Y-109008737D01*
X109353850Y-108891263D01*
X109384254Y-108777792D01*
X109442991Y-108676057D01*
X109526057Y-108592991D01*
X109627792Y-108534254D01*
X109741263Y-108503850D01*
X109858737Y-108503850D01*
X109972208Y-108534254D01*
G37*
G36*
X80772208Y-108464254D02*
G01*
X80873943Y-108522991D01*
X80957009Y-108606057D01*
X81015746Y-108707792D01*
X81046150Y-108821263D01*
X81046150Y-108938737D01*
X81015746Y-109052208D01*
X80957009Y-109153943D01*
X80873943Y-109237009D01*
X80772208Y-109295746D01*
X80658737Y-109326150D01*
X80541263Y-109326150D01*
X80427792Y-109295746D01*
X80326057Y-109237009D01*
X80242991Y-109153943D01*
X80184254Y-109052208D01*
X80153850Y-108938737D01*
X80153850Y-108821263D01*
X80184254Y-108707792D01*
X80242991Y-108606057D01*
X80326057Y-108522991D01*
X80427792Y-108464254D01*
X80541263Y-108433850D01*
X80658737Y-108433850D01*
X80772208Y-108464254D01*
G37*
G36*
X87572208Y-108464254D02*
G01*
X87673943Y-108522991D01*
X87757009Y-108606057D01*
X87815746Y-108707792D01*
X87846150Y-108821263D01*
X87846150Y-108938737D01*
X87815746Y-109052208D01*
X87757009Y-109153943D01*
X87673943Y-109237009D01*
X87572208Y-109295746D01*
X87458737Y-109326150D01*
X87341263Y-109326150D01*
X87227792Y-109295746D01*
X87126057Y-109237009D01*
X87042991Y-109153943D01*
X86984254Y-109052208D01*
X86953850Y-108938737D01*
X86953850Y-108821263D01*
X86984254Y-108707792D01*
X87042991Y-108606057D01*
X87126057Y-108522991D01*
X87227792Y-108464254D01*
X87341263Y-108433850D01*
X87458737Y-108433850D01*
X87572208Y-108464254D01*
G37*
G36*
X92032208Y-108464254D02*
G01*
X92133943Y-108522991D01*
X92217009Y-108606057D01*
X92275746Y-108707792D01*
X92306150Y-108821263D01*
X92306150Y-108938737D01*
X92275746Y-109052208D01*
X92217009Y-109153943D01*
X92133943Y-109237009D01*
X92032208Y-109295746D01*
X91918737Y-109326150D01*
X91801263Y-109326150D01*
X91687792Y-109295746D01*
X91586057Y-109237009D01*
X91502991Y-109153943D01*
X91444254Y-109052208D01*
X91413850Y-108938737D01*
X91413850Y-108821263D01*
X91444254Y-108707792D01*
X91502991Y-108606057D01*
X91586057Y-108522991D01*
X91687792Y-108464254D01*
X91801263Y-108433850D01*
X91918737Y-108433850D01*
X92032208Y-108464254D01*
G37*
G36*
X98832208Y-108464254D02*
G01*
X98933943Y-108522991D01*
X99017009Y-108606057D01*
X99075746Y-108707792D01*
X99106150Y-108821263D01*
X99106150Y-108938737D01*
X99075746Y-109052208D01*
X99017009Y-109153943D01*
X98933943Y-109237009D01*
X98832208Y-109295746D01*
X98718737Y-109326150D01*
X98601263Y-109326150D01*
X98487792Y-109295746D01*
X98386057Y-109237009D01*
X98302991Y-109153943D01*
X98244254Y-109052208D01*
X98213850Y-108938737D01*
X98213850Y-108821263D01*
X98244254Y-108707792D01*
X98302991Y-108606057D01*
X98386057Y-108522991D01*
X98487792Y-108464254D01*
X98601263Y-108433850D01*
X98718737Y-108433850D01*
X98832208Y-108464254D01*
G37*
G36*
X73250000Y-107600000D02*
G01*
X71550000Y-107600000D01*
X71550000Y-105900000D01*
X73250000Y-105900000D01*
X73250000Y-107600000D01*
G37*
G36*
X116430000Y-107600000D02*
G01*
X114730000Y-107600000D01*
X114730000Y-105900000D01*
X116430000Y-105900000D01*
X116430000Y-107600000D01*
G37*
G36*
X75186742Y-105936601D02*
G01*
X75340687Y-106000367D01*
X75479234Y-106092941D01*
X75597059Y-106210766D01*
X75689633Y-106349313D01*
X75753399Y-106503258D01*
X75785907Y-106666685D01*
X75785907Y-106833315D01*
X75753399Y-106996742D01*
X75689633Y-107150687D01*
X75597059Y-107289234D01*
X75479234Y-107407059D01*
X75340687Y-107499633D01*
X75186742Y-107563399D01*
X75023315Y-107595907D01*
X74856685Y-107595907D01*
X74693258Y-107563399D01*
X74539313Y-107499633D01*
X74400766Y-107407059D01*
X74282941Y-107289234D01*
X74190367Y-107150687D01*
X74126601Y-106996742D01*
X74094093Y-106833315D01*
X74094093Y-106666685D01*
X74126601Y-106503258D01*
X74190367Y-106349313D01*
X74282941Y-106210766D01*
X74400766Y-106092941D01*
X74539313Y-106000367D01*
X74693258Y-105936601D01*
X74856685Y-105904093D01*
X75023315Y-105904093D01*
X75186742Y-105936601D01*
G37*
G36*
X118366742Y-105936601D02*
G01*
X118520687Y-106000367D01*
X118659234Y-106092941D01*
X118777059Y-106210766D01*
X118869633Y-106349313D01*
X118933399Y-106503258D01*
X118965907Y-106666685D01*
X118965907Y-106833315D01*
X118933399Y-106996742D01*
X118869633Y-107150687D01*
X118777059Y-107289234D01*
X118659234Y-107407059D01*
X118520687Y-107499633D01*
X118366742Y-107563399D01*
X118203315Y-107595907D01*
X118036685Y-107595907D01*
X117873258Y-107563399D01*
X117719313Y-107499633D01*
X117580766Y-107407059D01*
X117462941Y-107289234D01*
X117370367Y-107150687D01*
X117306601Y-106996742D01*
X117274093Y-106833315D01*
X117274093Y-106666685D01*
X117306601Y-106503258D01*
X117370367Y-106349313D01*
X117462941Y-106210766D01*
X117580766Y-106092941D01*
X117719313Y-106000367D01*
X117873258Y-105936601D01*
X118036685Y-105904093D01*
X118203315Y-105904093D01*
X118366742Y-105936601D01*
G37*
G36*
X104279116Y-104950818D02*
G01*
X104330379Y-104956766D01*
X104347892Y-104964499D01*
X104370671Y-104969030D01*
X104395057Y-104985324D01*
X104415788Y-104994478D01*
X104429946Y-105008636D01*
X104451777Y-105023223D01*
X104466363Y-105045053D01*
X104480521Y-105059211D01*
X104489673Y-105079939D01*
X104505970Y-105104329D01*
X104510501Y-105127109D01*
X104518233Y-105144620D01*
X104524178Y-105195872D01*
X104525000Y-105200000D01*
X104525000Y-107200000D01*
X104524178Y-107204128D01*
X104518233Y-107255379D01*
X104510501Y-107272888D01*
X104505970Y-107295671D01*
X104489672Y-107320062D01*
X104480521Y-107340788D01*
X104466365Y-107354943D01*
X104451777Y-107376777D01*
X104429943Y-107391365D01*
X104415788Y-107405521D01*
X104395062Y-107414672D01*
X104370671Y-107430970D01*
X104347888Y-107435501D01*
X104330379Y-107443233D01*
X104279129Y-107449178D01*
X104275000Y-107450000D01*
X103525000Y-107450000D01*
X103520873Y-107449179D01*
X103469620Y-107443233D01*
X103452109Y-107435501D01*
X103429329Y-107430970D01*
X103404939Y-107414673D01*
X103384211Y-107405521D01*
X103370053Y-107391363D01*
X103348223Y-107376777D01*
X103333636Y-107354946D01*
X103319478Y-107340788D01*
X103310324Y-107320057D01*
X103294030Y-107295671D01*
X103289499Y-107272892D01*
X103281766Y-107255379D01*
X103275818Y-107204117D01*
X103275000Y-107200000D01*
X103275000Y-105200000D01*
X103275818Y-105195885D01*
X103281766Y-105144620D01*
X103289499Y-105127105D01*
X103294030Y-105104329D01*
X103310323Y-105079944D01*
X103319478Y-105059211D01*
X103333638Y-105045050D01*
X103348223Y-105023223D01*
X103370050Y-105008638D01*
X103384211Y-104994478D01*
X103404944Y-104985323D01*
X103429329Y-104969030D01*
X103452105Y-104964499D01*
X103469620Y-104956766D01*
X103520884Y-104950818D01*
X103525000Y-104950000D01*
X104275000Y-104950000D01*
X104279116Y-104950818D01*
G37*
G36*
X106779116Y-104950818D02*
G01*
X106830379Y-104956766D01*
X106847892Y-104964499D01*
X106870671Y-104969030D01*
X106895057Y-104985324D01*
X106915788Y-104994478D01*
X106929946Y-105008636D01*
X106951777Y-105023223D01*
X106966363Y-105045053D01*
X106980521Y-105059211D01*
X106989673Y-105079939D01*
X107005970Y-105104329D01*
X107010501Y-105127109D01*
X107018233Y-105144620D01*
X107024178Y-105195872D01*
X107025000Y-105200000D01*
X107025000Y-107200000D01*
X107024178Y-107204128D01*
X107018233Y-107255379D01*
X107010501Y-107272888D01*
X107005970Y-107295671D01*
X106989672Y-107320062D01*
X106980521Y-107340788D01*
X106966365Y-107354943D01*
X106951777Y-107376777D01*
X106929943Y-107391365D01*
X106915788Y-107405521D01*
X106895062Y-107414672D01*
X106870671Y-107430970D01*
X106847888Y-107435501D01*
X106830379Y-107443233D01*
X106779129Y-107449178D01*
X106775000Y-107450000D01*
X106025000Y-107450000D01*
X106020873Y-107449179D01*
X105969620Y-107443233D01*
X105952109Y-107435501D01*
X105929329Y-107430970D01*
X105904939Y-107414673D01*
X105884211Y-107405521D01*
X105870053Y-107391363D01*
X105848223Y-107376777D01*
X105833636Y-107354946D01*
X105819478Y-107340788D01*
X105810324Y-107320057D01*
X105794030Y-107295671D01*
X105789499Y-107272892D01*
X105781766Y-107255379D01*
X105775818Y-107204117D01*
X105775000Y-107200000D01*
X105775000Y-105200000D01*
X105775818Y-105195885D01*
X105781766Y-105144620D01*
X105789499Y-105127105D01*
X105794030Y-105104329D01*
X105810323Y-105079944D01*
X105819478Y-105059211D01*
X105833638Y-105045050D01*
X105848223Y-105023223D01*
X105870050Y-105008638D01*
X105884211Y-104994478D01*
X105904944Y-104985323D01*
X105929329Y-104969030D01*
X105952105Y-104964499D01*
X105969620Y-104956766D01*
X106020884Y-104950818D01*
X106025000Y-104950000D01*
X106775000Y-104950000D01*
X106779116Y-104950818D01*
G37*
G36*
X109279116Y-104950818D02*
G01*
X109330379Y-104956766D01*
X109347892Y-104964499D01*
X109370671Y-104969030D01*
X109395057Y-104985324D01*
X109415788Y-104994478D01*
X109429946Y-105008636D01*
X109451777Y-105023223D01*
X109466363Y-105045053D01*
X109480521Y-105059211D01*
X109489673Y-105079939D01*
X109505970Y-105104329D01*
X109510501Y-105127109D01*
X109518233Y-105144620D01*
X109524178Y-105195872D01*
X109525000Y-105200000D01*
X109525000Y-107200000D01*
X109524178Y-107204128D01*
X109518233Y-107255379D01*
X109510501Y-107272888D01*
X109505970Y-107295671D01*
X109489672Y-107320062D01*
X109480521Y-107340788D01*
X109466365Y-107354943D01*
X109451777Y-107376777D01*
X109429943Y-107391365D01*
X109415788Y-107405521D01*
X109395062Y-107414672D01*
X109370671Y-107430970D01*
X109347888Y-107435501D01*
X109330379Y-107443233D01*
X109279129Y-107449178D01*
X109275000Y-107450000D01*
X108525000Y-107450000D01*
X108520873Y-107449179D01*
X108469620Y-107443233D01*
X108452109Y-107435501D01*
X108429329Y-107430970D01*
X108404939Y-107414673D01*
X108384211Y-107405521D01*
X108370053Y-107391363D01*
X108348223Y-107376777D01*
X108333636Y-107354946D01*
X108319478Y-107340788D01*
X108310324Y-107320057D01*
X108294030Y-107295671D01*
X108289499Y-107272892D01*
X108281766Y-107255379D01*
X108275818Y-107204117D01*
X108275000Y-107200000D01*
X108275000Y-105200000D01*
X108275818Y-105195885D01*
X108281766Y-105144620D01*
X108289499Y-105127105D01*
X108294030Y-105104329D01*
X108310323Y-105079944D01*
X108319478Y-105059211D01*
X108333638Y-105045050D01*
X108348223Y-105023223D01*
X108370050Y-105008638D01*
X108384211Y-104994478D01*
X108404944Y-104985323D01*
X108429329Y-104969030D01*
X108452105Y-104964499D01*
X108469620Y-104956766D01*
X108520884Y-104950818D01*
X108525000Y-104950000D01*
X109275000Y-104950000D01*
X109279116Y-104950818D01*
G37*
G36*
X81879116Y-104880818D02*
G01*
X81930379Y-104886766D01*
X81947892Y-104894499D01*
X81970671Y-104899030D01*
X81995057Y-104915324D01*
X82015788Y-104924478D01*
X82029946Y-104938636D01*
X82051777Y-104953223D01*
X82066363Y-104975053D01*
X82080521Y-104989211D01*
X82089673Y-105009939D01*
X82105970Y-105034329D01*
X82110501Y-105057109D01*
X82118233Y-105074620D01*
X82124178Y-105125872D01*
X82125000Y-105130000D01*
X82125000Y-107130000D01*
X82124178Y-107134128D01*
X82118233Y-107185379D01*
X82110501Y-107202888D01*
X82105970Y-107225671D01*
X82089672Y-107250062D01*
X82080521Y-107270788D01*
X82066365Y-107284943D01*
X82051777Y-107306777D01*
X82029943Y-107321365D01*
X82015788Y-107335521D01*
X81995062Y-107344672D01*
X81970671Y-107360970D01*
X81947888Y-107365501D01*
X81930379Y-107373233D01*
X81879129Y-107379178D01*
X81875000Y-107380000D01*
X81125000Y-107380000D01*
X81120873Y-107379179D01*
X81069620Y-107373233D01*
X81052109Y-107365501D01*
X81029329Y-107360970D01*
X81004939Y-107344673D01*
X80984211Y-107335521D01*
X80970053Y-107321363D01*
X80948223Y-107306777D01*
X80933636Y-107284946D01*
X80919478Y-107270788D01*
X80910324Y-107250057D01*
X80894030Y-107225671D01*
X80889499Y-107202892D01*
X80881766Y-107185379D01*
X80875818Y-107134117D01*
X80875000Y-107130000D01*
X80875000Y-105130000D01*
X80875818Y-105125885D01*
X80881766Y-105074620D01*
X80889499Y-105057105D01*
X80894030Y-105034329D01*
X80910323Y-105009944D01*
X80919478Y-104989211D01*
X80933638Y-104975050D01*
X80948223Y-104953223D01*
X80970050Y-104938638D01*
X80984211Y-104924478D01*
X81004944Y-104915323D01*
X81029329Y-104899030D01*
X81052105Y-104894499D01*
X81069620Y-104886766D01*
X81120884Y-104880818D01*
X81125000Y-104880000D01*
X81875000Y-104880000D01*
X81879116Y-104880818D01*
G37*
G36*
X84379116Y-104880818D02*
G01*
X84430379Y-104886766D01*
X84447892Y-104894499D01*
X84470671Y-104899030D01*
X84495057Y-104915324D01*
X84515788Y-104924478D01*
X84529946Y-104938636D01*
X84551777Y-104953223D01*
X84566363Y-104975053D01*
X84580521Y-104989211D01*
X84589673Y-105009939D01*
X84605970Y-105034329D01*
X84610501Y-105057109D01*
X84618233Y-105074620D01*
X84624178Y-105125872D01*
X84625000Y-105130000D01*
X84625000Y-107130000D01*
X84624178Y-107134128D01*
X84618233Y-107185379D01*
X84610501Y-107202888D01*
X84605970Y-107225671D01*
X84589672Y-107250062D01*
X84580521Y-107270788D01*
X84566365Y-107284943D01*
X84551777Y-107306777D01*
X84529943Y-107321365D01*
X84515788Y-107335521D01*
X84495062Y-107344672D01*
X84470671Y-107360970D01*
X84447888Y-107365501D01*
X84430379Y-107373233D01*
X84379129Y-107379178D01*
X84375000Y-107380000D01*
X83625000Y-107380000D01*
X83620873Y-107379179D01*
X83569620Y-107373233D01*
X83552109Y-107365501D01*
X83529329Y-107360970D01*
X83504939Y-107344673D01*
X83484211Y-107335521D01*
X83470053Y-107321363D01*
X83448223Y-107306777D01*
X83433636Y-107284946D01*
X83419478Y-107270788D01*
X83410324Y-107250057D01*
X83394030Y-107225671D01*
X83389499Y-107202892D01*
X83381766Y-107185379D01*
X83375818Y-107134117D01*
X83375000Y-107130000D01*
X83375000Y-105130000D01*
X83375818Y-105125885D01*
X83381766Y-105074620D01*
X83389499Y-105057105D01*
X83394030Y-105034329D01*
X83410323Y-105009944D01*
X83419478Y-104989211D01*
X83433638Y-104975050D01*
X83448223Y-104953223D01*
X83470050Y-104938638D01*
X83484211Y-104924478D01*
X83504944Y-104915323D01*
X83529329Y-104899030D01*
X83552105Y-104894499D01*
X83569620Y-104886766D01*
X83620884Y-104880818D01*
X83625000Y-104880000D01*
X84375000Y-104880000D01*
X84379116Y-104880818D01*
G37*
G36*
X86879116Y-104880818D02*
G01*
X86930379Y-104886766D01*
X86947892Y-104894499D01*
X86970671Y-104899030D01*
X86995057Y-104915324D01*
X87015788Y-104924478D01*
X87029946Y-104938636D01*
X87051777Y-104953223D01*
X87066363Y-104975053D01*
X87080521Y-104989211D01*
X87089673Y-105009939D01*
X87105970Y-105034329D01*
X87110501Y-105057109D01*
X87118233Y-105074620D01*
X87124178Y-105125872D01*
X87125000Y-105130000D01*
X87125000Y-107130000D01*
X87124178Y-107134128D01*
X87118233Y-107185379D01*
X87110501Y-107202888D01*
X87105970Y-107225671D01*
X87089672Y-107250062D01*
X87080521Y-107270788D01*
X87066365Y-107284943D01*
X87051777Y-107306777D01*
X87029943Y-107321365D01*
X87015788Y-107335521D01*
X86995062Y-107344672D01*
X86970671Y-107360970D01*
X86947888Y-107365501D01*
X86930379Y-107373233D01*
X86879129Y-107379178D01*
X86875000Y-107380000D01*
X86125000Y-107380000D01*
X86120873Y-107379179D01*
X86069620Y-107373233D01*
X86052109Y-107365501D01*
X86029329Y-107360970D01*
X86004939Y-107344673D01*
X85984211Y-107335521D01*
X85970053Y-107321363D01*
X85948223Y-107306777D01*
X85933636Y-107284946D01*
X85919478Y-107270788D01*
X85910324Y-107250057D01*
X85894030Y-107225671D01*
X85889499Y-107202892D01*
X85881766Y-107185379D01*
X85875818Y-107134117D01*
X85875000Y-107130000D01*
X85875000Y-105130000D01*
X85875818Y-105125885D01*
X85881766Y-105074620D01*
X85889499Y-105057105D01*
X85894030Y-105034329D01*
X85910323Y-105009944D01*
X85919478Y-104989211D01*
X85933638Y-104975050D01*
X85948223Y-104953223D01*
X85970050Y-104938638D01*
X85984211Y-104924478D01*
X86004944Y-104915323D01*
X86029329Y-104899030D01*
X86052105Y-104894499D01*
X86069620Y-104886766D01*
X86120884Y-104880818D01*
X86125000Y-104880000D01*
X86875000Y-104880000D01*
X86879116Y-104880818D01*
G37*
G36*
X93139116Y-104880818D02*
G01*
X93190379Y-104886766D01*
X93207892Y-104894499D01*
X93230671Y-104899030D01*
X93255057Y-104915324D01*
X93275788Y-104924478D01*
X93289946Y-104938636D01*
X93311777Y-104953223D01*
X93326363Y-104975053D01*
X93340521Y-104989211D01*
X93349673Y-105009939D01*
X93365970Y-105034329D01*
X93370501Y-105057109D01*
X93378233Y-105074620D01*
X93384178Y-105125872D01*
X93385000Y-105130000D01*
X93385000Y-107130000D01*
X93384178Y-107134128D01*
X93378233Y-107185379D01*
X93370501Y-107202888D01*
X93365970Y-107225671D01*
X93349672Y-107250062D01*
X93340521Y-107270788D01*
X93326365Y-107284943D01*
X93311777Y-107306777D01*
X93289943Y-107321365D01*
X93275788Y-107335521D01*
X93255062Y-107344672D01*
X93230671Y-107360970D01*
X93207888Y-107365501D01*
X93190379Y-107373233D01*
X93139129Y-107379178D01*
X93135000Y-107380000D01*
X92385000Y-107380000D01*
X92380873Y-107379179D01*
X92329620Y-107373233D01*
X92312109Y-107365501D01*
X92289329Y-107360970D01*
X92264939Y-107344673D01*
X92244211Y-107335521D01*
X92230053Y-107321363D01*
X92208223Y-107306777D01*
X92193636Y-107284946D01*
X92179478Y-107270788D01*
X92170324Y-107250057D01*
X92154030Y-107225671D01*
X92149499Y-107202892D01*
X92141766Y-107185379D01*
X92135818Y-107134117D01*
X92135000Y-107130000D01*
X92135000Y-105130000D01*
X92135818Y-105125885D01*
X92141766Y-105074620D01*
X92149499Y-105057105D01*
X92154030Y-105034329D01*
X92170323Y-105009944D01*
X92179478Y-104989211D01*
X92193638Y-104975050D01*
X92208223Y-104953223D01*
X92230050Y-104938638D01*
X92244211Y-104924478D01*
X92264944Y-104915323D01*
X92289329Y-104899030D01*
X92312105Y-104894499D01*
X92329620Y-104886766D01*
X92380884Y-104880818D01*
X92385000Y-104880000D01*
X93135000Y-104880000D01*
X93139116Y-104880818D01*
G37*
G36*
X95639116Y-104880818D02*
G01*
X95690379Y-104886766D01*
X95707892Y-104894499D01*
X95730671Y-104899030D01*
X95755057Y-104915324D01*
X95775788Y-104924478D01*
X95789946Y-104938636D01*
X95811777Y-104953223D01*
X95826363Y-104975053D01*
X95840521Y-104989211D01*
X95849673Y-105009939D01*
X95865970Y-105034329D01*
X95870501Y-105057109D01*
X95878233Y-105074620D01*
X95884178Y-105125872D01*
X95885000Y-105130000D01*
X95885000Y-107130000D01*
X95884178Y-107134128D01*
X95878233Y-107185379D01*
X95870501Y-107202888D01*
X95865970Y-107225671D01*
X95849672Y-107250062D01*
X95840521Y-107270788D01*
X95826365Y-107284943D01*
X95811777Y-107306777D01*
X95789943Y-107321365D01*
X95775788Y-107335521D01*
X95755062Y-107344672D01*
X95730671Y-107360970D01*
X95707888Y-107365501D01*
X95690379Y-107373233D01*
X95639129Y-107379178D01*
X95635000Y-107380000D01*
X94885000Y-107380000D01*
X94880873Y-107379179D01*
X94829620Y-107373233D01*
X94812109Y-107365501D01*
X94789329Y-107360970D01*
X94764939Y-107344673D01*
X94744211Y-107335521D01*
X94730053Y-107321363D01*
X94708223Y-107306777D01*
X94693636Y-107284946D01*
X94679478Y-107270788D01*
X94670324Y-107250057D01*
X94654030Y-107225671D01*
X94649499Y-107202892D01*
X94641766Y-107185379D01*
X94635818Y-107134117D01*
X94635000Y-107130000D01*
X94635000Y-105130000D01*
X94635818Y-105125885D01*
X94641766Y-105074620D01*
X94649499Y-105057105D01*
X94654030Y-105034329D01*
X94670323Y-105009944D01*
X94679478Y-104989211D01*
X94693638Y-104975050D01*
X94708223Y-104953223D01*
X94730050Y-104938638D01*
X94744211Y-104924478D01*
X94764944Y-104915323D01*
X94789329Y-104899030D01*
X94812105Y-104894499D01*
X94829620Y-104886766D01*
X94880884Y-104880818D01*
X94885000Y-104880000D01*
X95635000Y-104880000D01*
X95639116Y-104880818D01*
G37*
G36*
X98139116Y-104880818D02*
G01*
X98190379Y-104886766D01*
X98207892Y-104894499D01*
X98230671Y-104899030D01*
X98255057Y-104915324D01*
X98275788Y-104924478D01*
X98289946Y-104938636D01*
X98311777Y-104953223D01*
X98326363Y-104975053D01*
X98340521Y-104989211D01*
X98349673Y-105009939D01*
X98365970Y-105034329D01*
X98370501Y-105057109D01*
X98378233Y-105074620D01*
X98384178Y-105125872D01*
X98385000Y-105130000D01*
X98385000Y-107130000D01*
X98384178Y-107134128D01*
X98378233Y-107185379D01*
X98370501Y-107202888D01*
X98365970Y-107225671D01*
X98349672Y-107250062D01*
X98340521Y-107270788D01*
X98326365Y-107284943D01*
X98311777Y-107306777D01*
X98289943Y-107321365D01*
X98275788Y-107335521D01*
X98255062Y-107344672D01*
X98230671Y-107360970D01*
X98207888Y-107365501D01*
X98190379Y-107373233D01*
X98139129Y-107379178D01*
X98135000Y-107380000D01*
X97385000Y-107380000D01*
X97380873Y-107379179D01*
X97329620Y-107373233D01*
X97312109Y-107365501D01*
X97289329Y-107360970D01*
X97264939Y-107344673D01*
X97244211Y-107335521D01*
X97230053Y-107321363D01*
X97208223Y-107306777D01*
X97193636Y-107284946D01*
X97179478Y-107270788D01*
X97170324Y-107250057D01*
X97154030Y-107225671D01*
X97149499Y-107202892D01*
X97141766Y-107185379D01*
X97135818Y-107134117D01*
X97135000Y-107130000D01*
X97135000Y-105130000D01*
X97135818Y-105125885D01*
X97141766Y-105074620D01*
X97149499Y-105057105D01*
X97154030Y-105034329D01*
X97170323Y-105009944D01*
X97179478Y-104989211D01*
X97193638Y-104975050D01*
X97208223Y-104953223D01*
X97230050Y-104938638D01*
X97244211Y-104924478D01*
X97264944Y-104915323D01*
X97289329Y-104899030D01*
X97312105Y-104894499D01*
X97329620Y-104886766D01*
X97380884Y-104880818D01*
X97385000Y-104880000D01*
X98135000Y-104880000D01*
X98139116Y-104880818D01*
G37*
G36*
X73250000Y-99060000D02*
G01*
X71550000Y-99060000D01*
X71550000Y-97360000D01*
X73250000Y-97360000D01*
X73250000Y-99060000D01*
G37*
G36*
X75186742Y-97396601D02*
G01*
X75340687Y-97460367D01*
X75479234Y-97552941D01*
X75597059Y-97670766D01*
X75689633Y-97809313D01*
X75753399Y-97963258D01*
X75785907Y-98126685D01*
X75785907Y-98293315D01*
X75753399Y-98456742D01*
X75689633Y-98610687D01*
X75597059Y-98749234D01*
X75479234Y-98867059D01*
X75340687Y-98959633D01*
X75186742Y-99023399D01*
X75023315Y-99055907D01*
X74856685Y-99055907D01*
X74693258Y-99023399D01*
X74539313Y-98959633D01*
X74400766Y-98867059D01*
X74282941Y-98749234D01*
X74190367Y-98610687D01*
X74126601Y-98456742D01*
X74094093Y-98293315D01*
X74094093Y-98126685D01*
X74126601Y-97963258D01*
X74190367Y-97809313D01*
X74282941Y-97670766D01*
X74400766Y-97552941D01*
X74539313Y-97460367D01*
X74693258Y-97396601D01*
X74856685Y-97364093D01*
X75023315Y-97364093D01*
X75186742Y-97396601D01*
G37*
G36*
X77726742Y-97396601D02*
G01*
X77880687Y-97460367D01*
X78019234Y-97552941D01*
X78137059Y-97670766D01*
X78229633Y-97809313D01*
X78293399Y-97963258D01*
X78325907Y-98126685D01*
X78325907Y-98293315D01*
X78293399Y-98456742D01*
X78229633Y-98610687D01*
X78137059Y-98749234D01*
X78019234Y-98867059D01*
X77880687Y-98959633D01*
X77726742Y-99023399D01*
X77563315Y-99055907D01*
X77396685Y-99055907D01*
X77233258Y-99023399D01*
X77079313Y-98959633D01*
X76940766Y-98867059D01*
X76822941Y-98749234D01*
X76730367Y-98610687D01*
X76666601Y-98456742D01*
X76634093Y-98293315D01*
X76634093Y-98126685D01*
X76666601Y-97963258D01*
X76730367Y-97809313D01*
X76822941Y-97670766D01*
X76940766Y-97552941D01*
X77079313Y-97460367D01*
X77233258Y-97396601D01*
X77396685Y-97364093D01*
X77563315Y-97364093D01*
X77726742Y-97396601D01*
G37*
G36*
X80266742Y-97396601D02*
G01*
X80420687Y-97460367D01*
X80559234Y-97552941D01*
X80677059Y-97670766D01*
X80769633Y-97809313D01*
X80833399Y-97963258D01*
X80865907Y-98126685D01*
X80865907Y-98293315D01*
X80833399Y-98456742D01*
X80769633Y-98610687D01*
X80677059Y-98749234D01*
X80559234Y-98867059D01*
X80420687Y-98959633D01*
X80266742Y-99023399D01*
X80103315Y-99055907D01*
X79936685Y-99055907D01*
X79773258Y-99023399D01*
X79619313Y-98959633D01*
X79480766Y-98867059D01*
X79362941Y-98749234D01*
X79270367Y-98610687D01*
X79206601Y-98456742D01*
X79174093Y-98293315D01*
X79174093Y-98126685D01*
X79206601Y-97963258D01*
X79270367Y-97809313D01*
X79362941Y-97670766D01*
X79480766Y-97552941D01*
X79619313Y-97460367D01*
X79773258Y-97396601D01*
X79936685Y-97364093D01*
X80103315Y-97364093D01*
X80266742Y-97396601D01*
G37*
G36*
X82806742Y-97396601D02*
G01*
X82960687Y-97460367D01*
X83099234Y-97552941D01*
X83217059Y-97670766D01*
X83309633Y-97809313D01*
X83373399Y-97963258D01*
X83405907Y-98126685D01*
X83405907Y-98293315D01*
X83373399Y-98456742D01*
X83309633Y-98610687D01*
X83217059Y-98749234D01*
X83099234Y-98867059D01*
X82960687Y-98959633D01*
X82806742Y-99023399D01*
X82643315Y-99055907D01*
X82476685Y-99055907D01*
X82313258Y-99023399D01*
X82159313Y-98959633D01*
X82020766Y-98867059D01*
X81902941Y-98749234D01*
X81810367Y-98610687D01*
X81746601Y-98456742D01*
X81714093Y-98293315D01*
X81714093Y-98126685D01*
X81746601Y-97963258D01*
X81810367Y-97809313D01*
X81902941Y-97670766D01*
X82020766Y-97552941D01*
X82159313Y-97460367D01*
X82313258Y-97396601D01*
X82476685Y-97364093D01*
X82643315Y-97364093D01*
X82806742Y-97396601D01*
G37*
G36*
X85346742Y-97396601D02*
G01*
X85500687Y-97460367D01*
X85639234Y-97552941D01*
X85757059Y-97670766D01*
X85849633Y-97809313D01*
X85913399Y-97963258D01*
X85945907Y-98126685D01*
X85945907Y-98293315D01*
X85913399Y-98456742D01*
X85849633Y-98610687D01*
X85757059Y-98749234D01*
X85639234Y-98867059D01*
X85500687Y-98959633D01*
X85346742Y-99023399D01*
X85183315Y-99055907D01*
X85016685Y-99055907D01*
X84853258Y-99023399D01*
X84699313Y-98959633D01*
X84560766Y-98867059D01*
X84442941Y-98749234D01*
X84350367Y-98610687D01*
X84286601Y-98456742D01*
X84254093Y-98293315D01*
X84254093Y-98126685D01*
X84286601Y-97963258D01*
X84350367Y-97809313D01*
X84442941Y-97670766D01*
X84560766Y-97552941D01*
X84699313Y-97460367D01*
X84853258Y-97396601D01*
X85016685Y-97364093D01*
X85183315Y-97364093D01*
X85346742Y-97396601D01*
G37*
G36*
X87291615Y-94825818D02*
G01*
X87340017Y-94831434D01*
X87356555Y-94838736D01*
X87378387Y-94843079D01*
X87401759Y-94858695D01*
X87421224Y-94867290D01*
X87434517Y-94880583D01*
X87455438Y-94894562D01*
X87469416Y-94915482D01*
X87482709Y-94928775D01*
X87491302Y-94948238D01*
X87506921Y-94971613D01*
X87511264Y-94993446D01*
X87518565Y-95009982D01*
X87524178Y-95058372D01*
X87525000Y-95062500D01*
X87525000Y-95662500D01*
X87524178Y-95666627D01*
X87518565Y-95715017D01*
X87511264Y-95731551D01*
X87506921Y-95753387D01*
X87491301Y-95776763D01*
X87482709Y-95796224D01*
X87469418Y-95809514D01*
X87455438Y-95830438D01*
X87434514Y-95844418D01*
X87421224Y-95857709D01*
X87401763Y-95866301D01*
X87378387Y-95881921D01*
X87356551Y-95886264D01*
X87340017Y-95893565D01*
X87291629Y-95899178D01*
X87287500Y-95900000D01*
X86812500Y-95900000D01*
X86808373Y-95899179D01*
X86759982Y-95893565D01*
X86743446Y-95886264D01*
X86721613Y-95881921D01*
X86698238Y-95866302D01*
X86678775Y-95857709D01*
X86665482Y-95844416D01*
X86644562Y-95830438D01*
X86630583Y-95809517D01*
X86617290Y-95796224D01*
X86608695Y-95776759D01*
X86593079Y-95753387D01*
X86588736Y-95731555D01*
X86581434Y-95715017D01*
X86575818Y-95666616D01*
X86575000Y-95662500D01*
X86575000Y-95062500D01*
X86575818Y-95058385D01*
X86581434Y-95009982D01*
X86588736Y-94993442D01*
X86593079Y-94971613D01*
X86608694Y-94948242D01*
X86617290Y-94928775D01*
X86630585Y-94915479D01*
X86644562Y-94894562D01*
X86665479Y-94880585D01*
X86678775Y-94867290D01*
X86698242Y-94858694D01*
X86721613Y-94843079D01*
X86743442Y-94838736D01*
X86759982Y-94831434D01*
X86808384Y-94825818D01*
X86812500Y-94825000D01*
X87287500Y-94825000D01*
X87291615Y-94825818D01*
G37*
G36*
X90891807Y-93434538D02*
G01*
X91078354Y-93495151D01*
X91253123Y-93584200D01*
X91411810Y-93699493D01*
X91550507Y-93838190D01*
X91665800Y-93996877D01*
X91754849Y-94171646D01*
X91815462Y-94358193D01*
X91846147Y-94551926D01*
X91846147Y-94748074D01*
X91815462Y-94941807D01*
X91754849Y-95128354D01*
X91665800Y-95303123D01*
X91550507Y-95461810D01*
X91411810Y-95600507D01*
X91253123Y-95715800D01*
X91078354Y-95804849D01*
X90891807Y-95865462D01*
X90698074Y-95896147D01*
X90501926Y-95896147D01*
X90308193Y-95865462D01*
X90121646Y-95804849D01*
X89946877Y-95715800D01*
X89788190Y-95600507D01*
X89649493Y-95461810D01*
X89534200Y-95303123D01*
X89445151Y-95128354D01*
X89384538Y-94941807D01*
X89353853Y-94748074D01*
X89353853Y-94551926D01*
X89384538Y-94358193D01*
X89445151Y-94171646D01*
X89534200Y-93996877D01*
X89649493Y-93838190D01*
X89788190Y-93699493D01*
X89946877Y-93584200D01*
X90121646Y-93495151D01*
X90308193Y-93434538D01*
X90501926Y-93403853D01*
X90698074Y-93403853D01*
X90891807Y-93434538D01*
G37*
G36*
X87291615Y-93100818D02*
G01*
X87340017Y-93106434D01*
X87356555Y-93113736D01*
X87378387Y-93118079D01*
X87401759Y-93133695D01*
X87421224Y-93142290D01*
X87434517Y-93155583D01*
X87455438Y-93169562D01*
X87469416Y-93190482D01*
X87482709Y-93203775D01*
X87491302Y-93223238D01*
X87506921Y-93246613D01*
X87511264Y-93268446D01*
X87518565Y-93284982D01*
X87524178Y-93333372D01*
X87525000Y-93337500D01*
X87525000Y-93937500D01*
X87524178Y-93941627D01*
X87518565Y-93990017D01*
X87511264Y-94006551D01*
X87506921Y-94028387D01*
X87491301Y-94051763D01*
X87482709Y-94071224D01*
X87469418Y-94084514D01*
X87455438Y-94105438D01*
X87434514Y-94119418D01*
X87421224Y-94132709D01*
X87401763Y-94141301D01*
X87378387Y-94156921D01*
X87356551Y-94161264D01*
X87340017Y-94168565D01*
X87291629Y-94174178D01*
X87287500Y-94175000D01*
X86812500Y-94175000D01*
X86808373Y-94174179D01*
X86759982Y-94168565D01*
X86743446Y-94161264D01*
X86721613Y-94156921D01*
X86698238Y-94141302D01*
X86678775Y-94132709D01*
X86665482Y-94119416D01*
X86644562Y-94105438D01*
X86630583Y-94084517D01*
X86617290Y-94071224D01*
X86608695Y-94051759D01*
X86593079Y-94028387D01*
X86588736Y-94006555D01*
X86581434Y-93990017D01*
X86575818Y-93941616D01*
X86575000Y-93937500D01*
X86575000Y-93337500D01*
X86575818Y-93333385D01*
X86581434Y-93284982D01*
X86588736Y-93268442D01*
X86593079Y-93246613D01*
X86608694Y-93223242D01*
X86617290Y-93203775D01*
X86630585Y-93190479D01*
X86644562Y-93169562D01*
X86665479Y-93155585D01*
X86678775Y-93142290D01*
X86698242Y-93133694D01*
X86721613Y-93118079D01*
X86743442Y-93113736D01*
X86759982Y-93106434D01*
X86808384Y-93100818D01*
X86812500Y-93100000D01*
X87287500Y-93100000D01*
X87291615Y-93100818D01*
G37*
G36*
X82341615Y-91075818D02*
G01*
X82390017Y-91081434D01*
X82406555Y-91088736D01*
X82428387Y-91093079D01*
X82451759Y-91108695D01*
X82471224Y-91117290D01*
X82484517Y-91130583D01*
X82505438Y-91144562D01*
X82519416Y-91165482D01*
X82532709Y-91178775D01*
X82541302Y-91198238D01*
X82556921Y-91221613D01*
X82561264Y-91243446D01*
X82568565Y-91259982D01*
X82574178Y-91308372D01*
X82575000Y-91312500D01*
X82575000Y-91787500D01*
X82574178Y-91791627D01*
X82568565Y-91840017D01*
X82561264Y-91856551D01*
X82556921Y-91878387D01*
X82541301Y-91901763D01*
X82532709Y-91921224D01*
X82519418Y-91934514D01*
X82505438Y-91955438D01*
X82484514Y-91969418D01*
X82471224Y-91982709D01*
X82451763Y-91991301D01*
X82428387Y-92006921D01*
X82406551Y-92011264D01*
X82390017Y-92018565D01*
X82341629Y-92024178D01*
X82337500Y-92025000D01*
X81737500Y-92025000D01*
X81733373Y-92024179D01*
X81684982Y-92018565D01*
X81668446Y-92011264D01*
X81646613Y-92006921D01*
X81623238Y-91991302D01*
X81603775Y-91982709D01*
X81590482Y-91969416D01*
X81569562Y-91955438D01*
X81555583Y-91934517D01*
X81542290Y-91921224D01*
X81533695Y-91901759D01*
X81518079Y-91878387D01*
X81513736Y-91856555D01*
X81506434Y-91840017D01*
X81500818Y-91791616D01*
X81500000Y-91787500D01*
X81500000Y-91312500D01*
X81500818Y-91308385D01*
X81506434Y-91259982D01*
X81513736Y-91243442D01*
X81518079Y-91221613D01*
X81533694Y-91198242D01*
X81542290Y-91178775D01*
X81555585Y-91165479D01*
X81569562Y-91144562D01*
X81590479Y-91130585D01*
X81603775Y-91117290D01*
X81623242Y-91108694D01*
X81646613Y-91093079D01*
X81668442Y-91088736D01*
X81684982Y-91081434D01*
X81733384Y-91075818D01*
X81737500Y-91075000D01*
X82337500Y-91075000D01*
X82341615Y-91075818D01*
G37*
G36*
X84066615Y-91075818D02*
G01*
X84115017Y-91081434D01*
X84131555Y-91088736D01*
X84153387Y-91093079D01*
X84176759Y-91108695D01*
X84196224Y-91117290D01*
X84209517Y-91130583D01*
X84230438Y-91144562D01*
X84244416Y-91165482D01*
X84257709Y-91178775D01*
X84266302Y-91198238D01*
X84281921Y-91221613D01*
X84286264Y-91243446D01*
X84293565Y-91259982D01*
X84299178Y-91308372D01*
X84300000Y-91312500D01*
X84300000Y-91787500D01*
X84299178Y-91791627D01*
X84293565Y-91840017D01*
X84286264Y-91856551D01*
X84281921Y-91878387D01*
X84266301Y-91901763D01*
X84257709Y-91921224D01*
X84244418Y-91934514D01*
X84230438Y-91955438D01*
X84209514Y-91969418D01*
X84196224Y-91982709D01*
X84176763Y-91991301D01*
X84153387Y-92006921D01*
X84131551Y-92011264D01*
X84115017Y-92018565D01*
X84066629Y-92024178D01*
X84062500Y-92025000D01*
X83462500Y-92025000D01*
X83458373Y-92024179D01*
X83409982Y-92018565D01*
X83393446Y-92011264D01*
X83371613Y-92006921D01*
X83348238Y-91991302D01*
X83328775Y-91982709D01*
X83315482Y-91969416D01*
X83294562Y-91955438D01*
X83280583Y-91934517D01*
X83267290Y-91921224D01*
X83258695Y-91901759D01*
X83243079Y-91878387D01*
X83238736Y-91856555D01*
X83231434Y-91840017D01*
X83225818Y-91791616D01*
X83225000Y-91787500D01*
X83225000Y-91312500D01*
X83225818Y-91308385D01*
X83231434Y-91259982D01*
X83238736Y-91243442D01*
X83243079Y-91221613D01*
X83258694Y-91198242D01*
X83267290Y-91178775D01*
X83280585Y-91165479D01*
X83294562Y-91144562D01*
X83315479Y-91130585D01*
X83328775Y-91117290D01*
X83348242Y-91108694D01*
X83371613Y-91093079D01*
X83393442Y-91088736D01*
X83409982Y-91081434D01*
X83458384Y-91075818D01*
X83462500Y-91075000D01*
X84062500Y-91075000D01*
X84066615Y-91075818D01*
G37*
G36*
X120391807Y-88784538D02*
G01*
X120578354Y-88845151D01*
X120753123Y-88934200D01*
X120911810Y-89049493D01*
X121050507Y-89188190D01*
X121165800Y-89346877D01*
X121254849Y-89521646D01*
X121315462Y-89708193D01*
X121346147Y-89901926D01*
X121346147Y-90098074D01*
X121315462Y-90291807D01*
X121254849Y-90478354D01*
X121165800Y-90653123D01*
X121050507Y-90811810D01*
X120911810Y-90950507D01*
X120753123Y-91065800D01*
X120578354Y-91154849D01*
X120391807Y-91215462D01*
X120198074Y-91246147D01*
X120001926Y-91246147D01*
X119808193Y-91215462D01*
X119621646Y-91154849D01*
X119446877Y-91065800D01*
X119288190Y-90950507D01*
X119149493Y-90811810D01*
X119034200Y-90653123D01*
X118945151Y-90478354D01*
X118884538Y-90291807D01*
X118853853Y-90098074D01*
X118853853Y-89901926D01*
X118884538Y-89708193D01*
X118945151Y-89521646D01*
X119034200Y-89346877D01*
X119149493Y-89188190D01*
X119288190Y-89049493D01*
X119446877Y-88934200D01*
X119621646Y-88845151D01*
X119808193Y-88784538D01*
X120001926Y-88753853D01*
X120198074Y-88753853D01*
X120391807Y-88784538D01*
G37*
G36*
X94291807Y-87334538D02*
G01*
X94478354Y-87395151D01*
X94653123Y-87484200D01*
X94811810Y-87599493D01*
X94950507Y-87738190D01*
X95065800Y-87896877D01*
X95154849Y-88071646D01*
X95215462Y-88258193D01*
X95246147Y-88451926D01*
X95246147Y-88648074D01*
X95215462Y-88841807D01*
X95154849Y-89028354D01*
X95065800Y-89203123D01*
X94950507Y-89361810D01*
X94811810Y-89500507D01*
X94653123Y-89615800D01*
X94478354Y-89704849D01*
X94291807Y-89765462D01*
X94098074Y-89796147D01*
X93901926Y-89796147D01*
X93708193Y-89765462D01*
X93521646Y-89704849D01*
X93346877Y-89615800D01*
X93188190Y-89500507D01*
X93049493Y-89361810D01*
X92934200Y-89203123D01*
X92845151Y-89028354D01*
X92784538Y-88841807D01*
X92753853Y-88648074D01*
X92753853Y-88451926D01*
X92784538Y-88258193D01*
X92845151Y-88071646D01*
X92934200Y-87896877D01*
X93049493Y-87738190D01*
X93188190Y-87599493D01*
X93346877Y-87484200D01*
X93521646Y-87395151D01*
X93708193Y-87334538D01*
X93901926Y-87303853D01*
X94098074Y-87303853D01*
X94291807Y-87334538D01*
G37*
G36*
X97291807Y-81534538D02*
G01*
X97478354Y-81595151D01*
X97653123Y-81684200D01*
X97811810Y-81799493D01*
X97950507Y-81938190D01*
X98065800Y-82096877D01*
X98154849Y-82271646D01*
X98215462Y-82458193D01*
X98246147Y-82651926D01*
X98246147Y-82848074D01*
X98215462Y-83041807D01*
X98154849Y-83228354D01*
X98065800Y-83403123D01*
X97950507Y-83561810D01*
X97811810Y-83700507D01*
X97653123Y-83815800D01*
X97478354Y-83904849D01*
X97291807Y-83965462D01*
X97098074Y-83996147D01*
X96901926Y-83996147D01*
X96708193Y-83965462D01*
X96521646Y-83904849D01*
X96346877Y-83815800D01*
X96188190Y-83700507D01*
X96049493Y-83561810D01*
X95934200Y-83403123D01*
X95845151Y-83228354D01*
X95784538Y-83041807D01*
X95753853Y-82848074D01*
X95753853Y-82651926D01*
X95784538Y-82458193D01*
X95845151Y-82271646D01*
X95934200Y-82096877D01*
X96049493Y-81938190D01*
X96188190Y-81799493D01*
X96346877Y-81684200D01*
X96521646Y-81595151D01*
X96708193Y-81534538D01*
X96901926Y-81503853D01*
X97098074Y-81503853D01*
X97291807Y-81534538D01*
G37*
G36*
X118154116Y-81000818D02*
G01*
X118205379Y-81006766D01*
X118222892Y-81014499D01*
X118245671Y-81019030D01*
X118270057Y-81035324D01*
X118290788Y-81044478D01*
X118304946Y-81058636D01*
X118326777Y-81073223D01*
X118341363Y-81095053D01*
X118355521Y-81109211D01*
X118364673Y-81129939D01*
X118380970Y-81154329D01*
X118385501Y-81177109D01*
X118393233Y-81194620D01*
X118399178Y-81245872D01*
X118400000Y-81250000D01*
X118400000Y-82350000D01*
X118399178Y-82354128D01*
X118393233Y-82405379D01*
X118385501Y-82422888D01*
X118380970Y-82445671D01*
X118364672Y-82470062D01*
X118355521Y-82490788D01*
X118341365Y-82504943D01*
X118326777Y-82526777D01*
X118304943Y-82541365D01*
X118290788Y-82555521D01*
X118270062Y-82564672D01*
X118245671Y-82580970D01*
X118222888Y-82585501D01*
X118205379Y-82593233D01*
X118154129Y-82599178D01*
X118150000Y-82600000D01*
X116450000Y-82600000D01*
X116445873Y-82599179D01*
X116394620Y-82593233D01*
X116377109Y-82585501D01*
X116354329Y-82580970D01*
X116329939Y-82564673D01*
X116309211Y-82555521D01*
X116295053Y-82541363D01*
X116273223Y-82526777D01*
X116258636Y-82504946D01*
X116244478Y-82490788D01*
X116235324Y-82470057D01*
X116219030Y-82445671D01*
X116214499Y-82422892D01*
X116206766Y-82405379D01*
X116200818Y-82354117D01*
X116200000Y-82350000D01*
X116200000Y-81250000D01*
X116200818Y-81245885D01*
X116206766Y-81194620D01*
X116214499Y-81177105D01*
X116219030Y-81154329D01*
X116235323Y-81129944D01*
X116244478Y-81109211D01*
X116258638Y-81095050D01*
X116273223Y-81073223D01*
X116295050Y-81058638D01*
X116309211Y-81044478D01*
X116329944Y-81035323D01*
X116354329Y-81019030D01*
X116377105Y-81014499D01*
X116394620Y-81006766D01*
X116445884Y-81000818D01*
X116450000Y-81000000D01*
X118150000Y-81000000D01*
X118154116Y-81000818D01*
G37*
G36*
X121154116Y-81000818D02*
G01*
X121205379Y-81006766D01*
X121222892Y-81014499D01*
X121245671Y-81019030D01*
X121270057Y-81035324D01*
X121290788Y-81044478D01*
X121304946Y-81058636D01*
X121326777Y-81073223D01*
X121341363Y-81095053D01*
X121355521Y-81109211D01*
X121364673Y-81129939D01*
X121380970Y-81154329D01*
X121385501Y-81177109D01*
X121393233Y-81194620D01*
X121399178Y-81245872D01*
X121400000Y-81250000D01*
X121400000Y-82350000D01*
X121399178Y-82354128D01*
X121393233Y-82405379D01*
X121385501Y-82422888D01*
X121380970Y-82445671D01*
X121364672Y-82470062D01*
X121355521Y-82490788D01*
X121341365Y-82504943D01*
X121326777Y-82526777D01*
X121304943Y-82541365D01*
X121290788Y-82555521D01*
X121270062Y-82564672D01*
X121245671Y-82580970D01*
X121222888Y-82585501D01*
X121205379Y-82593233D01*
X121154129Y-82599178D01*
X121150000Y-82600000D01*
X119450000Y-82600000D01*
X119445873Y-82599179D01*
X119394620Y-82593233D01*
X119377109Y-82585501D01*
X119354329Y-82580970D01*
X119329939Y-82564673D01*
X119309211Y-82555521D01*
X119295053Y-82541363D01*
X119273223Y-82526777D01*
X119258636Y-82504946D01*
X119244478Y-82490788D01*
X119235324Y-82470057D01*
X119219030Y-82445671D01*
X119214499Y-82422892D01*
X119206766Y-82405379D01*
X119200818Y-82354117D01*
X119200000Y-82350000D01*
X119200000Y-81250000D01*
X119200818Y-81245885D01*
X119206766Y-81194620D01*
X119214499Y-81177105D01*
X119219030Y-81154329D01*
X119235323Y-81129944D01*
X119244478Y-81109211D01*
X119258638Y-81095050D01*
X119273223Y-81073223D01*
X119295050Y-81058638D01*
X119309211Y-81044478D01*
X119329944Y-81035323D01*
X119354329Y-81019030D01*
X119377105Y-81014499D01*
X119394620Y-81006766D01*
X119445884Y-81000818D01*
X119450000Y-81000000D01*
X121150000Y-81000000D01*
X121154116Y-81000818D01*
G37*
G36*
X115291615Y-76675818D02*
G01*
X115340017Y-76681434D01*
X115356555Y-76688736D01*
X115378387Y-76693079D01*
X115401759Y-76708695D01*
X115421224Y-76717290D01*
X115434517Y-76730583D01*
X115455438Y-76744562D01*
X115469416Y-76765482D01*
X115482709Y-76778775D01*
X115491302Y-76798238D01*
X115506921Y-76821613D01*
X115511264Y-76843446D01*
X115518565Y-76859982D01*
X115524178Y-76908372D01*
X115525000Y-76912500D01*
X115525000Y-77387500D01*
X115524178Y-77391627D01*
X115518565Y-77440017D01*
X115511264Y-77456551D01*
X115506921Y-77478387D01*
X115491301Y-77501763D01*
X115482709Y-77521224D01*
X115469418Y-77534514D01*
X115455438Y-77555438D01*
X115434514Y-77569418D01*
X115421224Y-77582709D01*
X115401763Y-77591301D01*
X115378387Y-77606921D01*
X115356551Y-77611264D01*
X115340017Y-77618565D01*
X115291629Y-77624178D01*
X115287500Y-77625000D01*
X114687500Y-77625000D01*
X114683373Y-77624179D01*
X114634982Y-77618565D01*
X114618446Y-77611264D01*
X114596613Y-77606921D01*
X114573238Y-77591302D01*
X114553775Y-77582709D01*
X114540482Y-77569416D01*
X114519562Y-77555438D01*
X114505583Y-77534517D01*
X114492290Y-77521224D01*
X114483695Y-77501759D01*
X114468079Y-77478387D01*
X114463736Y-77456555D01*
X114456434Y-77440017D01*
X114450818Y-77391616D01*
X114450000Y-77387500D01*
X114450000Y-76912500D01*
X114450818Y-76908385D01*
X114456434Y-76859982D01*
X114463736Y-76843442D01*
X114468079Y-76821613D01*
X114483694Y-76798242D01*
X114492290Y-76778775D01*
X114505585Y-76765479D01*
X114519562Y-76744562D01*
X114540479Y-76730585D01*
X114553775Y-76717290D01*
X114573242Y-76708694D01*
X114596613Y-76693079D01*
X114618442Y-76688736D01*
X114634982Y-76681434D01*
X114683384Y-76675818D01*
X114687500Y-76675000D01*
X115287500Y-76675000D01*
X115291615Y-76675818D01*
G37*
G36*
X117016615Y-76675818D02*
G01*
X117065017Y-76681434D01*
X117081555Y-76688736D01*
X117103387Y-76693079D01*
X117126759Y-76708695D01*
X117146224Y-76717290D01*
X117159517Y-76730583D01*
X117180438Y-76744562D01*
X117194416Y-76765482D01*
X117207709Y-76778775D01*
X117216302Y-76798238D01*
X117231921Y-76821613D01*
X117236264Y-76843446D01*
X117243565Y-76859982D01*
X117249178Y-76908372D01*
X117250000Y-76912500D01*
X117250000Y-77387500D01*
X117249178Y-77391627D01*
X117243565Y-77440017D01*
X117236264Y-77456551D01*
X117231921Y-77478387D01*
X117216301Y-77501763D01*
X117207709Y-77521224D01*
X117194418Y-77534514D01*
X117180438Y-77555438D01*
X117159514Y-77569418D01*
X117146224Y-77582709D01*
X117126763Y-77591301D01*
X117103387Y-77606921D01*
X117081551Y-77611264D01*
X117065017Y-77618565D01*
X117016629Y-77624178D01*
X117012500Y-77625000D01*
X116412500Y-77625000D01*
X116408373Y-77624179D01*
X116359982Y-77618565D01*
X116343446Y-77611264D01*
X116321613Y-77606921D01*
X116298238Y-77591302D01*
X116278775Y-77582709D01*
X116265482Y-77569416D01*
X116244562Y-77555438D01*
X116230583Y-77534517D01*
X116217290Y-77521224D01*
X116208695Y-77501759D01*
X116193079Y-77478387D01*
X116188736Y-77456555D01*
X116181434Y-77440017D01*
X116175818Y-77391616D01*
X116175000Y-77387500D01*
X116175000Y-76912500D01*
X116175818Y-76908385D01*
X116181434Y-76859982D01*
X116188736Y-76843442D01*
X116193079Y-76821613D01*
X116208694Y-76798242D01*
X116217290Y-76778775D01*
X116230585Y-76765479D01*
X116244562Y-76744562D01*
X116265479Y-76730585D01*
X116278775Y-76717290D01*
X116298242Y-76708694D01*
X116321613Y-76693079D01*
X116343442Y-76688736D01*
X116359982Y-76681434D01*
X116408384Y-76675818D01*
X116412500Y-76675000D01*
X117012500Y-76675000D01*
X117016615Y-76675818D01*
G37*
G36*
X118475000Y-74400000D02*
G01*
X116775000Y-74400000D01*
X116775000Y-72700000D01*
X118475000Y-72700000D01*
X118475000Y-74400000D01*
G37*
G36*
X120411742Y-72736601D02*
G01*
X120565687Y-72800367D01*
X120704234Y-72892941D01*
X120822059Y-73010766D01*
X120914633Y-73149313D01*
X120978399Y-73303258D01*
X121010907Y-73466685D01*
X121010907Y-73633315D01*
X120978399Y-73796742D01*
X120914633Y-73950687D01*
X120822059Y-74089234D01*
X120704234Y-74207059D01*
X120565687Y-74299633D01*
X120411742Y-74363399D01*
X120248315Y-74395907D01*
X120081685Y-74395907D01*
X119918258Y-74363399D01*
X119764313Y-74299633D01*
X119625766Y-74207059D01*
X119507941Y-74089234D01*
X119415367Y-73950687D01*
X119351601Y-73796742D01*
X119319093Y-73633315D01*
X119319093Y-73466685D01*
X119351601Y-73303258D01*
X119415367Y-73149313D01*
X119507941Y-73010766D01*
X119625766Y-72892941D01*
X119764313Y-72800367D01*
X119918258Y-72736601D01*
X120081685Y-72704093D01*
X120248315Y-72704093D01*
X120411742Y-72736601D01*
G37*
G36*
X114050000Y-71000000D02*
G01*
X112350000Y-71000000D01*
X112350000Y-69300000D01*
X114050000Y-69300000D01*
X114050000Y-71000000D01*
G37*
G36*
X100746742Y-69336601D02*
G01*
X100900687Y-69400367D01*
X101039234Y-69492941D01*
X101157059Y-69610766D01*
X101249633Y-69749313D01*
X101313399Y-69903258D01*
X101345907Y-70066685D01*
X101345907Y-70233315D01*
X101313399Y-70396742D01*
X101249633Y-70550687D01*
X101157059Y-70689234D01*
X101039234Y-70807059D01*
X100900687Y-70899633D01*
X100746742Y-70963399D01*
X100583315Y-70995907D01*
X100416685Y-70995907D01*
X100253258Y-70963399D01*
X100099313Y-70899633D01*
X99960766Y-70807059D01*
X99842941Y-70689234D01*
X99750367Y-70550687D01*
X99686601Y-70396742D01*
X99654093Y-70233315D01*
X99654093Y-70066685D01*
X99686601Y-69903258D01*
X99750367Y-69749313D01*
X99842941Y-69610766D01*
X99960766Y-69492941D01*
X100099313Y-69400367D01*
X100253258Y-69336601D01*
X100416685Y-69304093D01*
X100583315Y-69304093D01*
X100746742Y-69336601D01*
G37*
G36*
X103286742Y-69336601D02*
G01*
X103440687Y-69400367D01*
X103579234Y-69492941D01*
X103697059Y-69610766D01*
X103789633Y-69749313D01*
X103853399Y-69903258D01*
X103885907Y-70066685D01*
X103885907Y-70233315D01*
X103853399Y-70396742D01*
X103789633Y-70550687D01*
X103697059Y-70689234D01*
X103579234Y-70807059D01*
X103440687Y-70899633D01*
X103286742Y-70963399D01*
X103123315Y-70995907D01*
X102956685Y-70995907D01*
X102793258Y-70963399D01*
X102639313Y-70899633D01*
X102500766Y-70807059D01*
X102382941Y-70689234D01*
X102290367Y-70550687D01*
X102226601Y-70396742D01*
X102194093Y-70233315D01*
X102194093Y-70066685D01*
X102226601Y-69903258D01*
X102290367Y-69749313D01*
X102382941Y-69610766D01*
X102500766Y-69492941D01*
X102639313Y-69400367D01*
X102793258Y-69336601D01*
X102956685Y-69304093D01*
X103123315Y-69304093D01*
X103286742Y-69336601D01*
G37*
G36*
X105826742Y-69336601D02*
G01*
X105980687Y-69400367D01*
X106119234Y-69492941D01*
X106237059Y-69610766D01*
X106329633Y-69749313D01*
X106393399Y-69903258D01*
X106425907Y-70066685D01*
X106425907Y-70233315D01*
X106393399Y-70396742D01*
X106329633Y-70550687D01*
X106237059Y-70689234D01*
X106119234Y-70807059D01*
X105980687Y-70899633D01*
X105826742Y-70963399D01*
X105663315Y-70995907D01*
X105496685Y-70995907D01*
X105333258Y-70963399D01*
X105179313Y-70899633D01*
X105040766Y-70807059D01*
X104922941Y-70689234D01*
X104830367Y-70550687D01*
X104766601Y-70396742D01*
X104734093Y-70233315D01*
X104734093Y-70066685D01*
X104766601Y-69903258D01*
X104830367Y-69749313D01*
X104922941Y-69610766D01*
X105040766Y-69492941D01*
X105179313Y-69400367D01*
X105333258Y-69336601D01*
X105496685Y-69304093D01*
X105663315Y-69304093D01*
X105826742Y-69336601D01*
G37*
G36*
X108366742Y-69336601D02*
G01*
X108520687Y-69400367D01*
X108659234Y-69492941D01*
X108777059Y-69610766D01*
X108869633Y-69749313D01*
X108933399Y-69903258D01*
X108965907Y-70066685D01*
X108965907Y-70233315D01*
X108933399Y-70396742D01*
X108869633Y-70550687D01*
X108777059Y-70689234D01*
X108659234Y-70807059D01*
X108520687Y-70899633D01*
X108366742Y-70963399D01*
X108203315Y-70995907D01*
X108036685Y-70995907D01*
X107873258Y-70963399D01*
X107719313Y-70899633D01*
X107580766Y-70807059D01*
X107462941Y-70689234D01*
X107370367Y-70550687D01*
X107306601Y-70396742D01*
X107274093Y-70233315D01*
X107274093Y-70066685D01*
X107306601Y-69903258D01*
X107370367Y-69749313D01*
X107462941Y-69610766D01*
X107580766Y-69492941D01*
X107719313Y-69400367D01*
X107873258Y-69336601D01*
X108036685Y-69304093D01*
X108203315Y-69304093D01*
X108366742Y-69336601D01*
G37*
G36*
X110906742Y-69336601D02*
G01*
X111060687Y-69400367D01*
X111199234Y-69492941D01*
X111317059Y-69610766D01*
X111409633Y-69749313D01*
X111473399Y-69903258D01*
X111505907Y-70066685D01*
X111505907Y-70233315D01*
X111473399Y-70396742D01*
X111409633Y-70550687D01*
X111317059Y-70689234D01*
X111199234Y-70807059D01*
X111060687Y-70899633D01*
X110906742Y-70963399D01*
X110743315Y-70995907D01*
X110576685Y-70995907D01*
X110413258Y-70963399D01*
X110259313Y-70899633D01*
X110120766Y-70807059D01*
X110002941Y-70689234D01*
X109910367Y-70550687D01*
X109846601Y-70396742D01*
X109814093Y-70233315D01*
X109814093Y-70066685D01*
X109846601Y-69903258D01*
X109910367Y-69749313D01*
X110002941Y-69610766D01*
X110120766Y-69492941D01*
X110259313Y-69400367D01*
X110413258Y-69336601D01*
X110576685Y-69304093D01*
X110743315Y-69304093D01*
X110906742Y-69336601D01*
G37*
G36*
X119132228Y-69404448D02*
G01*
X119277117Y-69464463D01*
X119407515Y-69551592D01*
X119518408Y-69662485D01*
X119605537Y-69792883D01*
X119665552Y-69937772D01*
X119696148Y-70091586D01*
X119696148Y-70248414D01*
X119665552Y-70402228D01*
X119605537Y-70547117D01*
X119518408Y-70677515D01*
X119407515Y-70788408D01*
X119277117Y-70875537D01*
X119132228Y-70935552D01*
X118978414Y-70966148D01*
X118821586Y-70966148D01*
X118667772Y-70935552D01*
X118522883Y-70875537D01*
X118392485Y-70788408D01*
X118281592Y-70677515D01*
X118194463Y-70547117D01*
X118134448Y-70402228D01*
X118103852Y-70248414D01*
X118103852Y-70091586D01*
X118134448Y-69937772D01*
X118194463Y-69792883D01*
X118281592Y-69662485D01*
X118392485Y-69551592D01*
X118522883Y-69464463D01*
X118667772Y-69404448D01*
X118821586Y-69373852D01*
X118978414Y-69373852D01*
X119132228Y-69404448D01*
G37*
G36*
X70041807Y-61834538D02*
G01*
X70228354Y-61895151D01*
X70403123Y-61984200D01*
X70561810Y-62099493D01*
X70700507Y-62238190D01*
X70815800Y-62396877D01*
X70904849Y-62571646D01*
X70965462Y-62758193D01*
X70996147Y-62951926D01*
X70996147Y-63148074D01*
X70965462Y-63341807D01*
X70904849Y-63528354D01*
X70815800Y-63703123D01*
X70700507Y-63861810D01*
X70561810Y-64000507D01*
X70403123Y-64115800D01*
X70228354Y-64204849D01*
X70041807Y-64265462D01*
X69848074Y-64296147D01*
X69651926Y-64296147D01*
X69458193Y-64265462D01*
X69271646Y-64204849D01*
X69096877Y-64115800D01*
X68938190Y-64000507D01*
X68799493Y-63861810D01*
X68684200Y-63703123D01*
X68595151Y-63528354D01*
X68534538Y-63341807D01*
X68503853Y-63148074D01*
X68503853Y-62951926D01*
X68534538Y-62758193D01*
X68595151Y-62571646D01*
X68684200Y-62396877D01*
X68799493Y-62238190D01*
X68938190Y-62099493D01*
X69096877Y-61984200D01*
X69271646Y-61895151D01*
X69458193Y-61834538D01*
X69651926Y-61803853D01*
X69848074Y-61803853D01*
X70041807Y-61834538D01*
G37*
G36*
X119454116Y-61750818D02*
G01*
X119505379Y-61756766D01*
X119522892Y-61764499D01*
X119545671Y-61769030D01*
X119570057Y-61785324D01*
X119590788Y-61794478D01*
X119604946Y-61808636D01*
X119626777Y-61823223D01*
X119641363Y-61845053D01*
X119655521Y-61859211D01*
X119664673Y-61879939D01*
X119680970Y-61904329D01*
X119685501Y-61927109D01*
X119693233Y-61944620D01*
X119699178Y-61995872D01*
X119700000Y-62000000D01*
X119700000Y-63100000D01*
X119699178Y-63104128D01*
X119693233Y-63155379D01*
X119685501Y-63172888D01*
X119680970Y-63195671D01*
X119664672Y-63220062D01*
X119655521Y-63240788D01*
X119641365Y-63254943D01*
X119626777Y-63276777D01*
X119604943Y-63291365D01*
X119590788Y-63305521D01*
X119570062Y-63314672D01*
X119545671Y-63330970D01*
X119522888Y-63335501D01*
X119505379Y-63343233D01*
X119454129Y-63349178D01*
X119450000Y-63350000D01*
X118350000Y-63350000D01*
X118345873Y-63349179D01*
X118294620Y-63343233D01*
X118277109Y-63335501D01*
X118254329Y-63330970D01*
X118229939Y-63314673D01*
X118209211Y-63305521D01*
X118195053Y-63291363D01*
X118173223Y-63276777D01*
X118158636Y-63254946D01*
X118144478Y-63240788D01*
X118135324Y-63220057D01*
X118119030Y-63195671D01*
X118114499Y-63172892D01*
X118106766Y-63155379D01*
X118100818Y-63104117D01*
X118100000Y-63100000D01*
X118100000Y-62000000D01*
X118100818Y-61995885D01*
X118106766Y-61944620D01*
X118114499Y-61927105D01*
X118119030Y-61904329D01*
X118135323Y-61879944D01*
X118144478Y-61859211D01*
X118158638Y-61845050D01*
X118173223Y-61823223D01*
X118195050Y-61808638D01*
X118209211Y-61794478D01*
X118229944Y-61785323D01*
X118254329Y-61769030D01*
X118277105Y-61764499D01*
X118294620Y-61756766D01*
X118345884Y-61750818D01*
X118350000Y-61750000D01*
X119450000Y-61750000D01*
X119454116Y-61750818D01*
G37*
M02*
