M48
; DRILL file {KiCad 9.0.4} date 2025-09-12T09:59:38-0400
; FORMAT={-:-/ absolute / metric / decimal}
; #@! TF.CreationDate,2025-09-12T09:59:38-04:00
; #@! TF.GenerationSoftware,Kicad,Pcbnew,9.0.4
; #@! TF.FileFunction,Plated,1,4,PTH
FMAT,2
METRIC
; #@! TA.AperFunction,Plated,PTH,ViaDrill
T1C0.300
; #@! TA.AperFunction,Plated,PTH,ComponentDrill
T2C0.800
; #@! TA.AperFunction,Plated,PTH,ComponentDrill
T3C1.000
; #@! TA.AperFunction,Plated,PTH,ComponentDrill
T4C1.200
%
G90
G05
T1
X79.05Y-132.1
X81.5Y-101.15
X84.1Y-103.85
X84.6Y-114.7
X91.5Y-116.6
X92.8Y-101.95
X95.1Y-94.75
X95.2Y-103.75
X101.0Y-117.55
X101.1Y-92.45
X101.2Y-104.55
X103.8Y-101.95
X106.5Y-103.65
X109.55Y-114.4
X109.6Y-116.4
X112.1Y-121.35
X112.1Y-125.75
T2
X118.9Y-62.55
X118.9Y-70.17
T3
X72.4Y-98.21
X72.4Y-106.75
X72.4Y-109.29
X72.4Y-111.83
X72.4Y-114.37
X72.4Y-116.91
X72.4Y-119.45
X72.4Y-121.99
X72.4Y-124.53
X72.4Y-127.07
X72.4Y-129.61
X74.94Y-98.21
X74.94Y-106.75
X74.94Y-109.29
X74.94Y-111.83
X74.94Y-114.37
X74.94Y-116.91
X74.94Y-119.45
X74.94Y-121.99
X74.94Y-124.53
X74.94Y-127.07
X74.94Y-129.61
X77.48Y-98.21
X80.02Y-98.21
X82.56Y-98.21
X85.1Y-98.21
X86.06Y-122.2
X88.6Y-122.2
X91.14Y-122.2
X93.68Y-122.2
X96.22Y-122.2
X98.76Y-122.2
X100.5Y-70.15
X101.3Y-122.2
X103.04Y-70.15
X103.84Y-122.2
X105.58Y-70.15
X108.12Y-70.15
X110.66Y-70.15
X113.2Y-70.15
X115.58Y-106.75
X115.58Y-109.29
X115.58Y-111.83
X115.58Y-114.37
X115.58Y-116.91
X115.58Y-119.45
X115.58Y-121.99
X115.58Y-124.53
X115.58Y-127.07
X115.58Y-129.61
X117.625Y-73.55
X118.12Y-106.75
X118.12Y-109.29
X118.12Y-111.83
X118.12Y-114.37
X118.12Y-116.91
X118.12Y-119.45
X118.12Y-121.99
X118.12Y-124.53
X118.12Y-127.07
X118.12Y-129.61
X120.165Y-73.55
T4
X90.6Y-94.65
X94.0Y-88.55
X97.0Y-82.75
M30
