G04 #@! TF.GenerationSoftware,KiCad,Pcbnew,9.0.4*
G04 #@! TF.CreationDate,2025-09-12T09:59:32-04:00*
G04 #@! TF.ProjectId,SBP_Routing_Board,5342505f-526f-4757-9469-6e675f426f61,rev?*
G04 #@! TF.SameCoordinates,Original*
G04 #@! TF.FileFunction,Legend,Bot*
G04 #@! TF.FilePolarity,Positive*
%FSLAX46Y46*%
G04 Gerber Fmt 4.6, Leading zero omitted, Abs format (unit mm)*
G04 Created by KiCad (PCBNEW 9.0.4) date 2025-09-12 09:59:32*
%MOMM*%
%LPD*%
G01*
G04 APERTURE LIST*
G04 APERTURE END LIST*
%LPC*%
G36*
X70041807Y-140484538D02*
G01*
X70228354Y-140545151D01*
X70403123Y-140634200D01*
X70561810Y-140749493D01*
X70700507Y-140888190D01*
X70815800Y-141046877D01*
X70904849Y-141221646D01*
X70965462Y-141408193D01*
X70996147Y-141601926D01*
X70996147Y-141798074D01*
X70965462Y-141991807D01*
X70904849Y-142178354D01*
X70815800Y-142353123D01*
X70700507Y-142511810D01*
X70561810Y-142650507D01*
X70403123Y-142765800D01*
X70228354Y-142854849D01*
X70041807Y-142915462D01*
X69848074Y-142946147D01*
X69651926Y-142946147D01*
X69458193Y-142915462D01*
X69271646Y-142854849D01*
X69096877Y-142765800D01*
X68938190Y-142650507D01*
X68799493Y-142511810D01*
X68684200Y-142353123D01*
X68595151Y-142178354D01*
X68534538Y-141991807D01*
X68503853Y-141798074D01*
X68503853Y-141601926D01*
X68534538Y-141408193D01*
X68595151Y-141221646D01*
X68684200Y-141046877D01*
X68799493Y-140888190D01*
X68938190Y-140749493D01*
X69096877Y-140634200D01*
X69271646Y-140545151D01*
X69458193Y-140484538D01*
X69651926Y-140453853D01*
X69848074Y-140453853D01*
X70041807Y-140484538D01*
G37*
G36*
X120391807Y-140484538D02*
G01*
X120578354Y-140545151D01*
X120753123Y-140634200D01*
X120911810Y-140749493D01*
X121050507Y-140888190D01*
X121165800Y-141046877D01*
X121254849Y-141221646D01*
X121315462Y-141408193D01*
X121346147Y-141601926D01*
X121346147Y-141798074D01*
X121315462Y-141991807D01*
X121254849Y-142178354D01*
X121165800Y-142353123D01*
X121050507Y-142511810D01*
X120911810Y-142650507D01*
X120753123Y-142765800D01*
X120578354Y-142854849D01*
X120391807Y-142915462D01*
X120198074Y-142946147D01*
X120001926Y-142946147D01*
X119808193Y-142915462D01*
X119621646Y-142854849D01*
X119446877Y-142765800D01*
X119288190Y-142650507D01*
X119149493Y-142511810D01*
X119034200Y-142353123D01*
X118945151Y-142178354D01*
X118884538Y-141991807D01*
X118853853Y-141798074D01*
X118853853Y-141601926D01*
X118884538Y-141408193D01*
X118945151Y-141221646D01*
X119034200Y-141046877D01*
X119149493Y-140888190D01*
X119288190Y-140749493D01*
X119446877Y-140634200D01*
X119621646Y-140545151D01*
X119808193Y-140484538D01*
X120001926Y-140453853D01*
X120198074Y-140453853D01*
X120391807Y-140484538D01*
G37*
G36*
X77822208Y-139534254D02*
G01*
X77923943Y-139592991D01*
X78007009Y-139676057D01*
X78065746Y-139777792D01*
X78096150Y-139891263D01*
X78096150Y-140008737D01*
X78065746Y-140122208D01*
X78007009Y-140223943D01*
X77923943Y-140307009D01*
X77822208Y-140365746D01*
X77708737Y-140396150D01*
X77591263Y-140396150D01*
X77477792Y-140365746D01*
X77376057Y-140307009D01*
X77292991Y-140223943D01*
X77234254Y-140122208D01*
X77203850Y-140008737D01*
X77203850Y-139891263D01*
X77234254Y-139777792D01*
X77292991Y-139676057D01*
X77376057Y-139592991D01*
X77477792Y-139534254D01*
X77591263Y-139503850D01*
X77708737Y-139503850D01*
X77822208Y-139534254D01*
G37*
G36*
X84622208Y-139534254D02*
G01*
X84723943Y-139592991D01*
X84807009Y-139676057D01*
X84865746Y-139777792D01*
X84896150Y-139891263D01*
X84896150Y-140008737D01*
X84865746Y-140122208D01*
X84807009Y-140223943D01*
X84723943Y-140307009D01*
X84622208Y-140365746D01*
X84508737Y-140396150D01*
X84391263Y-140396150D01*
X84277792Y-140365746D01*
X84176057Y-140307009D01*
X84092991Y-140223943D01*
X84034254Y-140122208D01*
X84003850Y-140008737D01*
X84003850Y-139891263D01*
X84034254Y-139777792D01*
X84092991Y-139676057D01*
X84176057Y-139592991D01*
X84277792Y-139534254D01*
X84391263Y-139503850D01*
X84508737Y-139503850D01*
X84622208Y-139534254D01*
G37*
G36*
X72646742Y-128796601D02*
G01*
X72800687Y-128860367D01*
X72939234Y-128952941D01*
X73057059Y-129070766D01*
X73149633Y-129209313D01*
X73213399Y-129363258D01*
X73245907Y-129526685D01*
X73245907Y-129693315D01*
X73213399Y-129856742D01*
X73149633Y-130010687D01*
X73057059Y-130149234D01*
X72939234Y-130267059D01*
X72800687Y-130359633D01*
X72646742Y-130423399D01*
X72483315Y-130455907D01*
X72316685Y-130455907D01*
X72153258Y-130423399D01*
X71999313Y-130359633D01*
X71860766Y-130267059D01*
X71742941Y-130149234D01*
X71650367Y-130010687D01*
X71586601Y-129856742D01*
X71554093Y-129693315D01*
X71554093Y-129526685D01*
X71586601Y-129363258D01*
X71650367Y-129209313D01*
X71742941Y-129070766D01*
X71860766Y-128952941D01*
X71999313Y-128860367D01*
X72153258Y-128796601D01*
X72316685Y-128764093D01*
X72483315Y-128764093D01*
X72646742Y-128796601D01*
G37*
G36*
X75186742Y-128796601D02*
G01*
X75340687Y-128860367D01*
X75479234Y-128952941D01*
X75597059Y-129070766D01*
X75689633Y-129209313D01*
X75753399Y-129363258D01*
X75785907Y-129526685D01*
X75785907Y-129693315D01*
X75753399Y-129856742D01*
X75689633Y-130010687D01*
X75597059Y-130149234D01*
X75479234Y-130267059D01*
X75340687Y-130359633D01*
X75186742Y-130423399D01*
X75023315Y-130455907D01*
X74856685Y-130455907D01*
X74693258Y-130423399D01*
X74539313Y-130359633D01*
X74400766Y-130267059D01*
X74282941Y-130149234D01*
X74190367Y-130010687D01*
X74126601Y-129856742D01*
X74094093Y-129693315D01*
X74094093Y-129526685D01*
X74126601Y-129363258D01*
X74190367Y-129209313D01*
X74282941Y-129070766D01*
X74400766Y-128952941D01*
X74539313Y-128860367D01*
X74693258Y-128796601D01*
X74856685Y-128764093D01*
X75023315Y-128764093D01*
X75186742Y-128796601D01*
G37*
G36*
X115826742Y-128796601D02*
G01*
X115980687Y-128860367D01*
X116119234Y-128952941D01*
X116237059Y-129070766D01*
X116329633Y-129209313D01*
X116393399Y-129363258D01*
X116425907Y-129526685D01*
X116425907Y-129693315D01*
X116393399Y-129856742D01*
X116329633Y-130010687D01*
X116237059Y-130149234D01*
X116119234Y-130267059D01*
X115980687Y-130359633D01*
X115826742Y-130423399D01*
X115663315Y-130455907D01*
X115496685Y-130455907D01*
X115333258Y-130423399D01*
X115179313Y-130359633D01*
X115040766Y-130267059D01*
X114922941Y-130149234D01*
X114830367Y-130010687D01*
X114766601Y-129856742D01*
X114734093Y-129693315D01*
X114734093Y-129526685D01*
X114766601Y-129363258D01*
X114830367Y-129209313D01*
X114922941Y-129070766D01*
X115040766Y-128952941D01*
X115179313Y-128860367D01*
X115333258Y-128796601D01*
X115496685Y-128764093D01*
X115663315Y-128764093D01*
X115826742Y-128796601D01*
G37*
G36*
X118366742Y-128796601D02*
G01*
X118520687Y-128860367D01*
X118659234Y-128952941D01*
X118777059Y-129070766D01*
X118869633Y-129209313D01*
X118933399Y-129363258D01*
X118965907Y-129526685D01*
X118965907Y-129693315D01*
X118933399Y-129856742D01*
X118869633Y-130010687D01*
X118777059Y-130149234D01*
X118659234Y-130267059D01*
X118520687Y-130359633D01*
X118366742Y-130423399D01*
X118203315Y-130455907D01*
X118036685Y-130455907D01*
X117873258Y-130423399D01*
X117719313Y-130359633D01*
X117580766Y-130267059D01*
X117462941Y-130149234D01*
X117370367Y-130010687D01*
X117306601Y-129856742D01*
X117274093Y-129693315D01*
X117274093Y-129526685D01*
X117306601Y-129363258D01*
X117370367Y-129209313D01*
X117462941Y-129070766D01*
X117580766Y-128952941D01*
X117719313Y-128860367D01*
X117873258Y-128796601D01*
X118036685Y-128764093D01*
X118203315Y-128764093D01*
X118366742Y-128796601D01*
G37*
G36*
X72646742Y-126256601D02*
G01*
X72800687Y-126320367D01*
X72939234Y-126412941D01*
X73057059Y-126530766D01*
X73149633Y-126669313D01*
X73213399Y-126823258D01*
X73245907Y-126986685D01*
X73245907Y-127153315D01*
X73213399Y-127316742D01*
X73149633Y-127470687D01*
X73057059Y-127609234D01*
X72939234Y-127727059D01*
X72800687Y-127819633D01*
X72646742Y-127883399D01*
X72483315Y-127915907D01*
X72316685Y-127915907D01*
X72153258Y-127883399D01*
X71999313Y-127819633D01*
X71860766Y-127727059D01*
X71742941Y-127609234D01*
X71650367Y-127470687D01*
X71586601Y-127316742D01*
X71554093Y-127153315D01*
X71554093Y-126986685D01*
X71586601Y-126823258D01*
X71650367Y-126669313D01*
X71742941Y-126530766D01*
X71860766Y-126412941D01*
X71999313Y-126320367D01*
X72153258Y-126256601D01*
X72316685Y-126224093D01*
X72483315Y-126224093D01*
X72646742Y-126256601D01*
G37*
G36*
X75186742Y-126256601D02*
G01*
X75340687Y-126320367D01*
X75479234Y-126412941D01*
X75597059Y-126530766D01*
X75689633Y-126669313D01*
X75753399Y-126823258D01*
X75785907Y-126986685D01*
X75785907Y-127153315D01*
X75753399Y-127316742D01*
X75689633Y-127470687D01*
X75597059Y-127609234D01*
X75479234Y-127727059D01*
X75340687Y-127819633D01*
X75186742Y-127883399D01*
X75023315Y-127915907D01*
X74856685Y-127915907D01*
X74693258Y-127883399D01*
X74539313Y-127819633D01*
X74400766Y-127727059D01*
X74282941Y-127609234D01*
X74190367Y-127470687D01*
X74126601Y-127316742D01*
X74094093Y-127153315D01*
X74094093Y-126986685D01*
X74126601Y-126823258D01*
X74190367Y-126669313D01*
X74282941Y-126530766D01*
X74400766Y-126412941D01*
X74539313Y-126320367D01*
X74693258Y-126256601D01*
X74856685Y-126224093D01*
X75023315Y-126224093D01*
X75186742Y-126256601D01*
G37*
G36*
X115826742Y-126256601D02*
G01*
X115980687Y-126320367D01*
X116119234Y-126412941D01*
X116237059Y-126530766D01*
X116329633Y-126669313D01*
X116393399Y-126823258D01*
X116425907Y-126986685D01*
X116425907Y-127153315D01*
X116393399Y-127316742D01*
X116329633Y-127470687D01*
X116237059Y-127609234D01*
X116119234Y-127727059D01*
X115980687Y-127819633D01*
X115826742Y-127883399D01*
X115663315Y-127915907D01*
X115496685Y-127915907D01*
X115333258Y-127883399D01*
X115179313Y-127819633D01*
X115040766Y-127727059D01*
X114922941Y-127609234D01*
X114830367Y-127470687D01*
X114766601Y-127316742D01*
X114734093Y-127153315D01*
X114734093Y-126986685D01*
X114766601Y-126823258D01*
X114830367Y-126669313D01*
X114922941Y-126530766D01*
X115040766Y-126412941D01*
X115179313Y-126320367D01*
X115333258Y-126256601D01*
X115496685Y-126224093D01*
X115663315Y-126224093D01*
X115826742Y-126256601D01*
G37*
G36*
X118366742Y-126256601D02*
G01*
X118520687Y-126320367D01*
X118659234Y-126412941D01*
X118777059Y-126530766D01*
X118869633Y-126669313D01*
X118933399Y-126823258D01*
X118965907Y-126986685D01*
X118965907Y-127153315D01*
X118933399Y-127316742D01*
X118869633Y-127470687D01*
X118777059Y-127609234D01*
X118659234Y-127727059D01*
X118520687Y-127819633D01*
X118366742Y-127883399D01*
X118203315Y-127915907D01*
X118036685Y-127915907D01*
X117873258Y-127883399D01*
X117719313Y-127819633D01*
X117580766Y-127727059D01*
X117462941Y-127609234D01*
X117370367Y-127470687D01*
X117306601Y-127316742D01*
X117274093Y-127153315D01*
X117274093Y-126986685D01*
X117306601Y-126823258D01*
X117370367Y-126669313D01*
X117462941Y-126530766D01*
X117580766Y-126412941D01*
X117719313Y-126320367D01*
X117873258Y-126256601D01*
X118036685Y-126224093D01*
X118203315Y-126224093D01*
X118366742Y-126256601D01*
G37*
G36*
X72646742Y-123716601D02*
G01*
X72800687Y-123780367D01*
X72939234Y-123872941D01*
X73057059Y-123990766D01*
X73149633Y-124129313D01*
X73213399Y-124283258D01*
X73245907Y-124446685D01*
X73245907Y-124613315D01*
X73213399Y-124776742D01*
X73149633Y-124930687D01*
X73057059Y-125069234D01*
X72939234Y-125187059D01*
X72800687Y-125279633D01*
X72646742Y-125343399D01*
X72483315Y-125375907D01*
X72316685Y-125375907D01*
X72153258Y-125343399D01*
X71999313Y-125279633D01*
X71860766Y-125187059D01*
X71742941Y-125069234D01*
X71650367Y-124930687D01*
X71586601Y-124776742D01*
X71554093Y-124613315D01*
X71554093Y-124446685D01*
X71586601Y-124283258D01*
X71650367Y-124129313D01*
X71742941Y-123990766D01*
X71860766Y-123872941D01*
X71999313Y-123780367D01*
X72153258Y-123716601D01*
X72316685Y-123684093D01*
X72483315Y-123684093D01*
X72646742Y-123716601D01*
G37*
G36*
X75186742Y-123716601D02*
G01*
X75340687Y-123780367D01*
X75479234Y-123872941D01*
X75597059Y-123990766D01*
X75689633Y-124129313D01*
X75753399Y-124283258D01*
X75785907Y-124446685D01*
X75785907Y-124613315D01*
X75753399Y-124776742D01*
X75689633Y-124930687D01*
X75597059Y-125069234D01*
X75479234Y-125187059D01*
X75340687Y-125279633D01*
X75186742Y-125343399D01*
X75023315Y-125375907D01*
X74856685Y-125375907D01*
X74693258Y-125343399D01*
X74539313Y-125279633D01*
X74400766Y-125187059D01*
X74282941Y-125069234D01*
X74190367Y-124930687D01*
X74126601Y-124776742D01*
X74094093Y-124613315D01*
X74094093Y-124446685D01*
X74126601Y-124283258D01*
X74190367Y-124129313D01*
X74282941Y-123990766D01*
X74400766Y-123872941D01*
X74539313Y-123780367D01*
X74693258Y-123716601D01*
X74856685Y-123684093D01*
X75023315Y-123684093D01*
X75186742Y-123716601D01*
G37*
G36*
X115826742Y-123716601D02*
G01*
X115980687Y-123780367D01*
X116119234Y-123872941D01*
X116237059Y-123990766D01*
X116329633Y-124129313D01*
X116393399Y-124283258D01*
X116425907Y-124446685D01*
X116425907Y-124613315D01*
X116393399Y-124776742D01*
X116329633Y-124930687D01*
X116237059Y-125069234D01*
X116119234Y-125187059D01*
X115980687Y-125279633D01*
X115826742Y-125343399D01*
X115663315Y-125375907D01*
X115496685Y-125375907D01*
X115333258Y-125343399D01*
X115179313Y-125279633D01*
X115040766Y-125187059D01*
X114922941Y-125069234D01*
X114830367Y-124930687D01*
X114766601Y-124776742D01*
X114734093Y-124613315D01*
X114734093Y-124446685D01*
X114766601Y-124283258D01*
X114830367Y-124129313D01*
X114922941Y-123990766D01*
X115040766Y-123872941D01*
X115179313Y-123780367D01*
X115333258Y-123716601D01*
X115496685Y-123684093D01*
X115663315Y-123684093D01*
X115826742Y-123716601D01*
G37*
G36*
X118366742Y-123716601D02*
G01*
X118520687Y-123780367D01*
X118659234Y-123872941D01*
X118777059Y-123990766D01*
X118869633Y-124129313D01*
X118933399Y-124283258D01*
X118965907Y-124446685D01*
X118965907Y-124613315D01*
X118933399Y-124776742D01*
X118869633Y-124930687D01*
X118777059Y-125069234D01*
X118659234Y-125187059D01*
X118520687Y-125279633D01*
X118366742Y-125343399D01*
X118203315Y-125375907D01*
X118036685Y-125375907D01*
X117873258Y-125343399D01*
X117719313Y-125279633D01*
X117580766Y-125187059D01*
X117462941Y-125069234D01*
X117370367Y-124930687D01*
X117306601Y-124776742D01*
X117274093Y-124613315D01*
X117274093Y-124446685D01*
X117306601Y-124283258D01*
X117370367Y-124129313D01*
X117462941Y-123990766D01*
X117580766Y-123872941D01*
X117719313Y-123780367D01*
X117873258Y-123716601D01*
X118036685Y-123684093D01*
X118203315Y-123684093D01*
X118366742Y-123716601D01*
G37*
G36*
X104690000Y-123050000D02*
G01*
X102990000Y-123050000D01*
X102990000Y-121350000D01*
X104690000Y-121350000D01*
X104690000Y-123050000D01*
G37*
G36*
X86306742Y-121386601D02*
G01*
X86460687Y-121450367D01*
X86599234Y-121542941D01*
X86717059Y-121660766D01*
X86809633Y-121799313D01*
X86873399Y-121953258D01*
X86905907Y-122116685D01*
X86905907Y-122283315D01*
X86873399Y-122446742D01*
X86809633Y-122600687D01*
X86717059Y-122739234D01*
X86599234Y-122857059D01*
X86460687Y-122949633D01*
X86306742Y-123013399D01*
X86143315Y-123045907D01*
X85976685Y-123045907D01*
X85813258Y-123013399D01*
X85659313Y-122949633D01*
X85520766Y-122857059D01*
X85402941Y-122739234D01*
X85310367Y-122600687D01*
X85246601Y-122446742D01*
X85214093Y-122283315D01*
X85214093Y-122116685D01*
X85246601Y-121953258D01*
X85310367Y-121799313D01*
X85402941Y-121660766D01*
X85520766Y-121542941D01*
X85659313Y-121450367D01*
X85813258Y-121386601D01*
X85976685Y-121354093D01*
X86143315Y-121354093D01*
X86306742Y-121386601D01*
G37*
G36*
X88846742Y-121386601D02*
G01*
X89000687Y-121450367D01*
X89139234Y-121542941D01*
X89257059Y-121660766D01*
X89349633Y-121799313D01*
X89413399Y-121953258D01*
X89445907Y-122116685D01*
X89445907Y-122283315D01*
X89413399Y-122446742D01*
X89349633Y-122600687D01*
X89257059Y-122739234D01*
X89139234Y-122857059D01*
X89000687Y-122949633D01*
X88846742Y-123013399D01*
X88683315Y-123045907D01*
X88516685Y-123045907D01*
X88353258Y-123013399D01*
X88199313Y-122949633D01*
X88060766Y-122857059D01*
X87942941Y-122739234D01*
X87850367Y-122600687D01*
X87786601Y-122446742D01*
X87754093Y-122283315D01*
X87754093Y-122116685D01*
X87786601Y-121953258D01*
X87850367Y-121799313D01*
X87942941Y-121660766D01*
X88060766Y-121542941D01*
X88199313Y-121450367D01*
X88353258Y-121386601D01*
X88516685Y-121354093D01*
X88683315Y-121354093D01*
X88846742Y-121386601D01*
G37*
G36*
X91386742Y-121386601D02*
G01*
X91540687Y-121450367D01*
X91679234Y-121542941D01*
X91797059Y-121660766D01*
X91889633Y-121799313D01*
X91953399Y-121953258D01*
X91985907Y-122116685D01*
X91985907Y-122283315D01*
X91953399Y-122446742D01*
X91889633Y-122600687D01*
X91797059Y-122739234D01*
X91679234Y-122857059D01*
X91540687Y-122949633D01*
X91386742Y-123013399D01*
X91223315Y-123045907D01*
X91056685Y-123045907D01*
X90893258Y-123013399D01*
X90739313Y-122949633D01*
X90600766Y-122857059D01*
X90482941Y-122739234D01*
X90390367Y-122600687D01*
X90326601Y-122446742D01*
X90294093Y-122283315D01*
X90294093Y-122116685D01*
X90326601Y-121953258D01*
X90390367Y-121799313D01*
X90482941Y-121660766D01*
X90600766Y-121542941D01*
X90739313Y-121450367D01*
X90893258Y-121386601D01*
X91056685Y-121354093D01*
X91223315Y-121354093D01*
X91386742Y-121386601D01*
G37*
G36*
X93926742Y-121386601D02*
G01*
X94080687Y-121450367D01*
X94219234Y-121542941D01*
X94337059Y-121660766D01*
X94429633Y-121799313D01*
X94493399Y-121953258D01*
X94525907Y-122116685D01*
X94525907Y-122283315D01*
X94493399Y-122446742D01*
X94429633Y-122600687D01*
X94337059Y-122739234D01*
X94219234Y-122857059D01*
X94080687Y-122949633D01*
X93926742Y-123013399D01*
X93763315Y-123045907D01*
X93596685Y-123045907D01*
X93433258Y-123013399D01*
X93279313Y-122949633D01*
X93140766Y-122857059D01*
X93022941Y-122739234D01*
X92930367Y-122600687D01*
X92866601Y-122446742D01*
X92834093Y-122283315D01*
X92834093Y-122116685D01*
X92866601Y-121953258D01*
X92930367Y-121799313D01*
X93022941Y-121660766D01*
X93140766Y-121542941D01*
X93279313Y-121450367D01*
X93433258Y-121386601D01*
X93596685Y-121354093D01*
X93763315Y-121354093D01*
X93926742Y-121386601D01*
G37*
G36*
X96466742Y-121386601D02*
G01*
X96620687Y-121450367D01*
X96759234Y-121542941D01*
X96877059Y-121660766D01*
X96969633Y-121799313D01*
X97033399Y-121953258D01*
X97065907Y-122116685D01*
X97065907Y-122283315D01*
X97033399Y-122446742D01*
X96969633Y-122600687D01*
X96877059Y-122739234D01*
X96759234Y-122857059D01*
X96620687Y-122949633D01*
X96466742Y-123013399D01*
X96303315Y-123045907D01*
X96136685Y-123045907D01*
X95973258Y-123013399D01*
X95819313Y-122949633D01*
X95680766Y-122857059D01*
X95562941Y-122739234D01*
X95470367Y-122600687D01*
X95406601Y-122446742D01*
X95374093Y-122283315D01*
X95374093Y-122116685D01*
X95406601Y-121953258D01*
X95470367Y-121799313D01*
X95562941Y-121660766D01*
X95680766Y-121542941D01*
X95819313Y-121450367D01*
X95973258Y-121386601D01*
X96136685Y-121354093D01*
X96303315Y-121354093D01*
X96466742Y-121386601D01*
G37*
G36*
X99006742Y-121386601D02*
G01*
X99160687Y-121450367D01*
X99299234Y-121542941D01*
X99417059Y-121660766D01*
X99509633Y-121799313D01*
X99573399Y-121953258D01*
X99605907Y-122116685D01*
X99605907Y-122283315D01*
X99573399Y-122446742D01*
X99509633Y-122600687D01*
X99417059Y-122739234D01*
X99299234Y-122857059D01*
X99160687Y-122949633D01*
X99006742Y-123013399D01*
X98843315Y-123045907D01*
X98676685Y-123045907D01*
X98513258Y-123013399D01*
X98359313Y-122949633D01*
X98220766Y-122857059D01*
X98102941Y-122739234D01*
X98010367Y-122600687D01*
X97946601Y-122446742D01*
X97914093Y-122283315D01*
X97914093Y-122116685D01*
X97946601Y-121953258D01*
X98010367Y-121799313D01*
X98102941Y-121660766D01*
X98220766Y-121542941D01*
X98359313Y-121450367D01*
X98513258Y-121386601D01*
X98676685Y-121354093D01*
X98843315Y-121354093D01*
X99006742Y-121386601D01*
G37*
G36*
X101546742Y-121386601D02*
G01*
X101700687Y-121450367D01*
X101839234Y-121542941D01*
X101957059Y-121660766D01*
X102049633Y-121799313D01*
X102113399Y-121953258D01*
X102145907Y-122116685D01*
X102145907Y-122283315D01*
X102113399Y-122446742D01*
X102049633Y-122600687D01*
X101957059Y-122739234D01*
X101839234Y-122857059D01*
X101700687Y-122949633D01*
X101546742Y-123013399D01*
X101383315Y-123045907D01*
X101216685Y-123045907D01*
X101053258Y-123013399D01*
X100899313Y-122949633D01*
X100760766Y-122857059D01*
X100642941Y-122739234D01*
X100550367Y-122600687D01*
X100486601Y-122446742D01*
X100454093Y-122283315D01*
X100454093Y-122116685D01*
X100486601Y-121953258D01*
X100550367Y-121799313D01*
X100642941Y-121660766D01*
X100760766Y-121542941D01*
X100899313Y-121450367D01*
X101053258Y-121386601D01*
X101216685Y-121354093D01*
X101383315Y-121354093D01*
X101546742Y-121386601D01*
G37*
G36*
X72646742Y-121176601D02*
G01*
X72800687Y-121240367D01*
X72939234Y-121332941D01*
X73057059Y-121450766D01*
X73149633Y-121589313D01*
X73213399Y-121743258D01*
X73245907Y-121906685D01*
X73245907Y-122073315D01*
X73213399Y-122236742D01*
X73149633Y-122390687D01*
X73057059Y-122529234D01*
X72939234Y-122647059D01*
X72800687Y-122739633D01*
X72646742Y-122803399D01*
X72483315Y-122835907D01*
X72316685Y-122835907D01*
X72153258Y-122803399D01*
X71999313Y-122739633D01*
X71860766Y-122647059D01*
X71742941Y-122529234D01*
X71650367Y-122390687D01*
X71586601Y-122236742D01*
X71554093Y-122073315D01*
X71554093Y-121906685D01*
X71586601Y-121743258D01*
X71650367Y-121589313D01*
X71742941Y-121450766D01*
X71860766Y-121332941D01*
X71999313Y-121240367D01*
X72153258Y-121176601D01*
X72316685Y-121144093D01*
X72483315Y-121144093D01*
X72646742Y-121176601D01*
G37*
G36*
X75186742Y-121176601D02*
G01*
X75340687Y-121240367D01*
X75479234Y-121332941D01*
X75597059Y-121450766D01*
X75689633Y-121589313D01*
X75753399Y-121743258D01*
X75785907Y-121906685D01*
X75785907Y-122073315D01*
X75753399Y-122236742D01*
X75689633Y-122390687D01*
X75597059Y-122529234D01*
X75479234Y-122647059D01*
X75340687Y-122739633D01*
X75186742Y-122803399D01*
X75023315Y-122835907D01*
X74856685Y-122835907D01*
X74693258Y-122803399D01*
X74539313Y-122739633D01*
X74400766Y-122647059D01*
X74282941Y-122529234D01*
X74190367Y-122390687D01*
X74126601Y-122236742D01*
X74094093Y-122073315D01*
X74094093Y-121906685D01*
X74126601Y-121743258D01*
X74190367Y-121589313D01*
X74282941Y-121450766D01*
X74400766Y-121332941D01*
X74539313Y-121240367D01*
X74693258Y-121176601D01*
X74856685Y-121144093D01*
X75023315Y-121144093D01*
X75186742Y-121176601D01*
G37*
G36*
X115826742Y-121176601D02*
G01*
X115980687Y-121240367D01*
X116119234Y-121332941D01*
X116237059Y-121450766D01*
X116329633Y-121589313D01*
X116393399Y-121743258D01*
X116425907Y-121906685D01*
X116425907Y-122073315D01*
X116393399Y-122236742D01*
X116329633Y-122390687D01*
X116237059Y-122529234D01*
X116119234Y-122647059D01*
X115980687Y-122739633D01*
X115826742Y-122803399D01*
X115663315Y-122835907D01*
X115496685Y-122835907D01*
X115333258Y-122803399D01*
X115179313Y-122739633D01*
X115040766Y-122647059D01*
X114922941Y-122529234D01*
X114830367Y-122390687D01*
X114766601Y-122236742D01*
X114734093Y-122073315D01*
X114734093Y-121906685D01*
X114766601Y-121743258D01*
X114830367Y-121589313D01*
X114922941Y-121450766D01*
X115040766Y-121332941D01*
X115179313Y-121240367D01*
X115333258Y-121176601D01*
X115496685Y-121144093D01*
X115663315Y-121144093D01*
X115826742Y-121176601D01*
G37*
G36*
X118366742Y-121176601D02*
G01*
X118520687Y-121240367D01*
X118659234Y-121332941D01*
X118777059Y-121450766D01*
X118869633Y-121589313D01*
X118933399Y-121743258D01*
X118965907Y-121906685D01*
X118965907Y-122073315D01*
X118933399Y-122236742D01*
X118869633Y-122390687D01*
X118777059Y-122529234D01*
X118659234Y-122647059D01*
X118520687Y-122739633D01*
X118366742Y-122803399D01*
X118203315Y-122835907D01*
X118036685Y-122835907D01*
X117873258Y-122803399D01*
X117719313Y-122739633D01*
X117580766Y-122647059D01*
X117462941Y-122529234D01*
X117370367Y-122390687D01*
X117306601Y-122236742D01*
X117274093Y-122073315D01*
X117274093Y-121906685D01*
X117306601Y-121743258D01*
X117370367Y-121589313D01*
X117462941Y-121450766D01*
X117580766Y-121332941D01*
X117719313Y-121240367D01*
X117873258Y-121176601D01*
X118036685Y-121144093D01*
X118203315Y-121144093D01*
X118366742Y-121176601D01*
G37*
G36*
X72646742Y-118636601D02*
G01*
X72800687Y-118700367D01*
X72939234Y-118792941D01*
X73057059Y-118910766D01*
X73149633Y-119049313D01*
X73213399Y-119203258D01*
X73245907Y-119366685D01*
X73245907Y-119533315D01*
X73213399Y-119696742D01*
X73149633Y-119850687D01*
X73057059Y-119989234D01*
X72939234Y-120107059D01*
X72800687Y-120199633D01*
X72646742Y-120263399D01*
X72483315Y-120295907D01*
X72316685Y-120295907D01*
X72153258Y-120263399D01*
X71999313Y-120199633D01*
X71860766Y-120107059D01*
X71742941Y-119989234D01*
X71650367Y-119850687D01*
X71586601Y-119696742D01*
X71554093Y-119533315D01*
X71554093Y-119366685D01*
X71586601Y-119203258D01*
X71650367Y-119049313D01*
X71742941Y-118910766D01*
X71860766Y-118792941D01*
X71999313Y-118700367D01*
X72153258Y-118636601D01*
X72316685Y-118604093D01*
X72483315Y-118604093D01*
X72646742Y-118636601D01*
G37*
G36*
X75186742Y-118636601D02*
G01*
X75340687Y-118700367D01*
X75479234Y-118792941D01*
X75597059Y-118910766D01*
X75689633Y-119049313D01*
X75753399Y-119203258D01*
X75785907Y-119366685D01*
X75785907Y-119533315D01*
X75753399Y-119696742D01*
X75689633Y-119850687D01*
X75597059Y-119989234D01*
X75479234Y-120107059D01*
X75340687Y-120199633D01*
X75186742Y-120263399D01*
X75023315Y-120295907D01*
X74856685Y-120295907D01*
X74693258Y-120263399D01*
X74539313Y-120199633D01*
X74400766Y-120107059D01*
X74282941Y-119989234D01*
X74190367Y-119850687D01*
X74126601Y-119696742D01*
X74094093Y-119533315D01*
X74094093Y-119366685D01*
X74126601Y-119203258D01*
X74190367Y-119049313D01*
X74282941Y-118910766D01*
X74400766Y-118792941D01*
X74539313Y-118700367D01*
X74693258Y-118636601D01*
X74856685Y-118604093D01*
X75023315Y-118604093D01*
X75186742Y-118636601D01*
G37*
G36*
X115826742Y-118636601D02*
G01*
X115980687Y-118700367D01*
X116119234Y-118792941D01*
X116237059Y-118910766D01*
X116329633Y-119049313D01*
X116393399Y-119203258D01*
X116425907Y-119366685D01*
X116425907Y-119533315D01*
X116393399Y-119696742D01*
X116329633Y-119850687D01*
X116237059Y-119989234D01*
X116119234Y-120107059D01*
X115980687Y-120199633D01*
X115826742Y-120263399D01*
X115663315Y-120295907D01*
X115496685Y-120295907D01*
X115333258Y-120263399D01*
X115179313Y-120199633D01*
X115040766Y-120107059D01*
X114922941Y-119989234D01*
X114830367Y-119850687D01*
X114766601Y-119696742D01*
X114734093Y-119533315D01*
X114734093Y-119366685D01*
X114766601Y-119203258D01*
X114830367Y-119049313D01*
X114922941Y-118910766D01*
X115040766Y-118792941D01*
X115179313Y-118700367D01*
X115333258Y-118636601D01*
X115496685Y-118604093D01*
X115663315Y-118604093D01*
X115826742Y-118636601D01*
G37*
G36*
X118366742Y-118636601D02*
G01*
X118520687Y-118700367D01*
X118659234Y-118792941D01*
X118777059Y-118910766D01*
X118869633Y-119049313D01*
X118933399Y-119203258D01*
X118965907Y-119366685D01*
X118965907Y-119533315D01*
X118933399Y-119696742D01*
X118869633Y-119850687D01*
X118777059Y-119989234D01*
X118659234Y-120107059D01*
X118520687Y-120199633D01*
X118366742Y-120263399D01*
X118203315Y-120295907D01*
X118036685Y-120295907D01*
X117873258Y-120263399D01*
X117719313Y-120199633D01*
X117580766Y-120107059D01*
X117462941Y-119989234D01*
X117370367Y-119850687D01*
X117306601Y-119696742D01*
X117274093Y-119533315D01*
X117274093Y-119366685D01*
X117306601Y-119203258D01*
X117370367Y-119049313D01*
X117462941Y-118910766D01*
X117580766Y-118792941D01*
X117719313Y-118700367D01*
X117873258Y-118636601D01*
X118036685Y-118604093D01*
X118203315Y-118604093D01*
X118366742Y-118636601D01*
G37*
G36*
X72646742Y-116096601D02*
G01*
X72800687Y-116160367D01*
X72939234Y-116252941D01*
X73057059Y-116370766D01*
X73149633Y-116509313D01*
X73213399Y-116663258D01*
X73245907Y-116826685D01*
X73245907Y-116993315D01*
X73213399Y-117156742D01*
X73149633Y-117310687D01*
X73057059Y-117449234D01*
X72939234Y-117567059D01*
X72800687Y-117659633D01*
X72646742Y-117723399D01*
X72483315Y-117755907D01*
X72316685Y-117755907D01*
X72153258Y-117723399D01*
X71999313Y-117659633D01*
X71860766Y-117567059D01*
X71742941Y-117449234D01*
X71650367Y-117310687D01*
X71586601Y-117156742D01*
X71554093Y-116993315D01*
X71554093Y-116826685D01*
X71586601Y-116663258D01*
X71650367Y-116509313D01*
X71742941Y-116370766D01*
X71860766Y-116252941D01*
X71999313Y-116160367D01*
X72153258Y-116096601D01*
X72316685Y-116064093D01*
X72483315Y-116064093D01*
X72646742Y-116096601D01*
G37*
G36*
X75186742Y-116096601D02*
G01*
X75340687Y-116160367D01*
X75479234Y-116252941D01*
X75597059Y-116370766D01*
X75689633Y-116509313D01*
X75753399Y-116663258D01*
X75785907Y-116826685D01*
X75785907Y-116993315D01*
X75753399Y-117156742D01*
X75689633Y-117310687D01*
X75597059Y-117449234D01*
X75479234Y-117567059D01*
X75340687Y-117659633D01*
X75186742Y-117723399D01*
X75023315Y-117755907D01*
X74856685Y-117755907D01*
X74693258Y-117723399D01*
X74539313Y-117659633D01*
X74400766Y-117567059D01*
X74282941Y-117449234D01*
X74190367Y-117310687D01*
X74126601Y-117156742D01*
X74094093Y-116993315D01*
X74094093Y-116826685D01*
X74126601Y-116663258D01*
X74190367Y-116509313D01*
X74282941Y-116370766D01*
X74400766Y-116252941D01*
X74539313Y-116160367D01*
X74693258Y-116096601D01*
X74856685Y-116064093D01*
X75023315Y-116064093D01*
X75186742Y-116096601D01*
G37*
G36*
X115826742Y-116096601D02*
G01*
X115980687Y-116160367D01*
X116119234Y-116252941D01*
X116237059Y-116370766D01*
X116329633Y-116509313D01*
X116393399Y-116663258D01*
X116425907Y-116826685D01*
X116425907Y-116993315D01*
X116393399Y-117156742D01*
X116329633Y-117310687D01*
X116237059Y-117449234D01*
X116119234Y-117567059D01*
X115980687Y-117659633D01*
X115826742Y-117723399D01*
X115663315Y-117755907D01*
X115496685Y-117755907D01*
X115333258Y-117723399D01*
X115179313Y-117659633D01*
X115040766Y-117567059D01*
X114922941Y-117449234D01*
X114830367Y-117310687D01*
X114766601Y-117156742D01*
X114734093Y-116993315D01*
X114734093Y-116826685D01*
X114766601Y-116663258D01*
X114830367Y-116509313D01*
X114922941Y-116370766D01*
X115040766Y-116252941D01*
X115179313Y-116160367D01*
X115333258Y-116096601D01*
X115496685Y-116064093D01*
X115663315Y-116064093D01*
X115826742Y-116096601D01*
G37*
G36*
X118366742Y-116096601D02*
G01*
X118520687Y-116160367D01*
X118659234Y-116252941D01*
X118777059Y-116370766D01*
X118869633Y-116509313D01*
X118933399Y-116663258D01*
X118965907Y-116826685D01*
X118965907Y-116993315D01*
X118933399Y-117156742D01*
X118869633Y-117310687D01*
X118777059Y-117449234D01*
X118659234Y-117567059D01*
X118520687Y-117659633D01*
X118366742Y-117723399D01*
X118203315Y-117755907D01*
X118036685Y-117755907D01*
X117873258Y-117723399D01*
X117719313Y-117659633D01*
X117580766Y-117567059D01*
X117462941Y-117449234D01*
X117370367Y-117310687D01*
X117306601Y-117156742D01*
X117274093Y-116993315D01*
X117274093Y-116826685D01*
X117306601Y-116663258D01*
X117370367Y-116509313D01*
X117462941Y-116370766D01*
X117580766Y-116252941D01*
X117719313Y-116160367D01*
X117873258Y-116096601D01*
X118036685Y-116064093D01*
X118203315Y-116064093D01*
X118366742Y-116096601D01*
G37*
G36*
X72646742Y-113556601D02*
G01*
X72800687Y-113620367D01*
X72939234Y-113712941D01*
X73057059Y-113830766D01*
X73149633Y-113969313D01*
X73213399Y-114123258D01*
X73245907Y-114286685D01*
X73245907Y-114453315D01*
X73213399Y-114616742D01*
X73149633Y-114770687D01*
X73057059Y-114909234D01*
X72939234Y-115027059D01*
X72800687Y-115119633D01*
X72646742Y-115183399D01*
X72483315Y-115215907D01*
X72316685Y-115215907D01*
X72153258Y-115183399D01*
X71999313Y-115119633D01*
X71860766Y-115027059D01*
X71742941Y-114909234D01*
X71650367Y-114770687D01*
X71586601Y-114616742D01*
X71554093Y-114453315D01*
X71554093Y-114286685D01*
X71586601Y-114123258D01*
X71650367Y-113969313D01*
X71742941Y-113830766D01*
X71860766Y-113712941D01*
X71999313Y-113620367D01*
X72153258Y-113556601D01*
X72316685Y-113524093D01*
X72483315Y-113524093D01*
X72646742Y-113556601D01*
G37*
G36*
X75186742Y-113556601D02*
G01*
X75340687Y-113620367D01*
X75479234Y-113712941D01*
X75597059Y-113830766D01*
X75689633Y-113969313D01*
X75753399Y-114123258D01*
X75785907Y-114286685D01*
X75785907Y-114453315D01*
X75753399Y-114616742D01*
X75689633Y-114770687D01*
X75597059Y-114909234D01*
X75479234Y-115027059D01*
X75340687Y-115119633D01*
X75186742Y-115183399D01*
X75023315Y-115215907D01*
X74856685Y-115215907D01*
X74693258Y-115183399D01*
X74539313Y-115119633D01*
X74400766Y-115027059D01*
X74282941Y-114909234D01*
X74190367Y-114770687D01*
X74126601Y-114616742D01*
X74094093Y-114453315D01*
X74094093Y-114286685D01*
X74126601Y-114123258D01*
X74190367Y-113969313D01*
X74282941Y-113830766D01*
X74400766Y-113712941D01*
X74539313Y-113620367D01*
X74693258Y-113556601D01*
X74856685Y-113524093D01*
X75023315Y-113524093D01*
X75186742Y-113556601D01*
G37*
G36*
X115826742Y-113556601D02*
G01*
X115980687Y-113620367D01*
X116119234Y-113712941D01*
X116237059Y-113830766D01*
X116329633Y-113969313D01*
X116393399Y-114123258D01*
X116425907Y-114286685D01*
X116425907Y-114453315D01*
X116393399Y-114616742D01*
X116329633Y-114770687D01*
X116237059Y-114909234D01*
X116119234Y-115027059D01*
X115980687Y-115119633D01*
X115826742Y-115183399D01*
X115663315Y-115215907D01*
X115496685Y-115215907D01*
X115333258Y-115183399D01*
X115179313Y-115119633D01*
X115040766Y-115027059D01*
X114922941Y-114909234D01*
X114830367Y-114770687D01*
X114766601Y-114616742D01*
X114734093Y-114453315D01*
X114734093Y-114286685D01*
X114766601Y-114123258D01*
X114830367Y-113969313D01*
X114922941Y-113830766D01*
X115040766Y-113712941D01*
X115179313Y-113620367D01*
X115333258Y-113556601D01*
X115496685Y-113524093D01*
X115663315Y-113524093D01*
X115826742Y-113556601D01*
G37*
G36*
X118366742Y-113556601D02*
G01*
X118520687Y-113620367D01*
X118659234Y-113712941D01*
X118777059Y-113830766D01*
X118869633Y-113969313D01*
X118933399Y-114123258D01*
X118965907Y-114286685D01*
X118965907Y-114453315D01*
X118933399Y-114616742D01*
X118869633Y-114770687D01*
X118777059Y-114909234D01*
X118659234Y-115027059D01*
X118520687Y-115119633D01*
X118366742Y-115183399D01*
X118203315Y-115215907D01*
X118036685Y-115215907D01*
X117873258Y-115183399D01*
X117719313Y-115119633D01*
X117580766Y-115027059D01*
X117462941Y-114909234D01*
X117370367Y-114770687D01*
X117306601Y-114616742D01*
X117274093Y-114453315D01*
X117274093Y-114286685D01*
X117306601Y-114123258D01*
X117370367Y-113969313D01*
X117462941Y-113830766D01*
X117580766Y-113712941D01*
X117719313Y-113620367D01*
X117873258Y-113556601D01*
X118036685Y-113524093D01*
X118203315Y-113524093D01*
X118366742Y-113556601D01*
G37*
G36*
X72646742Y-111016601D02*
G01*
X72800687Y-111080367D01*
X72939234Y-111172941D01*
X73057059Y-111290766D01*
X73149633Y-111429313D01*
X73213399Y-111583258D01*
X73245907Y-111746685D01*
X73245907Y-111913315D01*
X73213399Y-112076742D01*
X73149633Y-112230687D01*
X73057059Y-112369234D01*
X72939234Y-112487059D01*
X72800687Y-112579633D01*
X72646742Y-112643399D01*
X72483315Y-112675907D01*
X72316685Y-112675907D01*
X72153258Y-112643399D01*
X71999313Y-112579633D01*
X71860766Y-112487059D01*
X71742941Y-112369234D01*
X71650367Y-112230687D01*
X71586601Y-112076742D01*
X71554093Y-111913315D01*
X71554093Y-111746685D01*
X71586601Y-111583258D01*
X71650367Y-111429313D01*
X71742941Y-111290766D01*
X71860766Y-111172941D01*
X71999313Y-111080367D01*
X72153258Y-111016601D01*
X72316685Y-110984093D01*
X72483315Y-110984093D01*
X72646742Y-111016601D01*
G37*
G36*
X75186742Y-111016601D02*
G01*
X75340687Y-111080367D01*
X75479234Y-111172941D01*
X75597059Y-111290766D01*
X75689633Y-111429313D01*
X75753399Y-111583258D01*
X75785907Y-111746685D01*
X75785907Y-111913315D01*
X75753399Y-112076742D01*
X75689633Y-112230687D01*
X75597059Y-112369234D01*
X75479234Y-112487059D01*
X75340687Y-112579633D01*
X75186742Y-112643399D01*
X75023315Y-112675907D01*
X74856685Y-112675907D01*
X74693258Y-112643399D01*
X74539313Y-112579633D01*
X74400766Y-112487059D01*
X74282941Y-112369234D01*
X74190367Y-112230687D01*
X74126601Y-112076742D01*
X74094093Y-111913315D01*
X74094093Y-111746685D01*
X74126601Y-111583258D01*
X74190367Y-111429313D01*
X74282941Y-111290766D01*
X74400766Y-111172941D01*
X74539313Y-111080367D01*
X74693258Y-111016601D01*
X74856685Y-110984093D01*
X75023315Y-110984093D01*
X75186742Y-111016601D01*
G37*
G36*
X115826742Y-111016601D02*
G01*
X115980687Y-111080367D01*
X116119234Y-111172941D01*
X116237059Y-111290766D01*
X116329633Y-111429313D01*
X116393399Y-111583258D01*
X116425907Y-111746685D01*
X116425907Y-111913315D01*
X116393399Y-112076742D01*
X116329633Y-112230687D01*
X116237059Y-112369234D01*
X116119234Y-112487059D01*
X115980687Y-112579633D01*
X115826742Y-112643399D01*
X115663315Y-112675907D01*
X115496685Y-112675907D01*
X115333258Y-112643399D01*
X115179313Y-112579633D01*
X115040766Y-112487059D01*
X114922941Y-112369234D01*
X114830367Y-112230687D01*
X114766601Y-112076742D01*
X114734093Y-111913315D01*
X114734093Y-111746685D01*
X114766601Y-111583258D01*
X114830367Y-111429313D01*
X114922941Y-111290766D01*
X115040766Y-111172941D01*
X115179313Y-111080367D01*
X115333258Y-111016601D01*
X115496685Y-110984093D01*
X115663315Y-110984093D01*
X115826742Y-111016601D01*
G37*
G36*
X118366742Y-111016601D02*
G01*
X118520687Y-111080367D01*
X118659234Y-111172941D01*
X118777059Y-111290766D01*
X118869633Y-111429313D01*
X118933399Y-111583258D01*
X118965907Y-111746685D01*
X118965907Y-111913315D01*
X118933399Y-112076742D01*
X118869633Y-112230687D01*
X118777059Y-112369234D01*
X118659234Y-112487059D01*
X118520687Y-112579633D01*
X118366742Y-112643399D01*
X118203315Y-112675907D01*
X118036685Y-112675907D01*
X117873258Y-112643399D01*
X117719313Y-112579633D01*
X117580766Y-112487059D01*
X117462941Y-112369234D01*
X117370367Y-112230687D01*
X117306601Y-112076742D01*
X117274093Y-111913315D01*
X117274093Y-111746685D01*
X117306601Y-111583258D01*
X117370367Y-111429313D01*
X117462941Y-111290766D01*
X117580766Y-111172941D01*
X117719313Y-111080367D01*
X117873258Y-111016601D01*
X118036685Y-110984093D01*
X118203315Y-110984093D01*
X118366742Y-111016601D01*
G37*
G36*
X72646742Y-108476601D02*
G01*
X72800687Y-108540367D01*
X72939234Y-108632941D01*
X73057059Y-108750766D01*
X73149633Y-108889313D01*
X73213399Y-109043258D01*
X73245907Y-109206685D01*
X73245907Y-109373315D01*
X73213399Y-109536742D01*
X73149633Y-109690687D01*
X73057059Y-109829234D01*
X72939234Y-109947059D01*
X72800687Y-110039633D01*
X72646742Y-110103399D01*
X72483315Y-110135907D01*
X72316685Y-110135907D01*
X72153258Y-110103399D01*
X71999313Y-110039633D01*
X71860766Y-109947059D01*
X71742941Y-109829234D01*
X71650367Y-109690687D01*
X71586601Y-109536742D01*
X71554093Y-109373315D01*
X71554093Y-109206685D01*
X71586601Y-109043258D01*
X71650367Y-108889313D01*
X71742941Y-108750766D01*
X71860766Y-108632941D01*
X71999313Y-108540367D01*
X72153258Y-108476601D01*
X72316685Y-108444093D01*
X72483315Y-108444093D01*
X72646742Y-108476601D01*
G37*
G36*
X75186742Y-108476601D02*
G01*
X75340687Y-108540367D01*
X75479234Y-108632941D01*
X75597059Y-108750766D01*
X75689633Y-108889313D01*
X75753399Y-109043258D01*
X75785907Y-109206685D01*
X75785907Y-109373315D01*
X75753399Y-109536742D01*
X75689633Y-109690687D01*
X75597059Y-109829234D01*
X75479234Y-109947059D01*
X75340687Y-110039633D01*
X75186742Y-110103399D01*
X75023315Y-110135907D01*
X74856685Y-110135907D01*
X74693258Y-110103399D01*
X74539313Y-110039633D01*
X74400766Y-109947059D01*
X74282941Y-109829234D01*
X74190367Y-109690687D01*
X74126601Y-109536742D01*
X74094093Y-109373315D01*
X74094093Y-109206685D01*
X74126601Y-109043258D01*
X74190367Y-108889313D01*
X74282941Y-108750766D01*
X74400766Y-108632941D01*
X74539313Y-108540367D01*
X74693258Y-108476601D01*
X74856685Y-108444093D01*
X75023315Y-108444093D01*
X75186742Y-108476601D01*
G37*
G36*
X115826742Y-108476601D02*
G01*
X115980687Y-108540367D01*
X116119234Y-108632941D01*
X116237059Y-108750766D01*
X116329633Y-108889313D01*
X116393399Y-109043258D01*
X116425907Y-109206685D01*
X116425907Y-109373315D01*
X116393399Y-109536742D01*
X116329633Y-109690687D01*
X116237059Y-109829234D01*
X116119234Y-109947059D01*
X115980687Y-110039633D01*
X115826742Y-110103399D01*
X115663315Y-110135907D01*
X115496685Y-110135907D01*
X115333258Y-110103399D01*
X115179313Y-110039633D01*
X115040766Y-109947059D01*
X114922941Y-109829234D01*
X114830367Y-109690687D01*
X114766601Y-109536742D01*
X114734093Y-109373315D01*
X114734093Y-109206685D01*
X114766601Y-109043258D01*
X114830367Y-108889313D01*
X114922941Y-108750766D01*
X115040766Y-108632941D01*
X115179313Y-108540367D01*
X115333258Y-108476601D01*
X115496685Y-108444093D01*
X115663315Y-108444093D01*
X115826742Y-108476601D01*
G37*
G36*
X118366742Y-108476601D02*
G01*
X118520687Y-108540367D01*
X118659234Y-108632941D01*
X118777059Y-108750766D01*
X118869633Y-108889313D01*
X118933399Y-109043258D01*
X118965907Y-109206685D01*
X118965907Y-109373315D01*
X118933399Y-109536742D01*
X118869633Y-109690687D01*
X118777059Y-109829234D01*
X118659234Y-109947059D01*
X118520687Y-110039633D01*
X118366742Y-110103399D01*
X118203315Y-110135907D01*
X118036685Y-110135907D01*
X117873258Y-110103399D01*
X117719313Y-110039633D01*
X117580766Y-109947059D01*
X117462941Y-109829234D01*
X117370367Y-109690687D01*
X117306601Y-109536742D01*
X117274093Y-109373315D01*
X117274093Y-109206685D01*
X117306601Y-109043258D01*
X117370367Y-108889313D01*
X117462941Y-108750766D01*
X117580766Y-108632941D01*
X117719313Y-108540367D01*
X117873258Y-108476601D01*
X118036685Y-108444093D01*
X118203315Y-108444093D01*
X118366742Y-108476601D01*
G37*
G36*
X103172208Y-108534254D02*
G01*
X103273943Y-108592991D01*
X103357009Y-108676057D01*
X103415746Y-108777792D01*
X103446150Y-108891263D01*
X103446150Y-109008737D01*
X103415746Y-109122208D01*
X103357009Y-109223943D01*
X103273943Y-109307009D01*
X103172208Y-109365746D01*
X103058737Y-109396150D01*
X102941263Y-109396150D01*
X102827792Y-109365746D01*
X102726057Y-109307009D01*
X102642991Y-109223943D01*
X102584254Y-109122208D01*
X102553850Y-109008737D01*
X102553850Y-108891263D01*
X102584254Y-108777792D01*
X102642991Y-108676057D01*
X102726057Y-108592991D01*
X102827792Y-108534254D01*
X102941263Y-108503850D01*
X103058737Y-108503850D01*
X103172208Y-108534254D01*
G37*
G36*
X109972208Y-108534254D02*
G01*
X110073943Y-108592991D01*
X110157009Y-108676057D01*
X110215746Y-108777792D01*
X110246150Y-108891263D01*
X110246150Y-109008737D01*
X110215746Y-109122208D01*
X110157009Y-109223943D01*
X110073943Y-109307009D01*
X109972208Y-109365746D01*
X109858737Y-109396150D01*
X109741263Y-109396150D01*
X109627792Y-109365746D01*
X109526057Y-109307009D01*
X109442991Y-109223943D01*
X109384254Y-109122208D01*
X109353850Y-109008737D01*
X109353850Y-108891263D01*
X109384254Y-108777792D01*
X109442991Y-108676057D01*
X109526057Y-108592991D01*
X109627792Y-108534254D01*
X109741263Y-108503850D01*
X109858737Y-108503850D01*
X109972208Y-108534254D01*
G37*
G36*
X80772208Y-108464254D02*
G01*
X80873943Y-108522991D01*
X80957009Y-108606057D01*
X81015746Y-108707792D01*
X81046150Y-108821263D01*
X81046150Y-108938737D01*
X81015746Y-109052208D01*
X80957009Y-109153943D01*
X80873943Y-109237009D01*
X80772208Y-109295746D01*
X80658737Y-109326150D01*
X80541263Y-109326150D01*
X80427792Y-109295746D01*
X80326057Y-109237009D01*
X80242991Y-109153943D01*
X80184254Y-109052208D01*
X80153850Y-108938737D01*
X80153850Y-108821263D01*
X80184254Y-108707792D01*
X80242991Y-108606057D01*
X80326057Y-108522991D01*
X80427792Y-108464254D01*
X80541263Y-108433850D01*
X80658737Y-108433850D01*
X80772208Y-108464254D01*
G37*
G36*
X87572208Y-108464254D02*
G01*
X87673943Y-108522991D01*
X87757009Y-108606057D01*
X87815746Y-108707792D01*
X87846150Y-108821263D01*
X87846150Y-108938737D01*
X87815746Y-109052208D01*
X87757009Y-109153943D01*
X87673943Y-109237009D01*
X87572208Y-109295746D01*
X87458737Y-109326150D01*
X87341263Y-109326150D01*
X87227792Y-109295746D01*
X87126057Y-109237009D01*
X87042991Y-109153943D01*
X86984254Y-109052208D01*
X86953850Y-108938737D01*
X86953850Y-108821263D01*
X86984254Y-108707792D01*
X87042991Y-108606057D01*
X87126057Y-108522991D01*
X87227792Y-108464254D01*
X87341263Y-108433850D01*
X87458737Y-108433850D01*
X87572208Y-108464254D01*
G37*
G36*
X92032208Y-108464254D02*
G01*
X92133943Y-108522991D01*
X92217009Y-108606057D01*
X92275746Y-108707792D01*
X92306150Y-108821263D01*
X92306150Y-108938737D01*
X92275746Y-109052208D01*
X92217009Y-109153943D01*
X92133943Y-109237009D01*
X92032208Y-109295746D01*
X91918737Y-109326150D01*
X91801263Y-109326150D01*
X91687792Y-109295746D01*
X91586057Y-109237009D01*
X91502991Y-109153943D01*
X91444254Y-109052208D01*
X91413850Y-108938737D01*
X91413850Y-108821263D01*
X91444254Y-108707792D01*
X91502991Y-108606057D01*
X91586057Y-108522991D01*
X91687792Y-108464254D01*
X91801263Y-108433850D01*
X91918737Y-108433850D01*
X92032208Y-108464254D01*
G37*
G36*
X98832208Y-108464254D02*
G01*
X98933943Y-108522991D01*
X99017009Y-108606057D01*
X99075746Y-108707792D01*
X99106150Y-108821263D01*
X99106150Y-108938737D01*
X99075746Y-109052208D01*
X99017009Y-109153943D01*
X98933943Y-109237009D01*
X98832208Y-109295746D01*
X98718737Y-109326150D01*
X98601263Y-109326150D01*
X98487792Y-109295746D01*
X98386057Y-109237009D01*
X98302991Y-109153943D01*
X98244254Y-109052208D01*
X98213850Y-108938737D01*
X98213850Y-108821263D01*
X98244254Y-108707792D01*
X98302991Y-108606057D01*
X98386057Y-108522991D01*
X98487792Y-108464254D01*
X98601263Y-108433850D01*
X98718737Y-108433850D01*
X98832208Y-108464254D01*
G37*
G36*
X73250000Y-107600000D02*
G01*
X71550000Y-107600000D01*
X71550000Y-105900000D01*
X73250000Y-105900000D01*
X73250000Y-107600000D01*
G37*
G36*
X116430000Y-107600000D02*
G01*
X114730000Y-107600000D01*
X114730000Y-105900000D01*
X116430000Y-105900000D01*
X116430000Y-107600000D01*
G37*
G36*
X75186742Y-105936601D02*
G01*
X75340687Y-106000367D01*
X75479234Y-106092941D01*
X75597059Y-106210766D01*
X75689633Y-106349313D01*
X75753399Y-106503258D01*
X75785907Y-106666685D01*
X75785907Y-106833315D01*
X75753399Y-106996742D01*
X75689633Y-107150687D01*
X75597059Y-107289234D01*
X75479234Y-107407059D01*
X75340687Y-107499633D01*
X75186742Y-107563399D01*
X75023315Y-107595907D01*
X74856685Y-107595907D01*
X74693258Y-107563399D01*
X74539313Y-107499633D01*
X74400766Y-107407059D01*
X74282941Y-107289234D01*
X74190367Y-107150687D01*
X74126601Y-106996742D01*
X74094093Y-106833315D01*
X74094093Y-106666685D01*
X74126601Y-106503258D01*
X74190367Y-106349313D01*
X74282941Y-106210766D01*
X74400766Y-106092941D01*
X74539313Y-106000367D01*
X74693258Y-105936601D01*
X74856685Y-105904093D01*
X75023315Y-105904093D01*
X75186742Y-105936601D01*
G37*
G36*
X118366742Y-105936601D02*
G01*
X118520687Y-106000367D01*
X118659234Y-106092941D01*
X118777059Y-106210766D01*
X118869633Y-106349313D01*
X118933399Y-106503258D01*
X118965907Y-106666685D01*
X118965907Y-106833315D01*
X118933399Y-106996742D01*
X118869633Y-107150687D01*
X118777059Y-107289234D01*
X118659234Y-107407059D01*
X118520687Y-107499633D01*
X118366742Y-107563399D01*
X118203315Y-107595907D01*
X118036685Y-107595907D01*
X117873258Y-107563399D01*
X117719313Y-107499633D01*
X117580766Y-107407059D01*
X117462941Y-107289234D01*
X117370367Y-107150687D01*
X117306601Y-106996742D01*
X117274093Y-106833315D01*
X117274093Y-106666685D01*
X117306601Y-106503258D01*
X117370367Y-106349313D01*
X117462941Y-106210766D01*
X117580766Y-106092941D01*
X117719313Y-106000367D01*
X117873258Y-105936601D01*
X118036685Y-105904093D01*
X118203315Y-105904093D01*
X118366742Y-105936601D01*
G37*
G36*
X73250000Y-99060000D02*
G01*
X71550000Y-99060000D01*
X71550000Y-97360000D01*
X73250000Y-97360000D01*
X73250000Y-99060000D01*
G37*
G36*
X75186742Y-97396601D02*
G01*
X75340687Y-97460367D01*
X75479234Y-97552941D01*
X75597059Y-97670766D01*
X75689633Y-97809313D01*
X75753399Y-97963258D01*
X75785907Y-98126685D01*
X75785907Y-98293315D01*
X75753399Y-98456742D01*
X75689633Y-98610687D01*
X75597059Y-98749234D01*
X75479234Y-98867059D01*
X75340687Y-98959633D01*
X75186742Y-99023399D01*
X75023315Y-99055907D01*
X74856685Y-99055907D01*
X74693258Y-99023399D01*
X74539313Y-98959633D01*
X74400766Y-98867059D01*
X74282941Y-98749234D01*
X74190367Y-98610687D01*
X74126601Y-98456742D01*
X74094093Y-98293315D01*
X74094093Y-98126685D01*
X74126601Y-97963258D01*
X74190367Y-97809313D01*
X74282941Y-97670766D01*
X74400766Y-97552941D01*
X74539313Y-97460367D01*
X74693258Y-97396601D01*
X74856685Y-97364093D01*
X75023315Y-97364093D01*
X75186742Y-97396601D01*
G37*
G36*
X77726742Y-97396601D02*
G01*
X77880687Y-97460367D01*
X78019234Y-97552941D01*
X78137059Y-97670766D01*
X78229633Y-97809313D01*
X78293399Y-97963258D01*
X78325907Y-98126685D01*
X78325907Y-98293315D01*
X78293399Y-98456742D01*
X78229633Y-98610687D01*
X78137059Y-98749234D01*
X78019234Y-98867059D01*
X77880687Y-98959633D01*
X77726742Y-99023399D01*
X77563315Y-99055907D01*
X77396685Y-99055907D01*
X77233258Y-99023399D01*
X77079313Y-98959633D01*
X76940766Y-98867059D01*
X76822941Y-98749234D01*
X76730367Y-98610687D01*
X76666601Y-98456742D01*
X76634093Y-98293315D01*
X76634093Y-98126685D01*
X76666601Y-97963258D01*
X76730367Y-97809313D01*
X76822941Y-97670766D01*
X76940766Y-97552941D01*
X77079313Y-97460367D01*
X77233258Y-97396601D01*
X77396685Y-97364093D01*
X77563315Y-97364093D01*
X77726742Y-97396601D01*
G37*
G36*
X80266742Y-97396601D02*
G01*
X80420687Y-97460367D01*
X80559234Y-97552941D01*
X80677059Y-97670766D01*
X80769633Y-97809313D01*
X80833399Y-97963258D01*
X80865907Y-98126685D01*
X80865907Y-98293315D01*
X80833399Y-98456742D01*
X80769633Y-98610687D01*
X80677059Y-98749234D01*
X80559234Y-98867059D01*
X80420687Y-98959633D01*
X80266742Y-99023399D01*
X80103315Y-99055907D01*
X79936685Y-99055907D01*
X79773258Y-99023399D01*
X79619313Y-98959633D01*
X79480766Y-98867059D01*
X79362941Y-98749234D01*
X79270367Y-98610687D01*
X79206601Y-98456742D01*
X79174093Y-98293315D01*
X79174093Y-98126685D01*
X79206601Y-97963258D01*
X79270367Y-97809313D01*
X79362941Y-97670766D01*
X79480766Y-97552941D01*
X79619313Y-97460367D01*
X79773258Y-97396601D01*
X79936685Y-97364093D01*
X80103315Y-97364093D01*
X80266742Y-97396601D01*
G37*
G36*
X82806742Y-97396601D02*
G01*
X82960687Y-97460367D01*
X83099234Y-97552941D01*
X83217059Y-97670766D01*
X83309633Y-97809313D01*
X83373399Y-97963258D01*
X83405907Y-98126685D01*
X83405907Y-98293315D01*
X83373399Y-98456742D01*
X83309633Y-98610687D01*
X83217059Y-98749234D01*
X83099234Y-98867059D01*
X82960687Y-98959633D01*
X82806742Y-99023399D01*
X82643315Y-99055907D01*
X82476685Y-99055907D01*
X82313258Y-99023399D01*
X82159313Y-98959633D01*
X82020766Y-98867059D01*
X81902941Y-98749234D01*
X81810367Y-98610687D01*
X81746601Y-98456742D01*
X81714093Y-98293315D01*
X81714093Y-98126685D01*
X81746601Y-97963258D01*
X81810367Y-97809313D01*
X81902941Y-97670766D01*
X82020766Y-97552941D01*
X82159313Y-97460367D01*
X82313258Y-97396601D01*
X82476685Y-97364093D01*
X82643315Y-97364093D01*
X82806742Y-97396601D01*
G37*
G36*
X85346742Y-97396601D02*
G01*
X85500687Y-97460367D01*
X85639234Y-97552941D01*
X85757059Y-97670766D01*
X85849633Y-97809313D01*
X85913399Y-97963258D01*
X85945907Y-98126685D01*
X85945907Y-98293315D01*
X85913399Y-98456742D01*
X85849633Y-98610687D01*
X85757059Y-98749234D01*
X85639234Y-98867059D01*
X85500687Y-98959633D01*
X85346742Y-99023399D01*
X85183315Y-99055907D01*
X85016685Y-99055907D01*
X84853258Y-99023399D01*
X84699313Y-98959633D01*
X84560766Y-98867059D01*
X84442941Y-98749234D01*
X84350367Y-98610687D01*
X84286601Y-98456742D01*
X84254093Y-98293315D01*
X84254093Y-98126685D01*
X84286601Y-97963258D01*
X84350367Y-97809313D01*
X84442941Y-97670766D01*
X84560766Y-97552941D01*
X84699313Y-97460367D01*
X84853258Y-97396601D01*
X85016685Y-97364093D01*
X85183315Y-97364093D01*
X85346742Y-97396601D01*
G37*
G36*
X90891807Y-93434538D02*
G01*
X91078354Y-93495151D01*
X91253123Y-93584200D01*
X91411810Y-93699493D01*
X91550507Y-93838190D01*
X91665800Y-93996877D01*
X91754849Y-94171646D01*
X91815462Y-94358193D01*
X91846147Y-94551926D01*
X91846147Y-94748074D01*
X91815462Y-94941807D01*
X91754849Y-95128354D01*
X91665800Y-95303123D01*
X91550507Y-95461810D01*
X91411810Y-95600507D01*
X91253123Y-95715800D01*
X91078354Y-95804849D01*
X90891807Y-95865462D01*
X90698074Y-95896147D01*
X90501926Y-95896147D01*
X90308193Y-95865462D01*
X90121646Y-95804849D01*
X89946877Y-95715800D01*
X89788190Y-95600507D01*
X89649493Y-95461810D01*
X89534200Y-95303123D01*
X89445151Y-95128354D01*
X89384538Y-94941807D01*
X89353853Y-94748074D01*
X89353853Y-94551926D01*
X89384538Y-94358193D01*
X89445151Y-94171646D01*
X89534200Y-93996877D01*
X89649493Y-93838190D01*
X89788190Y-93699493D01*
X89946877Y-93584200D01*
X90121646Y-93495151D01*
X90308193Y-93434538D01*
X90501926Y-93403853D01*
X90698074Y-93403853D01*
X90891807Y-93434538D01*
G37*
G36*
X120391807Y-88784538D02*
G01*
X120578354Y-88845151D01*
X120753123Y-88934200D01*
X120911810Y-89049493D01*
X121050507Y-89188190D01*
X121165800Y-89346877D01*
X121254849Y-89521646D01*
X121315462Y-89708193D01*
X121346147Y-89901926D01*
X121346147Y-90098074D01*
X121315462Y-90291807D01*
X121254849Y-90478354D01*
X121165800Y-90653123D01*
X121050507Y-90811810D01*
X120911810Y-90950507D01*
X120753123Y-91065800D01*
X120578354Y-91154849D01*
X120391807Y-91215462D01*
X120198074Y-91246147D01*
X120001926Y-91246147D01*
X119808193Y-91215462D01*
X119621646Y-91154849D01*
X119446877Y-91065800D01*
X119288190Y-90950507D01*
X119149493Y-90811810D01*
X119034200Y-90653123D01*
X118945151Y-90478354D01*
X118884538Y-90291807D01*
X118853853Y-90098074D01*
X118853853Y-89901926D01*
X118884538Y-89708193D01*
X118945151Y-89521646D01*
X119034200Y-89346877D01*
X119149493Y-89188190D01*
X119288190Y-89049493D01*
X119446877Y-88934200D01*
X119621646Y-88845151D01*
X119808193Y-88784538D01*
X120001926Y-88753853D01*
X120198074Y-88753853D01*
X120391807Y-88784538D01*
G37*
G36*
X94291807Y-87334538D02*
G01*
X94478354Y-87395151D01*
X94653123Y-87484200D01*
X94811810Y-87599493D01*
X94950507Y-87738190D01*
X95065800Y-87896877D01*
X95154849Y-88071646D01*
X95215462Y-88258193D01*
X95246147Y-88451926D01*
X95246147Y-88648074D01*
X95215462Y-88841807D01*
X95154849Y-89028354D01*
X95065800Y-89203123D01*
X94950507Y-89361810D01*
X94811810Y-89500507D01*
X94653123Y-89615800D01*
X94478354Y-89704849D01*
X94291807Y-89765462D01*
X94098074Y-89796147D01*
X93901926Y-89796147D01*
X93708193Y-89765462D01*
X93521646Y-89704849D01*
X93346877Y-89615800D01*
X93188190Y-89500507D01*
X93049493Y-89361810D01*
X92934200Y-89203123D01*
X92845151Y-89028354D01*
X92784538Y-88841807D01*
X92753853Y-88648074D01*
X92753853Y-88451926D01*
X92784538Y-88258193D01*
X92845151Y-88071646D01*
X92934200Y-87896877D01*
X93049493Y-87738190D01*
X93188190Y-87599493D01*
X93346877Y-87484200D01*
X93521646Y-87395151D01*
X93708193Y-87334538D01*
X93901926Y-87303853D01*
X94098074Y-87303853D01*
X94291807Y-87334538D01*
G37*
G36*
X97291807Y-81534538D02*
G01*
X97478354Y-81595151D01*
X97653123Y-81684200D01*
X97811810Y-81799493D01*
X97950507Y-81938190D01*
X98065800Y-82096877D01*
X98154849Y-82271646D01*
X98215462Y-82458193D01*
X98246147Y-82651926D01*
X98246147Y-82848074D01*
X98215462Y-83041807D01*
X98154849Y-83228354D01*
X98065800Y-83403123D01*
X97950507Y-83561810D01*
X97811810Y-83700507D01*
X97653123Y-83815800D01*
X97478354Y-83904849D01*
X97291807Y-83965462D01*
X97098074Y-83996147D01*
X96901926Y-83996147D01*
X96708193Y-83965462D01*
X96521646Y-83904849D01*
X96346877Y-83815800D01*
X96188190Y-83700507D01*
X96049493Y-83561810D01*
X95934200Y-83403123D01*
X95845151Y-83228354D01*
X95784538Y-83041807D01*
X95753853Y-82848074D01*
X95753853Y-82651926D01*
X95784538Y-82458193D01*
X95845151Y-82271646D01*
X95934200Y-82096877D01*
X96049493Y-81938190D01*
X96188190Y-81799493D01*
X96346877Y-81684200D01*
X96521646Y-81595151D01*
X96708193Y-81534538D01*
X96901926Y-81503853D01*
X97098074Y-81503853D01*
X97291807Y-81534538D01*
G37*
G36*
X118475000Y-74400000D02*
G01*
X116775000Y-74400000D01*
X116775000Y-72700000D01*
X118475000Y-72700000D01*
X118475000Y-74400000D01*
G37*
G36*
X120411742Y-72736601D02*
G01*
X120565687Y-72800367D01*
X120704234Y-72892941D01*
X120822059Y-73010766D01*
X120914633Y-73149313D01*
X120978399Y-73303258D01*
X121010907Y-73466685D01*
X121010907Y-73633315D01*
X120978399Y-73796742D01*
X120914633Y-73950687D01*
X120822059Y-74089234D01*
X120704234Y-74207059D01*
X120565687Y-74299633D01*
X120411742Y-74363399D01*
X120248315Y-74395907D01*
X120081685Y-74395907D01*
X119918258Y-74363399D01*
X119764313Y-74299633D01*
X119625766Y-74207059D01*
X119507941Y-74089234D01*
X119415367Y-73950687D01*
X119351601Y-73796742D01*
X119319093Y-73633315D01*
X119319093Y-73466685D01*
X119351601Y-73303258D01*
X119415367Y-73149313D01*
X119507941Y-73010766D01*
X119625766Y-72892941D01*
X119764313Y-72800367D01*
X119918258Y-72736601D01*
X120081685Y-72704093D01*
X120248315Y-72704093D01*
X120411742Y-72736601D01*
G37*
G36*
X114050000Y-71000000D02*
G01*
X112350000Y-71000000D01*
X112350000Y-69300000D01*
X114050000Y-69300000D01*
X114050000Y-71000000D01*
G37*
G36*
X100746742Y-69336601D02*
G01*
X100900687Y-69400367D01*
X101039234Y-69492941D01*
X101157059Y-69610766D01*
X101249633Y-69749313D01*
X101313399Y-69903258D01*
X101345907Y-70066685D01*
X101345907Y-70233315D01*
X101313399Y-70396742D01*
X101249633Y-70550687D01*
X101157059Y-70689234D01*
X101039234Y-70807059D01*
X100900687Y-70899633D01*
X100746742Y-70963399D01*
X100583315Y-70995907D01*
X100416685Y-70995907D01*
X100253258Y-70963399D01*
X100099313Y-70899633D01*
X99960766Y-70807059D01*
X99842941Y-70689234D01*
X99750367Y-70550687D01*
X99686601Y-70396742D01*
X99654093Y-70233315D01*
X99654093Y-70066685D01*
X99686601Y-69903258D01*
X99750367Y-69749313D01*
X99842941Y-69610766D01*
X99960766Y-69492941D01*
X100099313Y-69400367D01*
X100253258Y-69336601D01*
X100416685Y-69304093D01*
X100583315Y-69304093D01*
X100746742Y-69336601D01*
G37*
G36*
X103286742Y-69336601D02*
G01*
X103440687Y-69400367D01*
X103579234Y-69492941D01*
X103697059Y-69610766D01*
X103789633Y-69749313D01*
X103853399Y-69903258D01*
X103885907Y-70066685D01*
X103885907Y-70233315D01*
X103853399Y-70396742D01*
X103789633Y-70550687D01*
X103697059Y-70689234D01*
X103579234Y-70807059D01*
X103440687Y-70899633D01*
X103286742Y-70963399D01*
X103123315Y-70995907D01*
X102956685Y-70995907D01*
X102793258Y-70963399D01*
X102639313Y-70899633D01*
X102500766Y-70807059D01*
X102382941Y-70689234D01*
X102290367Y-70550687D01*
X102226601Y-70396742D01*
X102194093Y-70233315D01*
X102194093Y-70066685D01*
X102226601Y-69903258D01*
X102290367Y-69749313D01*
X102382941Y-69610766D01*
X102500766Y-69492941D01*
X102639313Y-69400367D01*
X102793258Y-69336601D01*
X102956685Y-69304093D01*
X103123315Y-69304093D01*
X103286742Y-69336601D01*
G37*
G36*
X105826742Y-69336601D02*
G01*
X105980687Y-69400367D01*
X106119234Y-69492941D01*
X106237059Y-69610766D01*
X106329633Y-69749313D01*
X106393399Y-69903258D01*
X106425907Y-70066685D01*
X106425907Y-70233315D01*
X106393399Y-70396742D01*
X106329633Y-70550687D01*
X106237059Y-70689234D01*
X106119234Y-70807059D01*
X105980687Y-70899633D01*
X105826742Y-70963399D01*
X105663315Y-70995907D01*
X105496685Y-70995907D01*
X105333258Y-70963399D01*
X105179313Y-70899633D01*
X105040766Y-70807059D01*
X104922941Y-70689234D01*
X104830367Y-70550687D01*
X104766601Y-70396742D01*
X104734093Y-70233315D01*
X104734093Y-70066685D01*
X104766601Y-69903258D01*
X104830367Y-69749313D01*
X104922941Y-69610766D01*
X105040766Y-69492941D01*
X105179313Y-69400367D01*
X105333258Y-69336601D01*
X105496685Y-69304093D01*
X105663315Y-69304093D01*
X105826742Y-69336601D01*
G37*
G36*
X108366742Y-69336601D02*
G01*
X108520687Y-69400367D01*
X108659234Y-69492941D01*
X108777059Y-69610766D01*
X108869633Y-69749313D01*
X108933399Y-69903258D01*
X108965907Y-70066685D01*
X108965907Y-70233315D01*
X108933399Y-70396742D01*
X108869633Y-70550687D01*
X108777059Y-70689234D01*
X108659234Y-70807059D01*
X108520687Y-70899633D01*
X108366742Y-70963399D01*
X108203315Y-70995907D01*
X108036685Y-70995907D01*
X107873258Y-70963399D01*
X107719313Y-70899633D01*
X107580766Y-70807059D01*
X107462941Y-70689234D01*
X107370367Y-70550687D01*
X107306601Y-70396742D01*
X107274093Y-70233315D01*
X107274093Y-70066685D01*
X107306601Y-69903258D01*
X107370367Y-69749313D01*
X107462941Y-69610766D01*
X107580766Y-69492941D01*
X107719313Y-69400367D01*
X107873258Y-69336601D01*
X108036685Y-69304093D01*
X108203315Y-69304093D01*
X108366742Y-69336601D01*
G37*
G36*
X110906742Y-69336601D02*
G01*
X111060687Y-69400367D01*
X111199234Y-69492941D01*
X111317059Y-69610766D01*
X111409633Y-69749313D01*
X111473399Y-69903258D01*
X111505907Y-70066685D01*
X111505907Y-70233315D01*
X111473399Y-70396742D01*
X111409633Y-70550687D01*
X111317059Y-70689234D01*
X111199234Y-70807059D01*
X111060687Y-70899633D01*
X110906742Y-70963399D01*
X110743315Y-70995907D01*
X110576685Y-70995907D01*
X110413258Y-70963399D01*
X110259313Y-70899633D01*
X110120766Y-70807059D01*
X110002941Y-70689234D01*
X109910367Y-70550687D01*
X109846601Y-70396742D01*
X109814093Y-70233315D01*
X109814093Y-70066685D01*
X109846601Y-69903258D01*
X109910367Y-69749313D01*
X110002941Y-69610766D01*
X110120766Y-69492941D01*
X110259313Y-69400367D01*
X110413258Y-69336601D01*
X110576685Y-69304093D01*
X110743315Y-69304093D01*
X110906742Y-69336601D01*
G37*
G36*
X119132228Y-69404448D02*
G01*
X119277117Y-69464463D01*
X119407515Y-69551592D01*
X119518408Y-69662485D01*
X119605537Y-69792883D01*
X119665552Y-69937772D01*
X119696148Y-70091586D01*
X119696148Y-70248414D01*
X119665552Y-70402228D01*
X119605537Y-70547117D01*
X119518408Y-70677515D01*
X119407515Y-70788408D01*
X119277117Y-70875537D01*
X119132228Y-70935552D01*
X118978414Y-70966148D01*
X118821586Y-70966148D01*
X118667772Y-70935552D01*
X118522883Y-70875537D01*
X118392485Y-70788408D01*
X118281592Y-70677515D01*
X118194463Y-70547117D01*
X118134448Y-70402228D01*
X118103852Y-70248414D01*
X118103852Y-70091586D01*
X118134448Y-69937772D01*
X118194463Y-69792883D01*
X118281592Y-69662485D01*
X118392485Y-69551592D01*
X118522883Y-69464463D01*
X118667772Y-69404448D01*
X118821586Y-69373852D01*
X118978414Y-69373852D01*
X119132228Y-69404448D01*
G37*
G36*
X70041807Y-61834538D02*
G01*
X70228354Y-61895151D01*
X70403123Y-61984200D01*
X70561810Y-62099493D01*
X70700507Y-62238190D01*
X70815800Y-62396877D01*
X70904849Y-62571646D01*
X70965462Y-62758193D01*
X70996147Y-62951926D01*
X70996147Y-63148074D01*
X70965462Y-63341807D01*
X70904849Y-63528354D01*
X70815800Y-63703123D01*
X70700507Y-63861810D01*
X70561810Y-64000507D01*
X70403123Y-64115800D01*
X70228354Y-64204849D01*
X70041807Y-64265462D01*
X69848074Y-64296147D01*
X69651926Y-64296147D01*
X69458193Y-64265462D01*
X69271646Y-64204849D01*
X69096877Y-64115800D01*
X68938190Y-64000507D01*
X68799493Y-63861810D01*
X68684200Y-63703123D01*
X68595151Y-63528354D01*
X68534538Y-63341807D01*
X68503853Y-63148074D01*
X68503853Y-62951926D01*
X68534538Y-62758193D01*
X68595151Y-62571646D01*
X68684200Y-62396877D01*
X68799493Y-62238190D01*
X68938190Y-62099493D01*
X69096877Y-61984200D01*
X69271646Y-61895151D01*
X69458193Y-61834538D01*
X69651926Y-61803853D01*
X69848074Y-61803853D01*
X70041807Y-61834538D01*
G37*
G36*
X119454116Y-61750818D02*
G01*
X119505379Y-61756766D01*
X119522892Y-61764499D01*
X119545671Y-61769030D01*
X119570057Y-61785324D01*
X119590788Y-61794478D01*
X119604946Y-61808636D01*
X119626777Y-61823223D01*
X119641363Y-61845053D01*
X119655521Y-61859211D01*
X119664673Y-61879939D01*
X119680970Y-61904329D01*
X119685501Y-61927109D01*
X119693233Y-61944620D01*
X119699178Y-61995872D01*
X119700000Y-62000000D01*
X119700000Y-63100000D01*
X119699178Y-63104128D01*
X119693233Y-63155379D01*
X119685501Y-63172888D01*
X119680970Y-63195671D01*
X119664672Y-63220062D01*
X119655521Y-63240788D01*
X119641365Y-63254943D01*
X119626777Y-63276777D01*
X119604943Y-63291365D01*
X119590788Y-63305521D01*
X119570062Y-63314672D01*
X119545671Y-63330970D01*
X119522888Y-63335501D01*
X119505379Y-63343233D01*
X119454129Y-63349178D01*
X119450000Y-63350000D01*
X118350000Y-63350000D01*
X118345873Y-63349179D01*
X118294620Y-63343233D01*
X118277109Y-63335501D01*
X118254329Y-63330970D01*
X118229939Y-63314673D01*
X118209211Y-63305521D01*
X118195053Y-63291363D01*
X118173223Y-63276777D01*
X118158636Y-63254946D01*
X118144478Y-63240788D01*
X118135324Y-63220057D01*
X118119030Y-63195671D01*
X118114499Y-63172892D01*
X118106766Y-63155379D01*
X118100818Y-63104117D01*
X118100000Y-63100000D01*
X118100000Y-62000000D01*
X118100818Y-61995885D01*
X118106766Y-61944620D01*
X118114499Y-61927105D01*
X118119030Y-61904329D01*
X118135323Y-61879944D01*
X118144478Y-61859211D01*
X118158638Y-61845050D01*
X118173223Y-61823223D01*
X118195050Y-61808638D01*
X118209211Y-61794478D01*
X118229944Y-61785323D01*
X118254329Y-61769030D01*
X118277105Y-61764499D01*
X118294620Y-61756766D01*
X118345884Y-61750818D01*
X118350000Y-61750000D01*
X119450000Y-61750000D01*
X119454116Y-61750818D01*
G37*
%LPD*%
M02*
