G04 #@! TF.GenerationSoftware,KiCad,Pcbnew,9.0.4*
G04 #@! TF.CreationDate,2025-09-12T09:59:32-04:00*
G04 #@! TF.ProjectId,SBP_Routing_Board,5342505f-526f-4757-9469-6e675f426f61,rev?*
G04 #@! TF.SameCoordinates,Original*
G04 #@! TF.FileFunction,Copper,L4,Bot*
G04 #@! TF.FilePolarity,Positive*
%FSLAX46Y46*%
G04 Gerber Fmt 4.6, Leading zero omitted, Abs format (unit mm)*
G04 Created by KiCad (PCBNEW 9.0.4) date 2025-09-12 09:59:32*
%MOMM*%
%LPD*%
G01*
G04 APERTURE LIST*
G04 Aperture macros list*
%AMRoundRect*
0 Rectangle with rounded corners*
0 $1 Rounding radius*
0 $2 $3 $4 $5 $6 $7 $8 $9 X,Y pos of 4 corners*
0 Add a 4 corners polygon primitive as box body*
4,1,4,$2,$3,$4,$5,$6,$7,$8,$9,$2,$3,0*
0 Add four circle primitives for the rounded corners*
1,1,$1+$1,$2,$3*
1,1,$1+$1,$4,$5*
1,1,$1+$1,$6,$7*
1,1,$1+$1,$8,$9*
0 Add four rect primitives between the rounded corners*
20,1,$1+$1,$2,$3,$4,$5,0*
20,1,$1+$1,$4,$5,$6,$7,0*
20,1,$1+$1,$6,$7,$8,$9,0*
20,1,$1+$1,$8,$9,$2,$3,0*%
G04 Aperture macros list end*
G04 #@! TA.AperFunction,ComponentPad*
%ADD10R,1.700000X1.700000*%
G04 #@! TD*
G04 #@! TA.AperFunction,ComponentPad*
%ADD11C,1.700000*%
G04 #@! TD*
G04 #@! TA.AperFunction,ComponentPad*
%ADD12RoundRect,0.250000X-0.550000X0.550000X-0.550000X-0.550000X0.550000X-0.550000X0.550000X0.550000X0*%
G04 #@! TD*
G04 #@! TA.AperFunction,ComponentPad*
%ADD13C,1.600000*%
G04 #@! TD*
G04 #@! TA.AperFunction,ComponentPad*
%ADD14C,2.500000*%
G04 #@! TD*
G04 #@! TA.AperFunction,ViaPad*
%ADD15C,0.700000*%
G04 #@! TD*
G04 #@! TA.AperFunction,ViaPad*
%ADD16C,0.600000*%
G04 #@! TD*
G04 #@! TA.AperFunction,Conductor*
%ADD17C,0.400000*%
G04 #@! TD*
G04 #@! TA.AperFunction,Conductor*
%ADD18C,0.200000*%
G04 #@! TD*
G04 APERTURE END LIST*
D10*
X103840000Y-122200000D03*
D11*
X101300000Y-122200000D03*
X98760000Y-122200000D03*
X96220000Y-122200000D03*
X93680000Y-122200000D03*
X91140000Y-122200000D03*
X88600000Y-122200000D03*
X86060000Y-122200000D03*
D12*
X118900000Y-62550000D03*
D13*
X118900000Y-70170000D03*
D10*
X72400000Y-106750000D03*
D11*
X74940000Y-106750000D03*
X72400000Y-109290000D03*
X74940000Y-109290000D03*
X72400000Y-111830000D03*
X74940000Y-111830000D03*
X72400000Y-114370000D03*
X74940000Y-114370000D03*
X72400000Y-116910000D03*
X74940000Y-116910000D03*
X72400000Y-119450000D03*
X74940000Y-119450000D03*
X72400000Y-121990000D03*
X74940000Y-121990000D03*
X72400000Y-124530000D03*
X74940000Y-124530000D03*
X72400000Y-127070000D03*
X74940000Y-127070000D03*
X72400000Y-129610000D03*
X74940000Y-129610000D03*
D10*
X72400000Y-98210000D03*
D11*
X74940000Y-98210000D03*
X77480000Y-98210000D03*
X80020000Y-98210000D03*
X82560000Y-98210000D03*
X85100000Y-98210000D03*
D10*
X117625000Y-73550000D03*
D11*
X120165000Y-73550000D03*
D14*
X97000000Y-82750000D03*
X90600000Y-94650000D03*
D10*
X115580000Y-106750000D03*
D11*
X118120000Y-106750000D03*
X115580000Y-109290000D03*
X118120000Y-109290000D03*
X115580000Y-111830000D03*
X118120000Y-111830000D03*
X115580000Y-114370000D03*
X118120000Y-114370000D03*
X115580000Y-116910000D03*
X118120000Y-116910000D03*
X115580000Y-119450000D03*
X118120000Y-119450000D03*
X115580000Y-121990000D03*
X118120000Y-121990000D03*
X115580000Y-124530000D03*
X118120000Y-124530000D03*
X115580000Y-127070000D03*
X118120000Y-127070000D03*
X115580000Y-129610000D03*
X118120000Y-129610000D03*
D10*
X113200000Y-70150000D03*
D11*
X110660000Y-70150000D03*
X108120000Y-70150000D03*
X105580000Y-70150000D03*
X103040000Y-70150000D03*
X100500000Y-70150000D03*
D14*
X94000000Y-88550000D03*
D15*
X84600000Y-114700000D03*
D16*
X81500000Y-101150000D03*
D15*
X91500000Y-116600000D03*
X109550000Y-114400000D03*
X109600000Y-116400000D03*
D16*
X79050000Y-132100000D03*
X101100000Y-92450000D03*
X106500000Y-103650000D03*
X95200000Y-103750000D03*
X112100000Y-121350000D03*
X101200000Y-104550000D03*
X112100000Y-125750000D03*
X101000000Y-117550000D03*
X84100000Y-103850000D03*
X103800000Y-101950000D03*
X92800000Y-101950000D03*
X95100000Y-94750000D03*
D17*
X84600000Y-114700000D02*
X85500000Y-115600000D01*
X85500000Y-115650000D02*
X83200000Y-115650000D01*
X85500000Y-115600000D02*
X85500000Y-115650000D01*
D18*
X79050000Y-132100000D02*
X88950000Y-122200000D01*
D17*
X80600000Y-102050000D02*
X81500000Y-101150000D01*
X103900000Y-122200000D02*
X104190000Y-122200000D01*
X78100000Y-106850000D02*
X80600000Y-104350000D01*
X83200000Y-115650000D02*
X78100000Y-110550000D01*
X86350000Y-115650000D02*
X85500000Y-115650000D01*
X80600000Y-104350000D02*
X80600000Y-102050000D01*
X78100000Y-110550000D02*
X78100000Y-106850000D01*
X86350000Y-115650000D02*
X97350000Y-115650000D01*
X97350000Y-115650000D02*
X103900000Y-122200000D01*
D18*
X69400000Y-102750000D02*
X69400000Y-117652081D01*
X74940000Y-101510000D02*
X73700000Y-102750000D01*
X69400000Y-117652081D02*
X71197919Y-119450000D01*
X74940000Y-98210000D02*
X74940000Y-101510000D01*
X71197919Y-119450000D02*
X72400000Y-119450000D01*
X73700000Y-102750000D02*
X69400000Y-102750000D01*
X76100000Y-103450000D02*
X70100000Y-103450000D01*
X70100000Y-103450000D02*
X70100000Y-114610000D01*
X77480000Y-102070000D02*
X76100000Y-103450000D01*
X77480000Y-98210000D02*
X77480000Y-102070000D01*
X70100000Y-114610000D02*
X72400000Y-116910000D01*
X69600000Y-95650000D02*
X68600000Y-96650000D01*
X85100000Y-95850000D02*
X84900000Y-95650000D01*
X68600000Y-123270000D02*
X72400000Y-127070000D01*
X85100000Y-98210000D02*
X85100000Y-95850000D01*
X68600000Y-96650000D02*
X68600000Y-123270000D01*
X84900000Y-95650000D02*
X69600000Y-95650000D01*
X86410000Y-122200000D02*
X81540000Y-127070000D01*
X81540000Y-127070000D02*
X74940000Y-127070000D01*
X92577807Y-120747807D02*
X92577807Y-118050000D01*
X77820000Y-114370000D02*
X81500000Y-118050000D01*
X74940000Y-114370000D02*
X77820000Y-114370000D01*
X81500000Y-118050000D02*
X92577807Y-118050000D01*
X94030000Y-122200000D02*
X92577807Y-120747807D01*
X77780000Y-111830000D02*
X82400000Y-116450000D01*
X91350000Y-116450000D02*
X91500000Y-116600000D01*
X74940000Y-111830000D02*
X77780000Y-111830000D01*
X82400000Y-116450000D02*
X91350000Y-116450000D01*
X109550000Y-114400000D02*
X109600000Y-114450000D01*
X109600000Y-114450000D02*
X109600000Y-116400000D01*
X101100000Y-92450000D02*
X114200000Y-92450000D01*
X120800000Y-99050000D02*
X120800000Y-122050000D01*
X114200000Y-92450000D02*
X120800000Y-99050000D01*
X120540000Y-121990000D02*
X118120000Y-121990000D01*
X120800000Y-122050000D02*
X120700000Y-122150000D01*
X120700000Y-122150000D02*
X120540000Y-121990000D01*
X111000000Y-105250000D02*
X109400000Y-103650000D01*
X113500000Y-124050000D02*
X113500000Y-107750000D01*
X113500000Y-107750000D02*
X111000000Y-105250000D01*
X115580000Y-124530000D02*
X113980000Y-124530000D01*
X109400000Y-103650000D02*
X106500000Y-103650000D01*
X113980000Y-124530000D02*
X113500000Y-124050000D01*
X100300000Y-103750000D02*
X95200000Y-103750000D01*
X115580000Y-127070000D02*
X100300000Y-111790000D01*
X100300000Y-111790000D02*
X100300000Y-103750000D01*
X112200000Y-131650000D02*
X112200000Y-125850000D01*
X101200000Y-110950000D02*
X101200000Y-104550000D01*
X120700000Y-127029999D02*
X120700000Y-131750000D01*
X112300000Y-131750000D02*
X112200000Y-131650000D01*
X120659999Y-127070000D02*
X120732227Y-126997772D01*
X111600000Y-121350000D02*
X101200000Y-110950000D01*
X120700000Y-131750000D02*
X112300000Y-131750000D01*
X112100000Y-121350000D02*
X111600000Y-121350000D01*
X112200000Y-125850000D02*
X112100000Y-125750000D01*
X120732227Y-126997772D02*
X120700000Y-127029999D01*
X118120000Y-127070000D02*
X120659999Y-127070000D01*
X84300000Y-103650000D02*
X84100000Y-103850000D01*
X89800000Y-103650000D02*
X84300000Y-103650000D01*
X89900000Y-103750000D02*
X89800000Y-103650000D01*
X89900000Y-114050000D02*
X89900000Y-103750000D01*
X101000000Y-117550000D02*
X97500000Y-114050000D01*
X97500000Y-114050000D02*
X89900000Y-114050000D01*
X93600000Y-94250000D02*
X93600000Y-95150000D01*
X93600000Y-95150000D02*
X93600000Y-101850000D01*
X101100000Y-83550000D02*
X98000000Y-86650000D01*
X110660000Y-73890000D02*
X110600000Y-73950000D01*
X97900000Y-89950000D02*
X93600000Y-94250000D01*
X98000000Y-86650000D02*
X97900000Y-86750000D01*
X97900000Y-86750000D02*
X97900000Y-89950000D01*
X101100000Y-83450000D02*
X101100000Y-83550000D01*
X93600000Y-101850000D02*
X93700000Y-101950000D01*
X110660000Y-70150000D02*
X110660000Y-73890000D01*
X110600000Y-73950000D02*
X109000000Y-73950000D01*
X103800000Y-101950000D02*
X103800000Y-102050000D01*
X109000000Y-73950000D02*
X101100000Y-81850000D01*
X93700000Y-101950000D02*
X103800000Y-101950000D01*
X101100000Y-81850000D02*
X101100000Y-83450000D01*
X100100000Y-83350000D02*
X100100000Y-81450000D01*
X100100000Y-81450000D02*
X108120000Y-73430000D01*
X97200000Y-89450000D02*
X97200000Y-86250000D01*
X92800000Y-93850000D02*
X97200000Y-89450000D01*
X92800000Y-101950000D02*
X92800000Y-93850000D01*
X97200000Y-86250000D02*
X100100000Y-83350000D01*
X108120000Y-73430000D02*
X108120000Y-70150000D01*
X99000000Y-90850000D02*
X95100000Y-94750000D01*
X98900000Y-90750000D02*
X99000000Y-90850000D01*
X113000000Y-74950000D02*
X109500000Y-74950000D01*
X102300000Y-84350000D02*
X102200000Y-84450000D01*
X113200000Y-74750000D02*
X113000000Y-74950000D01*
X109500000Y-74950000D02*
X109300000Y-75150000D01*
X98900000Y-87650000D02*
X98900000Y-90750000D01*
X109300000Y-75150000D02*
X102300000Y-82150000D01*
X113200000Y-70150000D02*
X113200000Y-74750000D01*
X102300000Y-82250000D02*
X102300000Y-84350000D01*
X102300000Y-82150000D02*
X102300000Y-82250000D01*
X99000000Y-87650000D02*
X98900000Y-87650000D01*
X102200000Y-84450000D02*
X99000000Y-87650000D01*
G04 #@! TA.AperFunction,Conductor*
G36*
X97075520Y-116370185D02*
G01*
X97096162Y-116386819D01*
X101347662Y-120638319D01*
X101381147Y-120699642D01*
X101376163Y-120769334D01*
X101334291Y-120825267D01*
X101268827Y-120849684D01*
X101259981Y-120850000D01*
X101193754Y-120850000D01*
X100983872Y-120883242D01*
X100983869Y-120883242D01*
X100781782Y-120948904D01*
X100592439Y-121045380D01*
X100538282Y-121084727D01*
X100538282Y-121084728D01*
X101170591Y-121717037D01*
X101107007Y-121734075D01*
X100992993Y-121799901D01*
X100899901Y-121892993D01*
X100834075Y-122007007D01*
X100817037Y-122070591D01*
X100184728Y-121438282D01*
X100184727Y-121438282D01*
X100145380Y-121492440D01*
X100145376Y-121492446D01*
X100140760Y-121501505D01*
X100092781Y-121552297D01*
X100024959Y-121569087D01*
X99958826Y-121546543D01*
X99919794Y-121501493D01*
X99915051Y-121492184D01*
X99915049Y-121492181D01*
X99915048Y-121492179D01*
X99790109Y-121320213D01*
X99639786Y-121169890D01*
X99467820Y-121044951D01*
X99278414Y-120948444D01*
X99278413Y-120948443D01*
X99278412Y-120948443D01*
X99076243Y-120882754D01*
X99076241Y-120882753D01*
X99076240Y-120882753D01*
X98914957Y-120857208D01*
X98866287Y-120849500D01*
X98653713Y-120849500D01*
X98605042Y-120857208D01*
X98443760Y-120882753D01*
X98241585Y-120948444D01*
X98052179Y-121044951D01*
X97880213Y-121169890D01*
X97729890Y-121320213D01*
X97604949Y-121492182D01*
X97600484Y-121500946D01*
X97552509Y-121551742D01*
X97484688Y-121568536D01*
X97418553Y-121545998D01*
X97379516Y-121500946D01*
X97375050Y-121492182D01*
X97250109Y-121320213D01*
X97099786Y-121169890D01*
X96927820Y-121044951D01*
X96738414Y-120948444D01*
X96738413Y-120948443D01*
X96738412Y-120948443D01*
X96536243Y-120882754D01*
X96536241Y-120882753D01*
X96536240Y-120882753D01*
X96374957Y-120857208D01*
X96326287Y-120849500D01*
X96113713Y-120849500D01*
X96065042Y-120857208D01*
X95903760Y-120882753D01*
X95701585Y-120948444D01*
X95512179Y-121044951D01*
X95340213Y-121169890D01*
X95189890Y-121320213D01*
X95064949Y-121492182D01*
X95060484Y-121500946D01*
X95012509Y-121551742D01*
X94944688Y-121568536D01*
X94878553Y-121545998D01*
X94839516Y-121500946D01*
X94835050Y-121492182D01*
X94710109Y-121320213D01*
X94559786Y-121169890D01*
X94387820Y-121044951D01*
X94198414Y-120948444D01*
X94198413Y-120948443D01*
X94198412Y-120948443D01*
X93996243Y-120882754D01*
X93996241Y-120882753D01*
X93996240Y-120882753D01*
X93834957Y-120857208D01*
X93786287Y-120849500D01*
X93580097Y-120849500D01*
X93513058Y-120829815D01*
X93492416Y-120813181D01*
X93214626Y-120535391D01*
X93181141Y-120474068D01*
X93178307Y-120447710D01*
X93178307Y-117970945D01*
X93178307Y-117970943D01*
X93137384Y-117818216D01*
X93120970Y-117789786D01*
X93058331Y-117681290D01*
X93058325Y-117681282D01*
X92946524Y-117569481D01*
X92946516Y-117569475D01*
X92809597Y-117490426D01*
X92809593Y-117490424D01*
X92809591Y-117490423D01*
X92656864Y-117449500D01*
X92656863Y-117449500D01*
X92152651Y-117449500D01*
X92085612Y-117429815D01*
X92039857Y-117377011D01*
X92029913Y-117307853D01*
X92058938Y-117244297D01*
X92064970Y-117237819D01*
X92160623Y-117142165D01*
X92160626Y-117142162D01*
X92194355Y-117091683D01*
X92253703Y-117002863D01*
X92317816Y-116848082D01*
X92350500Y-116683767D01*
X92350500Y-116516233D01*
X92347011Y-116498692D01*
X92353238Y-116429100D01*
X92396100Y-116373923D01*
X92461990Y-116350678D01*
X92468628Y-116350500D01*
X97008481Y-116350500D01*
X97075520Y-116370185D01*
G37*
G04 #@! TD.AperFunction*
G04 #@! TA.AperFunction,Conductor*
G36*
X74474075Y-109482993D02*
G01*
X74539901Y-109597007D01*
X74632993Y-109690099D01*
X74747007Y-109755925D01*
X74810590Y-109772962D01*
X74178282Y-110405269D01*
X74178282Y-110405270D01*
X74232452Y-110444626D01*
X74232451Y-110444626D01*
X74241495Y-110449234D01*
X74292292Y-110497208D01*
X74309087Y-110565029D01*
X74286550Y-110631164D01*
X74241499Y-110670202D01*
X74232182Y-110674949D01*
X74060213Y-110799890D01*
X73909890Y-110950213D01*
X73784949Y-111122182D01*
X73780484Y-111130946D01*
X73732509Y-111181742D01*
X73664688Y-111198536D01*
X73598553Y-111175998D01*
X73559516Y-111130946D01*
X73555050Y-111122182D01*
X73430109Y-110950213D01*
X73279786Y-110799890D01*
X73107820Y-110674951D01*
X73107115Y-110674591D01*
X73099054Y-110670485D01*
X73048259Y-110622512D01*
X73031463Y-110554692D01*
X73053999Y-110488556D01*
X73099054Y-110449515D01*
X73107816Y-110445051D01*
X73162572Y-110405269D01*
X73279786Y-110320109D01*
X73279788Y-110320106D01*
X73279792Y-110320104D01*
X73430104Y-110169792D01*
X73430106Y-110169788D01*
X73430109Y-110169786D01*
X73515890Y-110051717D01*
X73555051Y-109997816D01*
X73559793Y-109988508D01*
X73607763Y-109937711D01*
X73675583Y-109920911D01*
X73741719Y-109943445D01*
X73780763Y-109988500D01*
X73785373Y-109997547D01*
X73824728Y-110051716D01*
X74457037Y-109419408D01*
X74474075Y-109482993D01*
G37*
G04 #@! TD.AperFunction*
G04 #@! TA.AperFunction,Conductor*
G36*
X73918418Y-107645417D02*
G01*
X73946673Y-107666569D01*
X74060213Y-107780109D01*
X74232179Y-107905048D01*
X74232181Y-107905049D01*
X74232184Y-107905051D01*
X74241493Y-107909794D01*
X74292290Y-107957766D01*
X74309087Y-108025587D01*
X74286552Y-108091722D01*
X74241505Y-108130760D01*
X74232446Y-108135376D01*
X74232440Y-108135380D01*
X74178282Y-108174727D01*
X74178282Y-108174728D01*
X74810591Y-108807037D01*
X74747007Y-108824075D01*
X74632993Y-108889901D01*
X74539901Y-108982993D01*
X74474075Y-109097007D01*
X74457037Y-109160591D01*
X73824728Y-108528282D01*
X73824727Y-108528282D01*
X73785380Y-108582440D01*
X73785376Y-108582446D01*
X73780760Y-108591505D01*
X73732781Y-108642297D01*
X73664959Y-108659087D01*
X73598826Y-108636543D01*
X73559794Y-108591493D01*
X73555051Y-108582184D01*
X73555049Y-108582181D01*
X73555048Y-108582179D01*
X73430109Y-108410213D01*
X73316569Y-108296673D01*
X73283084Y-108235350D01*
X73288068Y-108165658D01*
X73329940Y-108109725D01*
X73360915Y-108092810D01*
X73492331Y-108043796D01*
X73607546Y-107957546D01*
X73693796Y-107842331D01*
X73742810Y-107710916D01*
X73784681Y-107654984D01*
X73850145Y-107630566D01*
X73918418Y-107645417D01*
G37*
G04 #@! TD.AperFunction*
G04 #@! TA.AperFunction,Conductor*
G36*
X84442539Y-96270185D02*
G01*
X84488294Y-96322989D01*
X84499500Y-96374500D01*
X84499500Y-96924281D01*
X84479815Y-96991320D01*
X84431795Y-97034765D01*
X84392185Y-97054947D01*
X84392184Y-97054948D01*
X84220213Y-97179890D01*
X84069890Y-97330213D01*
X83944949Y-97502182D01*
X83940484Y-97510946D01*
X83892509Y-97561742D01*
X83824688Y-97578536D01*
X83758553Y-97555998D01*
X83719516Y-97510946D01*
X83715050Y-97502182D01*
X83590109Y-97330213D01*
X83439786Y-97179890D01*
X83267820Y-97054951D01*
X83078414Y-96958444D01*
X83078413Y-96958443D01*
X83078412Y-96958443D01*
X82876243Y-96892754D01*
X82876241Y-96892753D01*
X82876240Y-96892753D01*
X82714957Y-96867208D01*
X82666287Y-96859500D01*
X82453713Y-96859500D01*
X82405042Y-96867208D01*
X82243760Y-96892753D01*
X82041585Y-96958444D01*
X81852179Y-97054951D01*
X81680213Y-97179890D01*
X81529890Y-97330213D01*
X81404949Y-97502182D01*
X81400202Y-97511499D01*
X81352227Y-97562293D01*
X81284405Y-97579087D01*
X81218271Y-97556548D01*
X81179234Y-97511495D01*
X81174626Y-97502452D01*
X81135270Y-97448282D01*
X81135269Y-97448282D01*
X80502962Y-98080590D01*
X80485925Y-98017007D01*
X80420099Y-97902993D01*
X80327007Y-97809901D01*
X80212993Y-97744075D01*
X80149409Y-97727037D01*
X80781716Y-97094728D01*
X80727550Y-97055375D01*
X80538217Y-96958904D01*
X80336129Y-96893242D01*
X80126246Y-96860000D01*
X79913754Y-96860000D01*
X79703872Y-96893242D01*
X79703869Y-96893242D01*
X79501782Y-96958904D01*
X79312439Y-97055380D01*
X79258282Y-97094727D01*
X79258282Y-97094728D01*
X79890591Y-97727037D01*
X79827007Y-97744075D01*
X79712993Y-97809901D01*
X79619901Y-97902993D01*
X79554075Y-98017007D01*
X79537037Y-98080591D01*
X78904728Y-97448282D01*
X78904727Y-97448282D01*
X78865380Y-97502440D01*
X78865376Y-97502446D01*
X78860760Y-97511505D01*
X78812781Y-97562297D01*
X78744959Y-97579087D01*
X78678826Y-97556543D01*
X78639794Y-97511493D01*
X78635051Y-97502184D01*
X78635049Y-97502181D01*
X78635048Y-97502179D01*
X78510109Y-97330213D01*
X78359786Y-97179890D01*
X78187820Y-97054951D01*
X77998414Y-96958444D01*
X77998413Y-96958443D01*
X77998412Y-96958443D01*
X77796243Y-96892754D01*
X77796241Y-96892753D01*
X77796240Y-96892753D01*
X77634957Y-96867208D01*
X77586287Y-96859500D01*
X77373713Y-96859500D01*
X77325042Y-96867208D01*
X77163760Y-96892753D01*
X76961585Y-96958444D01*
X76772179Y-97054951D01*
X76600213Y-97179890D01*
X76449890Y-97330213D01*
X76324949Y-97502182D01*
X76320484Y-97510946D01*
X76272509Y-97561742D01*
X76204688Y-97578536D01*
X76138553Y-97555998D01*
X76099516Y-97510946D01*
X76095050Y-97502182D01*
X75970109Y-97330213D01*
X75819786Y-97179890D01*
X75647820Y-97054951D01*
X75458414Y-96958444D01*
X75458413Y-96958443D01*
X75458412Y-96958443D01*
X75256243Y-96892754D01*
X75256241Y-96892753D01*
X75256240Y-96892753D01*
X75094957Y-96867208D01*
X75046287Y-96859500D01*
X74833713Y-96859500D01*
X74785042Y-96867208D01*
X74623760Y-96892753D01*
X74421585Y-96958444D01*
X74232179Y-97054951D01*
X74060215Y-97179889D01*
X73946673Y-97293431D01*
X73885350Y-97326915D01*
X73815658Y-97321931D01*
X73759725Y-97280059D01*
X73742810Y-97249082D01*
X73693797Y-97117671D01*
X73693793Y-97117664D01*
X73607547Y-97002455D01*
X73607544Y-97002452D01*
X73492335Y-96916206D01*
X73492328Y-96916202D01*
X73357482Y-96865908D01*
X73357483Y-96865908D01*
X73297883Y-96859501D01*
X73297881Y-96859500D01*
X73297873Y-96859500D01*
X73297864Y-96859500D01*
X71502129Y-96859500D01*
X71502123Y-96859501D01*
X71442516Y-96865908D01*
X71307671Y-96916202D01*
X71307664Y-96916206D01*
X71192455Y-97002452D01*
X71192452Y-97002455D01*
X71106206Y-97117664D01*
X71106202Y-97117671D01*
X71055908Y-97252517D01*
X71049501Y-97312116D01*
X71049500Y-97312135D01*
X71049500Y-99107870D01*
X71049501Y-99107876D01*
X71055908Y-99167483D01*
X71106202Y-99302328D01*
X71106206Y-99302335D01*
X71192452Y-99417544D01*
X71192455Y-99417547D01*
X71307664Y-99503793D01*
X71307671Y-99503797D01*
X71442517Y-99554091D01*
X71442516Y-99554091D01*
X71449444Y-99554835D01*
X71502127Y-99560500D01*
X73297872Y-99560499D01*
X73357483Y-99554091D01*
X73492331Y-99503796D01*
X73607546Y-99417546D01*
X73693796Y-99302331D01*
X73742810Y-99170916D01*
X73784681Y-99114984D01*
X73850145Y-99090566D01*
X73918418Y-99105417D01*
X73946673Y-99126569D01*
X74060213Y-99240109D01*
X74232184Y-99365051D01*
X74232184Y-99365052D01*
X74271793Y-99385233D01*
X74322590Y-99433206D01*
X74339500Y-99495718D01*
X74339500Y-101209903D01*
X74319815Y-101276942D01*
X74303181Y-101297584D01*
X73487584Y-102113181D01*
X73426261Y-102146666D01*
X73399903Y-102149500D01*
X69324500Y-102149500D01*
X69257461Y-102129815D01*
X69211706Y-102077011D01*
X69200500Y-102025500D01*
X69200500Y-96950097D01*
X69220185Y-96883058D01*
X69236819Y-96862416D01*
X69812417Y-96286819D01*
X69873740Y-96253334D01*
X69900098Y-96250500D01*
X84375500Y-96250500D01*
X84442539Y-96270185D01*
G37*
G04 #@! TD.AperFunction*
G04 #@! TA.AperFunction,Conductor*
G36*
X117654075Y-106942993D02*
G01*
X117719901Y-107057007D01*
X117812993Y-107150099D01*
X117927007Y-107215925D01*
X117990590Y-107232962D01*
X117358282Y-107865269D01*
X117358282Y-107865270D01*
X117412452Y-107904626D01*
X117412451Y-107904626D01*
X117421495Y-107909234D01*
X117472292Y-107957208D01*
X117489087Y-108025029D01*
X117466550Y-108091164D01*
X117421499Y-108130202D01*
X117412182Y-108134949D01*
X117240213Y-108259890D01*
X117089890Y-108410213D01*
X116964949Y-108582182D01*
X116960484Y-108590946D01*
X116912509Y-108641742D01*
X116844688Y-108658536D01*
X116778553Y-108635998D01*
X116739516Y-108590946D01*
X116735050Y-108582182D01*
X116610109Y-108410213D01*
X116496569Y-108296673D01*
X116463084Y-108235350D01*
X116468068Y-108165658D01*
X116509940Y-108109725D01*
X116540915Y-108092810D01*
X116672331Y-108043796D01*
X116787546Y-107957546D01*
X116873796Y-107842331D01*
X116924091Y-107707483D01*
X116930500Y-107647873D01*
X116930499Y-107637312D01*
X116950179Y-107570275D01*
X116966818Y-107549626D01*
X117637037Y-106879408D01*
X117654075Y-106942993D01*
G37*
G04 #@! TD.AperFunction*
G04 #@! TA.AperFunction,Conductor*
G36*
X122842539Y-60270185D02*
G01*
X122888294Y-60322989D01*
X122899500Y-60374500D01*
X122899500Y-144375500D01*
X122879815Y-144442539D01*
X122827011Y-144488294D01*
X122775500Y-144499500D01*
X67124500Y-144499500D01*
X67057461Y-144479815D01*
X67011706Y-144427011D01*
X67000500Y-144375500D01*
X67000500Y-141581902D01*
X68249500Y-141581902D01*
X68249500Y-141818097D01*
X68286446Y-142051368D01*
X68359433Y-142275996D01*
X68466657Y-142486433D01*
X68605483Y-142677510D01*
X68772490Y-142844517D01*
X68963567Y-142983343D01*
X69062991Y-143034002D01*
X69174003Y-143090566D01*
X69174005Y-143090566D01*
X69174008Y-143090568D01*
X69294412Y-143129689D01*
X69398631Y-143163553D01*
X69631903Y-143200500D01*
X69631908Y-143200500D01*
X69868097Y-143200500D01*
X70101368Y-143163553D01*
X70325992Y-143090568D01*
X70536433Y-142983343D01*
X70727510Y-142844517D01*
X70894517Y-142677510D01*
X71033343Y-142486433D01*
X71140568Y-142275992D01*
X71213553Y-142051368D01*
X71250500Y-141818097D01*
X71250500Y-141581902D01*
X118599500Y-141581902D01*
X118599500Y-141818097D01*
X118636446Y-142051368D01*
X118709433Y-142275996D01*
X118816657Y-142486433D01*
X118955483Y-142677510D01*
X119122490Y-142844517D01*
X119313567Y-142983343D01*
X119412991Y-143034002D01*
X119524003Y-143090566D01*
X119524005Y-143090566D01*
X119524008Y-143090568D01*
X119644412Y-143129689D01*
X119748631Y-143163553D01*
X119981903Y-143200500D01*
X119981908Y-143200500D01*
X120218097Y-143200500D01*
X120451368Y-143163553D01*
X120675992Y-143090568D01*
X120886433Y-142983343D01*
X121077510Y-142844517D01*
X121244517Y-142677510D01*
X121383343Y-142486433D01*
X121490568Y-142275992D01*
X121563553Y-142051368D01*
X121600500Y-141818097D01*
X121600500Y-141581902D01*
X121563553Y-141348631D01*
X121490566Y-141124003D01*
X121383342Y-140913566D01*
X121244517Y-140722490D01*
X121077510Y-140555483D01*
X120886433Y-140416657D01*
X120846953Y-140396541D01*
X120675996Y-140309433D01*
X120451368Y-140236446D01*
X120218097Y-140199500D01*
X120218092Y-140199500D01*
X119981908Y-140199500D01*
X119981903Y-140199500D01*
X119748631Y-140236446D01*
X119524003Y-140309433D01*
X119313566Y-140416657D01*
X119206961Y-140494111D01*
X119122490Y-140555483D01*
X119122488Y-140555485D01*
X119122487Y-140555485D01*
X118955485Y-140722487D01*
X118955485Y-140722488D01*
X118955483Y-140722490D01*
X118895862Y-140804550D01*
X118816657Y-140913566D01*
X118709433Y-141124003D01*
X118636446Y-141348631D01*
X118599500Y-141581902D01*
X71250500Y-141581902D01*
X71213553Y-141348631D01*
X71140566Y-141124003D01*
X71033342Y-140913566D01*
X70894517Y-140722490D01*
X70727510Y-140555483D01*
X70536433Y-140416657D01*
X70496953Y-140396541D01*
X70325996Y-140309433D01*
X70101368Y-140236446D01*
X69868097Y-140199500D01*
X69868092Y-140199500D01*
X69631908Y-140199500D01*
X69631903Y-140199500D01*
X69398631Y-140236446D01*
X69174003Y-140309433D01*
X68963566Y-140416657D01*
X68856961Y-140494111D01*
X68772490Y-140555483D01*
X68772488Y-140555485D01*
X68772487Y-140555485D01*
X68605485Y-140722487D01*
X68605485Y-140722488D01*
X68605483Y-140722490D01*
X68545862Y-140804550D01*
X68466657Y-140913566D01*
X68359433Y-141124003D01*
X68286446Y-141348631D01*
X68249500Y-141581902D01*
X67000500Y-141581902D01*
X67000500Y-140018995D01*
X76949499Y-140018995D01*
X76976418Y-140154322D01*
X76976421Y-140154332D01*
X77029221Y-140281804D01*
X77029228Y-140281817D01*
X77105885Y-140396541D01*
X77105888Y-140396545D01*
X77203454Y-140494111D01*
X77203458Y-140494114D01*
X77318182Y-140570771D01*
X77318195Y-140570778D01*
X77445667Y-140623578D01*
X77445672Y-140623580D01*
X77445676Y-140623580D01*
X77445677Y-140623581D01*
X77581004Y-140650500D01*
X77581007Y-140650500D01*
X77718995Y-140650500D01*
X77810041Y-140632389D01*
X77854328Y-140623580D01*
X77981811Y-140570775D01*
X78096542Y-140494114D01*
X78194114Y-140396542D01*
X78270775Y-140281811D01*
X78323580Y-140154328D01*
X78350500Y-140018995D01*
X83749499Y-140018995D01*
X83776418Y-140154322D01*
X83776421Y-140154332D01*
X83829221Y-140281804D01*
X83829228Y-140281817D01*
X83905885Y-140396541D01*
X83905888Y-140396545D01*
X84003454Y-140494111D01*
X84003458Y-140494114D01*
X84118182Y-140570771D01*
X84118195Y-140570778D01*
X84245667Y-140623578D01*
X84245672Y-140623580D01*
X84245676Y-140623580D01*
X84245677Y-140623581D01*
X84381004Y-140650500D01*
X84381007Y-140650500D01*
X84518995Y-140650500D01*
X84610041Y-140632389D01*
X84654328Y-140623580D01*
X84781811Y-140570775D01*
X84896542Y-140494114D01*
X84994114Y-140396542D01*
X85070775Y-140281811D01*
X85123580Y-140154328D01*
X85150500Y-140018993D01*
X85150500Y-139881007D01*
X85150500Y-139881004D01*
X85123581Y-139745677D01*
X85123580Y-139745676D01*
X85123580Y-139745672D01*
X85123578Y-139745667D01*
X85070778Y-139618195D01*
X85070771Y-139618182D01*
X84994114Y-139503458D01*
X84994111Y-139503454D01*
X84896545Y-139405888D01*
X84896541Y-139405885D01*
X84781817Y-139329228D01*
X84781804Y-139329221D01*
X84654332Y-139276421D01*
X84654322Y-139276418D01*
X84518995Y-139249500D01*
X84518993Y-139249500D01*
X84381007Y-139249500D01*
X84381005Y-139249500D01*
X84245677Y-139276418D01*
X84245667Y-139276421D01*
X84118195Y-139329221D01*
X84118182Y-139329228D01*
X84003458Y-139405885D01*
X84003454Y-139405888D01*
X83905888Y-139503454D01*
X83905885Y-139503458D01*
X83829228Y-139618182D01*
X83829221Y-139618195D01*
X83776421Y-139745667D01*
X83776418Y-139745677D01*
X83749500Y-139881004D01*
X83749500Y-139881007D01*
X83749500Y-140018993D01*
X83749500Y-140018995D01*
X83749499Y-140018995D01*
X78350500Y-140018995D01*
X78350500Y-140018993D01*
X78350500Y-139881007D01*
X78350500Y-139881004D01*
X78323581Y-139745677D01*
X78323580Y-139745676D01*
X78323580Y-139745672D01*
X78323578Y-139745667D01*
X78270778Y-139618195D01*
X78270771Y-139618182D01*
X78194114Y-139503458D01*
X78194111Y-139503454D01*
X78096545Y-139405888D01*
X78096541Y-139405885D01*
X77981817Y-139329228D01*
X77981804Y-139329221D01*
X77854332Y-139276421D01*
X77854322Y-139276418D01*
X77718995Y-139249500D01*
X77718993Y-139249500D01*
X77581007Y-139249500D01*
X77581005Y-139249500D01*
X77445677Y-139276418D01*
X77445667Y-139276421D01*
X77318195Y-139329221D01*
X77318182Y-139329228D01*
X77203458Y-139405885D01*
X77203454Y-139405888D01*
X77105888Y-139503454D01*
X77105885Y-139503458D01*
X77029228Y-139618182D01*
X77029221Y-139618195D01*
X76976421Y-139745667D01*
X76976418Y-139745677D01*
X76949500Y-139881004D01*
X76949500Y-139881007D01*
X76949500Y-140018993D01*
X76949500Y-140018995D01*
X76949499Y-140018995D01*
X67000500Y-140018995D01*
X67000500Y-123349054D01*
X67999498Y-123349054D01*
X68040423Y-123501785D01*
X68064847Y-123544087D01*
X68064848Y-123544091D01*
X68119475Y-123638709D01*
X68119481Y-123638717D01*
X68238349Y-123757585D01*
X68238355Y-123757590D01*
X71066241Y-126585476D01*
X71099726Y-126646799D01*
X71096492Y-126711473D01*
X71082753Y-126753757D01*
X71056627Y-126918715D01*
X71049500Y-126963713D01*
X71049500Y-127176287D01*
X71082754Y-127386243D01*
X71136130Y-127550518D01*
X71148444Y-127588414D01*
X71244951Y-127777820D01*
X71369890Y-127949786D01*
X71520213Y-128100109D01*
X71692182Y-128225050D01*
X71700946Y-128229516D01*
X71751742Y-128277491D01*
X71768536Y-128345312D01*
X71745998Y-128411447D01*
X71700946Y-128450484D01*
X71692182Y-128454949D01*
X71520213Y-128579890D01*
X71369890Y-128730213D01*
X71244951Y-128902179D01*
X71148444Y-129091585D01*
X71082753Y-129293760D01*
X71049500Y-129503713D01*
X71049500Y-129716286D01*
X71082753Y-129926239D01*
X71148444Y-130128414D01*
X71244951Y-130317820D01*
X71369890Y-130489786D01*
X71520213Y-130640109D01*
X71692179Y-130765048D01*
X71692181Y-130765049D01*
X71692184Y-130765051D01*
X71881588Y-130861557D01*
X72083757Y-130927246D01*
X72293713Y-130960500D01*
X72293714Y-130960500D01*
X72506286Y-130960500D01*
X72506287Y-130960500D01*
X72716243Y-130927246D01*
X72918412Y-130861557D01*
X73107816Y-130765051D01*
X73129789Y-130749086D01*
X73279786Y-130640109D01*
X73279788Y-130640106D01*
X73279792Y-130640104D01*
X73430104Y-130489792D01*
X73430106Y-130489788D01*
X73430109Y-130489786D01*
X73555048Y-130317820D01*
X73555047Y-130317820D01*
X73555051Y-130317816D01*
X73559514Y-130309054D01*
X73607488Y-130258259D01*
X73675308Y-130241463D01*
X73741444Y-130263999D01*
X73780486Y-130309056D01*
X73784951Y-130317820D01*
X73909890Y-130489786D01*
X74060213Y-130640109D01*
X74232179Y-130765048D01*
X74232181Y-130765049D01*
X74232184Y-130765051D01*
X74421588Y-130861557D01*
X74623757Y-130927246D01*
X74833713Y-130960500D01*
X74833714Y-130960500D01*
X75046286Y-130960500D01*
X75046287Y-130960500D01*
X75256243Y-130927246D01*
X75458412Y-130861557D01*
X75647816Y-130765051D01*
X75669789Y-130749086D01*
X75819786Y-130640109D01*
X75819788Y-130640106D01*
X75819792Y-130640104D01*
X75970104Y-130489792D01*
X75970106Y-130489788D01*
X75970109Y-130489786D01*
X76095048Y-130317820D01*
X76095047Y-130317820D01*
X76095051Y-130317816D01*
X76191557Y-130128412D01*
X76257246Y-129926243D01*
X76290500Y-129716287D01*
X76290500Y-129503713D01*
X76257246Y-129293757D01*
X76191557Y-129091588D01*
X76095051Y-128902184D01*
X76095049Y-128902181D01*
X76095048Y-128902179D01*
X75970109Y-128730213D01*
X75819786Y-128579890D01*
X75647820Y-128454951D01*
X75647115Y-128454591D01*
X75639054Y-128450485D01*
X75588259Y-128402512D01*
X75571463Y-128334692D01*
X75593999Y-128268556D01*
X75639054Y-128229515D01*
X75647816Y-128225051D01*
X75669789Y-128209086D01*
X75819786Y-128100109D01*
X75819788Y-128100106D01*
X75819792Y-128100104D01*
X75970104Y-127949792D01*
X75970106Y-127949788D01*
X75970109Y-127949786D01*
X76082929Y-127794500D01*
X76095051Y-127777816D01*
X76095349Y-127777230D01*
X76115235Y-127738205D01*
X76163209Y-127687409D01*
X76225719Y-127670500D01*
X81453331Y-127670500D01*
X81453347Y-127670501D01*
X81460943Y-127670501D01*
X81619054Y-127670501D01*
X81619057Y-127670501D01*
X81771785Y-127629577D01*
X81841068Y-127589576D01*
X81908716Y-127550520D01*
X82020520Y-127438716D01*
X82020520Y-127438714D01*
X82030724Y-127428511D01*
X82030728Y-127428506D01*
X85872415Y-123586819D01*
X85933738Y-123553334D01*
X85960096Y-123550500D01*
X86166286Y-123550500D01*
X86166287Y-123550500D01*
X86376243Y-123517246D01*
X86488329Y-123480826D01*
X86558165Y-123478832D01*
X86617998Y-123514912D01*
X86648827Y-123577612D01*
X86640863Y-123647027D01*
X86614324Y-123686439D01*
X79035339Y-131265425D01*
X78974016Y-131298910D01*
X78971850Y-131299361D01*
X78816508Y-131330261D01*
X78816498Y-131330264D01*
X78670827Y-131390602D01*
X78670814Y-131390609D01*
X78539711Y-131478210D01*
X78539707Y-131478213D01*
X78428213Y-131589707D01*
X78428210Y-131589711D01*
X78340609Y-131720814D01*
X78340602Y-131720827D01*
X78280264Y-131866498D01*
X78280261Y-131866510D01*
X78249500Y-132021153D01*
X78249500Y-132178846D01*
X78280261Y-132333489D01*
X78280264Y-132333501D01*
X78340602Y-132479172D01*
X78340609Y-132479185D01*
X78428210Y-132610288D01*
X78428213Y-132610292D01*
X78539707Y-132721786D01*
X78539711Y-132721789D01*
X78670814Y-132809390D01*
X78670827Y-132809397D01*
X78816498Y-132869735D01*
X78816503Y-132869737D01*
X78971153Y-132900499D01*
X78971156Y-132900500D01*
X78971158Y-132900500D01*
X79128844Y-132900500D01*
X79128845Y-132900499D01*
X79283497Y-132869737D01*
X79429179Y-132809394D01*
X79560289Y-132721789D01*
X79671789Y-132610289D01*
X79759394Y-132479179D01*
X79819737Y-132333497D01*
X79840221Y-132230518D01*
X79850638Y-132178150D01*
X79883023Y-132116239D01*
X79884518Y-132114716D01*
X88412415Y-123586818D01*
X88473738Y-123553334D01*
X88500096Y-123550500D01*
X88706286Y-123550500D01*
X88706287Y-123550500D01*
X88916243Y-123517246D01*
X89118412Y-123451557D01*
X89307816Y-123355051D01*
X89344245Y-123328584D01*
X89479786Y-123230109D01*
X89479788Y-123230106D01*
X89479792Y-123230104D01*
X89630104Y-123079792D01*
X89630106Y-123079788D01*
X89630109Y-123079786D01*
X89755048Y-122907820D01*
X89755047Y-122907820D01*
X89755051Y-122907816D01*
X89759514Y-122899054D01*
X89807488Y-122848259D01*
X89875308Y-122831463D01*
X89941444Y-122853999D01*
X89980486Y-122899056D01*
X89984951Y-122907820D01*
X90109890Y-123079786D01*
X90260213Y-123230109D01*
X90432179Y-123355048D01*
X90432181Y-123355049D01*
X90432184Y-123355051D01*
X90621588Y-123451557D01*
X90823757Y-123517246D01*
X91033713Y-123550500D01*
X91033714Y-123550500D01*
X91246286Y-123550500D01*
X91246287Y-123550500D01*
X91456243Y-123517246D01*
X91658412Y-123451557D01*
X91847816Y-123355051D01*
X91884245Y-123328584D01*
X92019786Y-123230109D01*
X92019788Y-123230106D01*
X92019792Y-123230104D01*
X92170104Y-123079792D01*
X92170106Y-123079788D01*
X92170109Y-123079786D01*
X92295048Y-122907820D01*
X92295047Y-122907820D01*
X92295051Y-122907816D01*
X92299514Y-122899054D01*
X92347488Y-122848259D01*
X92415308Y-122831463D01*
X92481444Y-122853999D01*
X92520486Y-122899056D01*
X92524951Y-122907820D01*
X92649890Y-123079786D01*
X92800213Y-123230109D01*
X92972179Y-123355048D01*
X92972181Y-123355049D01*
X92972184Y-123355051D01*
X93161588Y-123451557D01*
X93363757Y-123517246D01*
X93573713Y-123550500D01*
X93573714Y-123550500D01*
X93786286Y-123550500D01*
X93786287Y-123550500D01*
X93996243Y-123517246D01*
X94198412Y-123451557D01*
X94387816Y-123355051D01*
X94424245Y-123328584D01*
X94559786Y-123230109D01*
X94559788Y-123230106D01*
X94559792Y-123230104D01*
X94710104Y-123079792D01*
X94710106Y-123079788D01*
X94710109Y-123079786D01*
X94835048Y-122907820D01*
X94835047Y-122907820D01*
X94835051Y-122907816D01*
X94839514Y-122899054D01*
X94887488Y-122848259D01*
X94955308Y-122831463D01*
X95021444Y-122853999D01*
X95060486Y-122899056D01*
X95064951Y-122907820D01*
X95189890Y-123079786D01*
X95340213Y-123230109D01*
X95512179Y-123355048D01*
X95512181Y-123355049D01*
X95512184Y-123355051D01*
X95701588Y-123451557D01*
X95903757Y-123517246D01*
X96113713Y-123550500D01*
X96113714Y-123550500D01*
X96326286Y-123550500D01*
X96326287Y-123550500D01*
X96536243Y-123517246D01*
X96738412Y-123451557D01*
X96927816Y-123355051D01*
X96964245Y-123328584D01*
X97099786Y-123230109D01*
X97099788Y-123230106D01*
X97099792Y-123230104D01*
X97250104Y-123079792D01*
X97250106Y-123079788D01*
X97250109Y-123079786D01*
X97375048Y-122907820D01*
X97375047Y-122907820D01*
X97375051Y-122907816D01*
X97379514Y-122899054D01*
X97427488Y-122848259D01*
X97495308Y-122831463D01*
X97561444Y-122853999D01*
X97600486Y-122899056D01*
X97604951Y-122907820D01*
X97729890Y-123079786D01*
X97880213Y-123230109D01*
X98052179Y-123355048D01*
X98052181Y-123355049D01*
X98052184Y-123355051D01*
X98241588Y-123451557D01*
X98443757Y-123517246D01*
X98653713Y-123550500D01*
X98653714Y-123550500D01*
X98866286Y-123550500D01*
X98866287Y-123550500D01*
X99076243Y-123517246D01*
X99278412Y-123451557D01*
X99467816Y-123355051D01*
X99504245Y-123328584D01*
X99639786Y-123230109D01*
X99639788Y-123230106D01*
X99639792Y-123230104D01*
X99790104Y-123079792D01*
X99790106Y-123079788D01*
X99790109Y-123079786D01*
X99869943Y-122969902D01*
X99915051Y-122907816D01*
X99919793Y-122898508D01*
X99967763Y-122847711D01*
X100035583Y-122830911D01*
X100101719Y-122853445D01*
X100140763Y-122898500D01*
X100145373Y-122907547D01*
X100184728Y-122961716D01*
X100817037Y-122329408D01*
X100834075Y-122392993D01*
X100899901Y-122507007D01*
X100992993Y-122600099D01*
X101107007Y-122665925D01*
X101170590Y-122682962D01*
X100538282Y-123315269D01*
X100538282Y-123315270D01*
X100592449Y-123354624D01*
X100781782Y-123451095D01*
X100983870Y-123516757D01*
X101193754Y-123550000D01*
X101406246Y-123550000D01*
X101616127Y-123516757D01*
X101616130Y-123516757D01*
X101818217Y-123451095D01*
X102007554Y-123354622D01*
X102061716Y-123315270D01*
X102061717Y-123315270D01*
X101429408Y-122682962D01*
X101492993Y-122665925D01*
X101607007Y-122600099D01*
X101700099Y-122507007D01*
X101765925Y-122392993D01*
X101782962Y-122329408D01*
X102453181Y-122999628D01*
X102486666Y-123060951D01*
X102489500Y-123087300D01*
X102489500Y-123097865D01*
X102489501Y-123097876D01*
X102495908Y-123157483D01*
X102546202Y-123292328D01*
X102546206Y-123292335D01*
X102632452Y-123407544D01*
X102632455Y-123407547D01*
X102747664Y-123493793D01*
X102747671Y-123493797D01*
X102882517Y-123544091D01*
X102882516Y-123544091D01*
X102889444Y-123544835D01*
X102942127Y-123550500D01*
X104737872Y-123550499D01*
X104797483Y-123544091D01*
X104932331Y-123493796D01*
X105047546Y-123407546D01*
X105133796Y-123292331D01*
X105184091Y-123157483D01*
X105190500Y-123097873D01*
X105190499Y-121302128D01*
X105184091Y-121242517D01*
X105178798Y-121228327D01*
X105133797Y-121107671D01*
X105133793Y-121107664D01*
X105047547Y-120992455D01*
X105047544Y-120992452D01*
X104932335Y-120906206D01*
X104932328Y-120906202D01*
X104797482Y-120855908D01*
X104797483Y-120855908D01*
X104737883Y-120849501D01*
X104737881Y-120849500D01*
X104737873Y-120849500D01*
X104737865Y-120849500D01*
X103591519Y-120849500D01*
X103524480Y-120829815D01*
X103503838Y-120813181D01*
X101206963Y-118516306D01*
X101173478Y-118454983D01*
X101178462Y-118385291D01*
X101220334Y-118329358D01*
X101247189Y-118314065D01*
X101304121Y-118290484D01*
X101379173Y-118259397D01*
X101379176Y-118259395D01*
X101379179Y-118259394D01*
X101510289Y-118171789D01*
X101621789Y-118060289D01*
X101709394Y-117929179D01*
X101769737Y-117783497D01*
X101800500Y-117628842D01*
X101800500Y-117471158D01*
X101800500Y-117471155D01*
X101800499Y-117471153D01*
X101791272Y-117424767D01*
X101769737Y-117316503D01*
X101765273Y-117305726D01*
X101709397Y-117170827D01*
X101709390Y-117170814D01*
X101621789Y-117039711D01*
X101621786Y-117039707D01*
X101510292Y-116928213D01*
X101510288Y-116928210D01*
X101379185Y-116840609D01*
X101379172Y-116840602D01*
X101233501Y-116780264D01*
X101233491Y-116780261D01*
X101078149Y-116749361D01*
X101016238Y-116716976D01*
X101014660Y-116715425D01*
X97987590Y-113688355D01*
X97987588Y-113688352D01*
X97868717Y-113569481D01*
X97868716Y-113569480D01*
X97781904Y-113519360D01*
X97781904Y-113519359D01*
X97781900Y-113519358D01*
X97731785Y-113490423D01*
X97579057Y-113449499D01*
X97420943Y-113449499D01*
X97413347Y-113449499D01*
X97413331Y-113449500D01*
X90624500Y-113449500D01*
X90557461Y-113429815D01*
X90511706Y-113377011D01*
X90500500Y-113325500D01*
X90500500Y-108948995D01*
X91159499Y-108948995D01*
X91186418Y-109084322D01*
X91186421Y-109084332D01*
X91239221Y-109211804D01*
X91239228Y-109211817D01*
X91315885Y-109326541D01*
X91315888Y-109326545D01*
X91413454Y-109424111D01*
X91413458Y-109424114D01*
X91528182Y-109500771D01*
X91528195Y-109500778D01*
X91655667Y-109553578D01*
X91655672Y-109553580D01*
X91655676Y-109553580D01*
X91655677Y-109553581D01*
X91791004Y-109580500D01*
X91791007Y-109580500D01*
X91928995Y-109580500D01*
X92020041Y-109562389D01*
X92064328Y-109553580D01*
X92191811Y-109500775D01*
X92306542Y-109424114D01*
X92404114Y-109326542D01*
X92480775Y-109211811D01*
X92533580Y-109084328D01*
X92553737Y-108982993D01*
X92560500Y-108948995D01*
X97959499Y-108948995D01*
X97986418Y-109084322D01*
X97986421Y-109084332D01*
X98039221Y-109211804D01*
X98039228Y-109211817D01*
X98115885Y-109326541D01*
X98115888Y-109326545D01*
X98213454Y-109424111D01*
X98213458Y-109424114D01*
X98328182Y-109500771D01*
X98328195Y-109500778D01*
X98455667Y-109553578D01*
X98455672Y-109553580D01*
X98455676Y-109553580D01*
X98455677Y-109553581D01*
X98591004Y-109580500D01*
X98591007Y-109580500D01*
X98728995Y-109580500D01*
X98820041Y-109562389D01*
X98864328Y-109553580D01*
X98991811Y-109500775D01*
X99106542Y-109424114D01*
X99204114Y-109326542D01*
X99280775Y-109211811D01*
X99333580Y-109084328D01*
X99353737Y-108982993D01*
X99360500Y-108948995D01*
X99360500Y-108811004D01*
X99333581Y-108675677D01*
X99333580Y-108675676D01*
X99333580Y-108675672D01*
X99319526Y-108641742D01*
X99280778Y-108548195D01*
X99280771Y-108548182D01*
X99204114Y-108433458D01*
X99204111Y-108433454D01*
X99106545Y-108335888D01*
X99106541Y-108335885D01*
X98991817Y-108259228D01*
X98991804Y-108259221D01*
X98864332Y-108206421D01*
X98864322Y-108206418D01*
X98728995Y-108179500D01*
X98728993Y-108179500D01*
X98591007Y-108179500D01*
X98591005Y-108179500D01*
X98455677Y-108206418D01*
X98455667Y-108206421D01*
X98328195Y-108259221D01*
X98328182Y-108259228D01*
X98213458Y-108335885D01*
X98213454Y-108335888D01*
X98115888Y-108433454D01*
X98115885Y-108433458D01*
X98039228Y-108548182D01*
X98039221Y-108548195D01*
X97986421Y-108675667D01*
X97986418Y-108675677D01*
X97959500Y-108811004D01*
X97959500Y-108811007D01*
X97959500Y-108948993D01*
X97959500Y-108948995D01*
X97959499Y-108948995D01*
X92560500Y-108948995D01*
X92560500Y-108811004D01*
X92533581Y-108675677D01*
X92533580Y-108675676D01*
X92533580Y-108675672D01*
X92519526Y-108641742D01*
X92480778Y-108548195D01*
X92480771Y-108548182D01*
X92404114Y-108433458D01*
X92404111Y-108433454D01*
X92306545Y-108335888D01*
X92306541Y-108335885D01*
X92191817Y-108259228D01*
X92191804Y-108259221D01*
X92064332Y-108206421D01*
X92064322Y-108206418D01*
X91928995Y-108179500D01*
X91928993Y-108179500D01*
X91791007Y-108179500D01*
X91791005Y-108179500D01*
X91655677Y-108206418D01*
X91655667Y-108206421D01*
X91528195Y-108259221D01*
X91528182Y-108259228D01*
X91413458Y-108335885D01*
X91413454Y-108335888D01*
X91315888Y-108433454D01*
X91315885Y-108433458D01*
X91239228Y-108548182D01*
X91239221Y-108548195D01*
X91186421Y-108675667D01*
X91186418Y-108675677D01*
X91159500Y-108811004D01*
X91159500Y-108811007D01*
X91159500Y-108948993D01*
X91159500Y-108948995D01*
X91159499Y-108948995D01*
X90500500Y-108948995D01*
X90500500Y-103676871D01*
X90500500Y-103671153D01*
X94399500Y-103671153D01*
X94399500Y-103828846D01*
X94430261Y-103983489D01*
X94430264Y-103983501D01*
X94490602Y-104129172D01*
X94490609Y-104129185D01*
X94578210Y-104260288D01*
X94578213Y-104260292D01*
X94689707Y-104371786D01*
X94689711Y-104371789D01*
X94820814Y-104459390D01*
X94820827Y-104459397D01*
X94966498Y-104519735D01*
X94966503Y-104519737D01*
X95121153Y-104550499D01*
X95121156Y-104550500D01*
X95121158Y-104550500D01*
X95278844Y-104550500D01*
X95278845Y-104550499D01*
X95433497Y-104519737D01*
X95579179Y-104459394D01*
X95633663Y-104422989D01*
X95710875Y-104371398D01*
X95777553Y-104350520D01*
X95779766Y-104350500D01*
X99575500Y-104350500D01*
X99642539Y-104370185D01*
X99688294Y-104422989D01*
X99699500Y-104474500D01*
X99699500Y-111703330D01*
X99699499Y-111703348D01*
X99699499Y-111869054D01*
X99699498Y-111869054D01*
X99717514Y-111936287D01*
X99740423Y-112021785D01*
X99763517Y-112061784D01*
X99800825Y-112126405D01*
X99819479Y-112158715D01*
X99938349Y-112277585D01*
X99938355Y-112277590D01*
X112428342Y-124767577D01*
X112461827Y-124828900D01*
X112456843Y-124898592D01*
X112414971Y-124954525D01*
X112349507Y-124978942D01*
X112316470Y-124976875D01*
X112178846Y-124949500D01*
X112178842Y-124949500D01*
X112021158Y-124949500D01*
X112021155Y-124949500D01*
X111866510Y-124980261D01*
X111866498Y-124980264D01*
X111720827Y-125040602D01*
X111720814Y-125040609D01*
X111589711Y-125128210D01*
X111589707Y-125128213D01*
X111478213Y-125239707D01*
X111478210Y-125239711D01*
X111390609Y-125370814D01*
X111390602Y-125370827D01*
X111330264Y-125516498D01*
X111330261Y-125516510D01*
X111299500Y-125671153D01*
X111299500Y-125828846D01*
X111330261Y-125983489D01*
X111330264Y-125983501D01*
X111390602Y-126129172D01*
X111390609Y-126129185D01*
X111478209Y-126260287D01*
X111478210Y-126260288D01*
X111478211Y-126260289D01*
X111563182Y-126345260D01*
X111596666Y-126406581D01*
X111599500Y-126432940D01*
X111599500Y-131563330D01*
X111599499Y-131563348D01*
X111599499Y-131729054D01*
X111599498Y-131729054D01*
X111640423Y-131881785D01*
X111656861Y-131910256D01*
X111656860Y-131910256D01*
X111656861Y-131910257D01*
X111719475Y-132018709D01*
X111719479Y-132018714D01*
X111719480Y-132018716D01*
X111819480Y-132118716D01*
X111931284Y-132230520D01*
X111931286Y-132230521D01*
X111931290Y-132230524D01*
X112068209Y-132309573D01*
X112068216Y-132309577D01*
X112151098Y-132331785D01*
X112220942Y-132350500D01*
X112220943Y-132350500D01*
X120779055Y-132350500D01*
X120779057Y-132350500D01*
X120931784Y-132309577D01*
X121068716Y-132230520D01*
X121180520Y-132118716D01*
X121259577Y-131981784D01*
X121300500Y-131829057D01*
X121300500Y-127213429D01*
X121304725Y-127181335D01*
X121306078Y-127176286D01*
X121332728Y-127076829D01*
X121332728Y-126918715D01*
X121291804Y-126765987D01*
X121212746Y-126629056D01*
X121100943Y-126517253D01*
X120964012Y-126438195D01*
X120811284Y-126397271D01*
X120653170Y-126397271D01*
X120583281Y-126415998D01*
X120500439Y-126438195D01*
X120500438Y-126438196D01*
X120474994Y-126452887D01*
X120412994Y-126469500D01*
X119405719Y-126469500D01*
X119338680Y-126449815D01*
X119295235Y-126401795D01*
X119275052Y-126362185D01*
X119275051Y-126362184D01*
X119150109Y-126190213D01*
X118999786Y-126039890D01*
X118827820Y-125914951D01*
X118827115Y-125914591D01*
X118819054Y-125910485D01*
X118768259Y-125862512D01*
X118751463Y-125794692D01*
X118773999Y-125728556D01*
X118819054Y-125689515D01*
X118827816Y-125685051D01*
X118849789Y-125669086D01*
X118999786Y-125560109D01*
X118999788Y-125560106D01*
X118999792Y-125560104D01*
X119150104Y-125409792D01*
X119150106Y-125409788D01*
X119150109Y-125409786D01*
X119275048Y-125237820D01*
X119275047Y-125237820D01*
X119275051Y-125237816D01*
X119371557Y-125048412D01*
X119437246Y-124846243D01*
X119470500Y-124636287D01*
X119470500Y-124423713D01*
X119437246Y-124213757D01*
X119371557Y-124011588D01*
X119275051Y-123822184D01*
X119275049Y-123822181D01*
X119275048Y-123822179D01*
X119150109Y-123650213D01*
X118999786Y-123499890D01*
X118827820Y-123374951D01*
X118827115Y-123374591D01*
X118819054Y-123370485D01*
X118768259Y-123322512D01*
X118751463Y-123254692D01*
X118773999Y-123188556D01*
X118819054Y-123149515D01*
X118827816Y-123145051D01*
X118892738Y-123097883D01*
X118999786Y-123020109D01*
X118999788Y-123020106D01*
X118999792Y-123020104D01*
X119150104Y-122869792D01*
X119150106Y-122869788D01*
X119150109Y-122869786D01*
X119236773Y-122750501D01*
X119275051Y-122697816D01*
X119275349Y-122697230D01*
X119295235Y-122658205D01*
X119343209Y-122607409D01*
X119405719Y-122590500D01*
X120239903Y-122590500D01*
X120306942Y-122610185D01*
X120327584Y-122626819D01*
X120331284Y-122630519D01*
X120468215Y-122709577D01*
X120620943Y-122750501D01*
X120620946Y-122750501D01*
X120779054Y-122750501D01*
X120779057Y-122750501D01*
X120931785Y-122709577D01*
X121068716Y-122630519D01*
X121158503Y-122540730D01*
X121158508Y-122540727D01*
X121168714Y-122530520D01*
X121168716Y-122530520D01*
X121280520Y-122418716D01*
X121359577Y-122281784D01*
X121389534Y-122169981D01*
X121400500Y-122129058D01*
X121400500Y-121970943D01*
X121400500Y-99139060D01*
X121400501Y-99139047D01*
X121400501Y-98970944D01*
X121386266Y-98917818D01*
X121359577Y-98818216D01*
X121359573Y-98818209D01*
X121280524Y-98681290D01*
X121280518Y-98681282D01*
X114687590Y-92088355D01*
X114687588Y-92088352D01*
X114568717Y-91969481D01*
X114568716Y-91969480D01*
X114481904Y-91919360D01*
X114481904Y-91919359D01*
X114481900Y-91919358D01*
X114431785Y-91890423D01*
X114279057Y-91849499D01*
X114120943Y-91849499D01*
X114113347Y-91849499D01*
X114113331Y-91849500D01*
X101679766Y-91849500D01*
X101612727Y-91829815D01*
X101610875Y-91828602D01*
X101479185Y-91740609D01*
X101479172Y-91740602D01*
X101333501Y-91680264D01*
X101333489Y-91680261D01*
X101178845Y-91649500D01*
X101178842Y-91649500D01*
X101021158Y-91649500D01*
X101021155Y-91649500D01*
X100866510Y-91680261D01*
X100866498Y-91680264D01*
X100720827Y-91740602D01*
X100720814Y-91740609D01*
X100589711Y-91828210D01*
X100589707Y-91828213D01*
X100478213Y-91939707D01*
X100478210Y-91939711D01*
X100390609Y-92070814D01*
X100390602Y-92070827D01*
X100330264Y-92216498D01*
X100330261Y-92216510D01*
X100299500Y-92371153D01*
X100299500Y-92528846D01*
X100330261Y-92683489D01*
X100330264Y-92683501D01*
X100390602Y-92829172D01*
X100390609Y-92829185D01*
X100478210Y-92960288D01*
X100478213Y-92960292D01*
X100589707Y-93071786D01*
X100589711Y-93071789D01*
X100720814Y-93159390D01*
X100720827Y-93159397D01*
X100866498Y-93219735D01*
X100866503Y-93219737D01*
X101021153Y-93250499D01*
X101021156Y-93250500D01*
X101021158Y-93250500D01*
X101178844Y-93250500D01*
X101178845Y-93250499D01*
X101333497Y-93219737D01*
X101479179Y-93159394D01*
X101479185Y-93159390D01*
X101610875Y-93071398D01*
X101677553Y-93050520D01*
X101679766Y-93050500D01*
X113899903Y-93050500D01*
X113966942Y-93070185D01*
X113987584Y-93086819D01*
X120163181Y-99262416D01*
X120196666Y-99323739D01*
X120199500Y-99350097D01*
X120199500Y-121265500D01*
X120179815Y-121332539D01*
X120127011Y-121378294D01*
X120075500Y-121389500D01*
X119405719Y-121389500D01*
X119338680Y-121369815D01*
X119295235Y-121321795D01*
X119275052Y-121282185D01*
X119275051Y-121282184D01*
X119150109Y-121110213D01*
X118999786Y-120959890D01*
X118827820Y-120834951D01*
X118827115Y-120834591D01*
X118819054Y-120830485D01*
X118768259Y-120782512D01*
X118751463Y-120714692D01*
X118773999Y-120648556D01*
X118819054Y-120609515D01*
X118827816Y-120605051D01*
X118904276Y-120549500D01*
X118999786Y-120480109D01*
X118999788Y-120480106D01*
X118999792Y-120480104D01*
X119150104Y-120329792D01*
X119150106Y-120329788D01*
X119150109Y-120329786D01*
X119275048Y-120157820D01*
X119275047Y-120157820D01*
X119275051Y-120157816D01*
X119371557Y-119968412D01*
X119437246Y-119766243D01*
X119470500Y-119556287D01*
X119470500Y-119343713D01*
X119437246Y-119133757D01*
X119371557Y-118931588D01*
X119275051Y-118742184D01*
X119275049Y-118742181D01*
X119275048Y-118742179D01*
X119150109Y-118570213D01*
X118999786Y-118419890D01*
X118827820Y-118294951D01*
X118827115Y-118294591D01*
X118819054Y-118290485D01*
X118768259Y-118242512D01*
X118751463Y-118174692D01*
X118773999Y-118108556D01*
X118819054Y-118069515D01*
X118827816Y-118065051D01*
X118957343Y-117970945D01*
X118999786Y-117940109D01*
X118999788Y-117940106D01*
X118999792Y-117940104D01*
X119150104Y-117789792D01*
X119150106Y-117789788D01*
X119150109Y-117789786D01*
X119275048Y-117617820D01*
X119275047Y-117617820D01*
X119275051Y-117617816D01*
X119371557Y-117428412D01*
X119437246Y-117226243D01*
X119470500Y-117016287D01*
X119470500Y-116803713D01*
X119437246Y-116593757D01*
X119371557Y-116391588D01*
X119275051Y-116202184D01*
X119275049Y-116202181D01*
X119275048Y-116202179D01*
X119150109Y-116030213D01*
X118999786Y-115879890D01*
X118827820Y-115754951D01*
X118827115Y-115754591D01*
X118819054Y-115750485D01*
X118768259Y-115702512D01*
X118751463Y-115634692D01*
X118773999Y-115568556D01*
X118819054Y-115529515D01*
X118827816Y-115525051D01*
X118849789Y-115509086D01*
X118999786Y-115400109D01*
X118999788Y-115400106D01*
X118999792Y-115400104D01*
X119150104Y-115249792D01*
X119150106Y-115249788D01*
X119150109Y-115249786D01*
X119275048Y-115077820D01*
X119275047Y-115077820D01*
X119275051Y-115077816D01*
X119371557Y-114888412D01*
X119437246Y-114686243D01*
X119470500Y-114476287D01*
X119470500Y-114263713D01*
X119437246Y-114053757D01*
X119371557Y-113851588D01*
X119275051Y-113662184D01*
X119275049Y-113662181D01*
X119275048Y-113662179D01*
X119150109Y-113490213D01*
X118999786Y-113339890D01*
X118827820Y-113214951D01*
X118827115Y-113214591D01*
X118819054Y-113210485D01*
X118768259Y-113162512D01*
X118751463Y-113094692D01*
X118773999Y-113028556D01*
X118819054Y-112989515D01*
X118827816Y-112985051D01*
X118849789Y-112969086D01*
X118999786Y-112860109D01*
X118999788Y-112860106D01*
X118999792Y-112860104D01*
X119150104Y-112709792D01*
X119150106Y-112709788D01*
X119150109Y-112709786D01*
X119275048Y-112537820D01*
X119275047Y-112537820D01*
X119275051Y-112537816D01*
X119371557Y-112348412D01*
X119437246Y-112146243D01*
X119470500Y-111936287D01*
X119470500Y-111723713D01*
X119437246Y-111513757D01*
X119371557Y-111311588D01*
X119275051Y-111122184D01*
X119275049Y-111122181D01*
X119275048Y-111122179D01*
X119150109Y-110950213D01*
X118999786Y-110799890D01*
X118827820Y-110674951D01*
X118827115Y-110674591D01*
X118819054Y-110670485D01*
X118768259Y-110622512D01*
X118751463Y-110554692D01*
X118773999Y-110488556D01*
X118819054Y-110449515D01*
X118827816Y-110445051D01*
X118882572Y-110405269D01*
X118999786Y-110320109D01*
X118999788Y-110320106D01*
X118999792Y-110320104D01*
X119150104Y-110169792D01*
X119150106Y-110169788D01*
X119150109Y-110169786D01*
X119275048Y-109997820D01*
X119275047Y-109997820D01*
X119275051Y-109997816D01*
X119371557Y-109808412D01*
X119437246Y-109606243D01*
X119470500Y-109396287D01*
X119470500Y-109183713D01*
X119437246Y-108973757D01*
X119371557Y-108771588D01*
X119275051Y-108582184D01*
X119275049Y-108582181D01*
X119275048Y-108582179D01*
X119150109Y-108410213D01*
X118999786Y-108259890D01*
X118827817Y-108134949D01*
X118818504Y-108130204D01*
X118767707Y-108082230D01*
X118750912Y-108014409D01*
X118773449Y-107948274D01*
X118818507Y-107909232D01*
X118827555Y-107904622D01*
X118881716Y-107865270D01*
X118881717Y-107865270D01*
X118249408Y-107232962D01*
X118312993Y-107215925D01*
X118427007Y-107150099D01*
X118520099Y-107057007D01*
X118585925Y-106942993D01*
X118602962Y-106879408D01*
X119235270Y-107511717D01*
X119235270Y-107511716D01*
X119274622Y-107457554D01*
X119371095Y-107268217D01*
X119436757Y-107066130D01*
X119436757Y-107066127D01*
X119470000Y-106856246D01*
X119470000Y-106643753D01*
X119436757Y-106433872D01*
X119436757Y-106433869D01*
X119371095Y-106231782D01*
X119274624Y-106042449D01*
X119235270Y-105988282D01*
X119235269Y-105988282D01*
X118602962Y-106620590D01*
X118585925Y-106557007D01*
X118520099Y-106442993D01*
X118427007Y-106349901D01*
X118312993Y-106284075D01*
X118249409Y-106267037D01*
X118881716Y-105634728D01*
X118827550Y-105595375D01*
X118638217Y-105498904D01*
X118436129Y-105433242D01*
X118226246Y-105400000D01*
X118013754Y-105400000D01*
X117803872Y-105433242D01*
X117803869Y-105433242D01*
X117601782Y-105498904D01*
X117412439Y-105595380D01*
X117358282Y-105634727D01*
X117358282Y-105634728D01*
X117990591Y-106267037D01*
X117927007Y-106284075D01*
X117812993Y-106349901D01*
X117719901Y-106442993D01*
X117654075Y-106557007D01*
X117637037Y-106620591D01*
X116966818Y-105950372D01*
X116933333Y-105889049D01*
X116933330Y-105889036D01*
X116930499Y-105876015D01*
X116930499Y-105852128D01*
X116924091Y-105792517D01*
X116895926Y-105717002D01*
X116873798Y-105657673D01*
X116873793Y-105657664D01*
X116787547Y-105542455D01*
X116787544Y-105542452D01*
X116672335Y-105456206D01*
X116672328Y-105456202D01*
X116537482Y-105405908D01*
X116537483Y-105405908D01*
X116477883Y-105399501D01*
X116477881Y-105399500D01*
X116477873Y-105399500D01*
X116477864Y-105399500D01*
X114682129Y-105399500D01*
X114682123Y-105399501D01*
X114622516Y-105405908D01*
X114487671Y-105456202D01*
X114487664Y-105456206D01*
X114372455Y-105542452D01*
X114372452Y-105542455D01*
X114286206Y-105657664D01*
X114286202Y-105657671D01*
X114235908Y-105792517D01*
X114229501Y-105852116D01*
X114229500Y-105852135D01*
X114229500Y-107349757D01*
X114209815Y-107416796D01*
X114157011Y-107462551D01*
X114087853Y-107472495D01*
X114024297Y-107443470D01*
X114012899Y-107432225D01*
X114004458Y-107422747D01*
X113980520Y-107381284D01*
X113868716Y-107269480D01*
X113868713Y-107269478D01*
X111487590Y-104888355D01*
X111487588Y-104888352D01*
X110695397Y-104096161D01*
X109887589Y-103288354D01*
X109887588Y-103288352D01*
X109768717Y-103169481D01*
X109768709Y-103169475D01*
X109680789Y-103118715D01*
X109680788Y-103118715D01*
X109660077Y-103106757D01*
X109631785Y-103090423D01*
X109479057Y-103049499D01*
X109320943Y-103049499D01*
X109313347Y-103049499D01*
X109313331Y-103049500D01*
X107079766Y-103049500D01*
X107012727Y-103029815D01*
X107010875Y-103028602D01*
X106879185Y-102940609D01*
X106879172Y-102940602D01*
X106733501Y-102880264D01*
X106733489Y-102880261D01*
X106578845Y-102849500D01*
X106578842Y-102849500D01*
X106421158Y-102849500D01*
X106421155Y-102849500D01*
X106266510Y-102880261D01*
X106266498Y-102880264D01*
X106120827Y-102940602D01*
X106120814Y-102940609D01*
X105989711Y-103028210D01*
X105989707Y-103028213D01*
X105878213Y-103139707D01*
X105878210Y-103139711D01*
X105790609Y-103270814D01*
X105790602Y-103270827D01*
X105730264Y-103416498D01*
X105730261Y-103416510D01*
X105699500Y-103571153D01*
X105699500Y-103728846D01*
X105730261Y-103883489D01*
X105730264Y-103883501D01*
X105790602Y-104029172D01*
X105790609Y-104029185D01*
X105878210Y-104160288D01*
X105878213Y-104160292D01*
X105989707Y-104271786D01*
X105989711Y-104271789D01*
X106120814Y-104359390D01*
X106120827Y-104359397D01*
X106264709Y-104418994D01*
X106266503Y-104419737D01*
X106421153Y-104450499D01*
X106421156Y-104450500D01*
X106421158Y-104450500D01*
X106578844Y-104450500D01*
X106578845Y-104450499D01*
X106733497Y-104419737D01*
X106877021Y-104360288D01*
X106879172Y-104359397D01*
X106879172Y-104359396D01*
X106879179Y-104359394D01*
X106933663Y-104322989D01*
X107010875Y-104271398D01*
X107077553Y-104250520D01*
X107079766Y-104250500D01*
X109099903Y-104250500D01*
X109166942Y-104270185D01*
X109187584Y-104286819D01*
X110638349Y-105737585D01*
X110638355Y-105737590D01*
X112863181Y-107962416D01*
X112896666Y-108023739D01*
X112899500Y-108050097D01*
X112899500Y-120718059D01*
X112879815Y-120785098D01*
X112827011Y-120830853D01*
X112757853Y-120840797D01*
X112694297Y-120811772D01*
X112687819Y-120805740D01*
X112610292Y-120728213D01*
X112610288Y-120728210D01*
X112479185Y-120640609D01*
X112479172Y-120640602D01*
X112333501Y-120580264D01*
X112333489Y-120580261D01*
X112178845Y-120549500D01*
X112178842Y-120549500D01*
X112021158Y-120549500D01*
X112021155Y-120549500D01*
X111866511Y-120580260D01*
X111866502Y-120580263D01*
X111810814Y-120603329D01*
X111741345Y-120610796D01*
X111678866Y-120579520D01*
X111675683Y-120576448D01*
X105415463Y-114316228D01*
X108699500Y-114316228D01*
X108699500Y-114483771D01*
X108732182Y-114648074D01*
X108732184Y-114648082D01*
X108796295Y-114802860D01*
X108889372Y-114942160D01*
X108889373Y-114942161D01*
X108889374Y-114942162D01*
X108963182Y-115015970D01*
X108996666Y-115077291D01*
X108999500Y-115103650D01*
X108999500Y-115746349D01*
X108979815Y-115813388D01*
X108963181Y-115834030D01*
X108939376Y-115857834D01*
X108939373Y-115857837D01*
X108846295Y-115997139D01*
X108782184Y-116151917D01*
X108782182Y-116151925D01*
X108749500Y-116316228D01*
X108749500Y-116483771D01*
X108782182Y-116648074D01*
X108782184Y-116648082D01*
X108846295Y-116802860D01*
X108939373Y-116942162D01*
X109057837Y-117060626D01*
X109150494Y-117122537D01*
X109197137Y-117153703D01*
X109351918Y-117217816D01*
X109516228Y-117250499D01*
X109516232Y-117250500D01*
X109516233Y-117250500D01*
X109683768Y-117250500D01*
X109683769Y-117250499D01*
X109848082Y-117217816D01*
X110002863Y-117153703D01*
X110142162Y-117060626D01*
X110260626Y-116942162D01*
X110353703Y-116802863D01*
X110417816Y-116648082D01*
X110450500Y-116483767D01*
X110450500Y-116316233D01*
X110417816Y-116151918D01*
X110353703Y-115997137D01*
X110275361Y-115879890D01*
X110260626Y-115857837D01*
X110236819Y-115834030D01*
X110203334Y-115772707D01*
X110200500Y-115746349D01*
X110200500Y-114994931D01*
X110220185Y-114927892D01*
X110221398Y-114926040D01*
X110229058Y-114914576D01*
X110303703Y-114802863D01*
X110367816Y-114648082D01*
X110400500Y-114483767D01*
X110400500Y-114316233D01*
X110367816Y-114151918D01*
X110308350Y-114008355D01*
X110303704Y-113997139D01*
X110210626Y-113857837D01*
X110092162Y-113739373D01*
X109952860Y-113646295D01*
X109798082Y-113582184D01*
X109798074Y-113582182D01*
X109633771Y-113549500D01*
X109633767Y-113549500D01*
X109466233Y-113549500D01*
X109466228Y-113549500D01*
X109301925Y-113582182D01*
X109301917Y-113582184D01*
X109147139Y-113646295D01*
X109007837Y-113739373D01*
X108889373Y-113857837D01*
X108796295Y-113997139D01*
X108732184Y-114151917D01*
X108732182Y-114151925D01*
X108699500Y-114316228D01*
X105415463Y-114316228D01*
X101836819Y-110737584D01*
X101803334Y-110676261D01*
X101800500Y-110649903D01*
X101800500Y-109018995D01*
X102299499Y-109018995D01*
X102326418Y-109154322D01*
X102326421Y-109154332D01*
X102379221Y-109281804D01*
X102379228Y-109281817D01*
X102455885Y-109396541D01*
X102455888Y-109396545D01*
X102553454Y-109494111D01*
X102553458Y-109494114D01*
X102668182Y-109570771D01*
X102668195Y-109570778D01*
X102795667Y-109623578D01*
X102795672Y-109623580D01*
X102795676Y-109623580D01*
X102795677Y-109623581D01*
X102931004Y-109650500D01*
X102931007Y-109650500D01*
X103068995Y-109650500D01*
X103160041Y-109632389D01*
X103204328Y-109623580D01*
X103331811Y-109570775D01*
X103446542Y-109494114D01*
X103544114Y-109396542D01*
X103620775Y-109281811D01*
X103673580Y-109154328D01*
X103700500Y-109018995D01*
X109099499Y-109018995D01*
X109126418Y-109154322D01*
X109126421Y-109154332D01*
X109179221Y-109281804D01*
X109179228Y-109281817D01*
X109255885Y-109396541D01*
X109255888Y-109396545D01*
X109353454Y-109494111D01*
X109353458Y-109494114D01*
X109468182Y-109570771D01*
X109468195Y-109570778D01*
X109595667Y-109623578D01*
X109595672Y-109623580D01*
X109595676Y-109623580D01*
X109595677Y-109623581D01*
X109731004Y-109650500D01*
X109731007Y-109650500D01*
X109868995Y-109650500D01*
X109960041Y-109632389D01*
X110004328Y-109623580D01*
X110131811Y-109570775D01*
X110246542Y-109494114D01*
X110344114Y-109396542D01*
X110420775Y-109281811D01*
X110473580Y-109154328D01*
X110500500Y-109018993D01*
X110500500Y-108881007D01*
X110500500Y-108881004D01*
X110473581Y-108745677D01*
X110473580Y-108745676D01*
X110473580Y-108745672D01*
X110455678Y-108702453D01*
X110420778Y-108618195D01*
X110420771Y-108618182D01*
X110344114Y-108503458D01*
X110344111Y-108503454D01*
X110246545Y-108405888D01*
X110246541Y-108405885D01*
X110131817Y-108329228D01*
X110131804Y-108329221D01*
X110004332Y-108276421D01*
X110004322Y-108276418D01*
X109868995Y-108249500D01*
X109868993Y-108249500D01*
X109731007Y-108249500D01*
X109731005Y-108249500D01*
X109595677Y-108276418D01*
X109595667Y-108276421D01*
X109468195Y-108329221D01*
X109468182Y-108329228D01*
X109353458Y-108405885D01*
X109353454Y-108405888D01*
X109255888Y-108503454D01*
X109255885Y-108503458D01*
X109179228Y-108618182D01*
X109179221Y-108618195D01*
X109126421Y-108745667D01*
X109126418Y-108745677D01*
X109099500Y-108881004D01*
X109099500Y-108881007D01*
X109099500Y-109018993D01*
X109099500Y-109018995D01*
X109099499Y-109018995D01*
X103700500Y-109018995D01*
X103700500Y-109018993D01*
X103700500Y-108881007D01*
X103700500Y-108881004D01*
X103673581Y-108745677D01*
X103673580Y-108745676D01*
X103673580Y-108745672D01*
X103655678Y-108702453D01*
X103620778Y-108618195D01*
X103620771Y-108618182D01*
X103544114Y-108503458D01*
X103544111Y-108503454D01*
X103446545Y-108405888D01*
X103446541Y-108405885D01*
X103331817Y-108329228D01*
X103331804Y-108329221D01*
X103204332Y-108276421D01*
X103204322Y-108276418D01*
X103068995Y-108249500D01*
X103068993Y-108249500D01*
X102931007Y-108249500D01*
X102931005Y-108249500D01*
X102795677Y-108276418D01*
X102795667Y-108276421D01*
X102668195Y-108329221D01*
X102668182Y-108329228D01*
X102553458Y-108405885D01*
X102553454Y-108405888D01*
X102455888Y-108503454D01*
X102455885Y-108503458D01*
X102379228Y-108618182D01*
X102379221Y-108618195D01*
X102326421Y-108745667D01*
X102326418Y-108745677D01*
X102299500Y-108881004D01*
X102299500Y-108881007D01*
X102299500Y-109018993D01*
X102299500Y-109018995D01*
X102299499Y-109018995D01*
X101800500Y-109018995D01*
X101800500Y-105129765D01*
X101820185Y-105062726D01*
X101821398Y-105060874D01*
X101909390Y-104929185D01*
X101909390Y-104929184D01*
X101909394Y-104929179D01*
X101969737Y-104783497D01*
X102000500Y-104628842D01*
X102000500Y-104471158D01*
X102000500Y-104471155D01*
X102000499Y-104471153D01*
X101996391Y-104450499D01*
X101969737Y-104316503D01*
X101933569Y-104229185D01*
X101909397Y-104170827D01*
X101909390Y-104170814D01*
X101821789Y-104039711D01*
X101821786Y-104039707D01*
X101710292Y-103928213D01*
X101710288Y-103928210D01*
X101579185Y-103840609D01*
X101579172Y-103840602D01*
X101433501Y-103780264D01*
X101433489Y-103780261D01*
X101278845Y-103749500D01*
X101278842Y-103749500D01*
X101121158Y-103749500D01*
X101089385Y-103755819D01*
X101045556Y-103764538D01*
X100975964Y-103758310D01*
X100920787Y-103715446D01*
X100901590Y-103675013D01*
X100900500Y-103670945D01*
X100900500Y-103670943D01*
X100859577Y-103518216D01*
X100800851Y-103416498D01*
X100780524Y-103381290D01*
X100780518Y-103381282D01*
X100668717Y-103269481D01*
X100668709Y-103269475D01*
X100531790Y-103190426D01*
X100531786Y-103190424D01*
X100531784Y-103190423D01*
X100379057Y-103149500D01*
X100379056Y-103149500D01*
X95779766Y-103149500D01*
X95712727Y-103129815D01*
X95710875Y-103128602D01*
X95579185Y-103040609D01*
X95579172Y-103040602D01*
X95433501Y-102980264D01*
X95433489Y-102980261D01*
X95278845Y-102949500D01*
X95278842Y-102949500D01*
X95121158Y-102949500D01*
X95121155Y-102949500D01*
X94966510Y-102980261D01*
X94966498Y-102980264D01*
X94820827Y-103040602D01*
X94820814Y-103040609D01*
X94689711Y-103128210D01*
X94689707Y-103128213D01*
X94578213Y-103239707D01*
X94578210Y-103239711D01*
X94490609Y-103370814D01*
X94490602Y-103370827D01*
X94430264Y-103516498D01*
X94430261Y-103516510D01*
X94399500Y-103671153D01*
X90500500Y-103671153D01*
X90500500Y-103670943D01*
X90497636Y-103660256D01*
X90477721Y-103585931D01*
X90459577Y-103518216D01*
X90400851Y-103416498D01*
X90380524Y-103381290D01*
X90380518Y-103381282D01*
X90168717Y-103169481D01*
X90168709Y-103169475D01*
X90080789Y-103118715D01*
X90080788Y-103118715D01*
X90060077Y-103106757D01*
X90031785Y-103090423D01*
X89879057Y-103049499D01*
X89720943Y-103049499D01*
X89713347Y-103049499D01*
X89713331Y-103049500D01*
X84379062Y-103049500D01*
X84379058Y-103049499D01*
X84220943Y-103049499D01*
X84215014Y-103051087D01*
X84200862Y-103051218D01*
X84194692Y-103049467D01*
X84185000Y-103049150D01*
X84184907Y-103050097D01*
X84178845Y-103049500D01*
X84178842Y-103049500D01*
X84021158Y-103049500D01*
X84021155Y-103049500D01*
X83866510Y-103080261D01*
X83866498Y-103080264D01*
X83720827Y-103140602D01*
X83720814Y-103140609D01*
X83589711Y-103228210D01*
X83589707Y-103228213D01*
X83478213Y-103339707D01*
X83478210Y-103339711D01*
X83390609Y-103470814D01*
X83390602Y-103470827D01*
X83330264Y-103616498D01*
X83330261Y-103616510D01*
X83299500Y-103771153D01*
X83299500Y-103928846D01*
X83330261Y-104083489D01*
X83330264Y-104083501D01*
X83390602Y-104229172D01*
X83390609Y-104229185D01*
X83478210Y-104360288D01*
X83478213Y-104360292D01*
X83589707Y-104471786D01*
X83589711Y-104471789D01*
X83720814Y-104559390D01*
X83720827Y-104559397D01*
X83866498Y-104619735D01*
X83866503Y-104619737D01*
X84021153Y-104650499D01*
X84021156Y-104650500D01*
X84021158Y-104650500D01*
X84178844Y-104650500D01*
X84178845Y-104650499D01*
X84333497Y-104619737D01*
X84479179Y-104559394D01*
X84610289Y-104471789D01*
X84721789Y-104360289D01*
X84746712Y-104322989D01*
X84758325Y-104305610D01*
X84811937Y-104260804D01*
X84861427Y-104250500D01*
X89175500Y-104250500D01*
X89242539Y-104270185D01*
X89288294Y-104322989D01*
X89299500Y-104374500D01*
X89299500Y-113970943D01*
X89299500Y-114129057D01*
X89305628Y-114151925D01*
X89340423Y-114281783D01*
X89340426Y-114281790D01*
X89419475Y-114418709D01*
X89419479Y-114418714D01*
X89419480Y-114418716D01*
X89531284Y-114530520D01*
X89531286Y-114530521D01*
X89531290Y-114530524D01*
X89668209Y-114609573D01*
X89668216Y-114609577D01*
X89820943Y-114650500D01*
X97199903Y-114650500D01*
X97229343Y-114659144D01*
X97259330Y-114665668D01*
X97264345Y-114669422D01*
X97266942Y-114670185D01*
X97287584Y-114686819D01*
X97338584Y-114737819D01*
X97372069Y-114799142D01*
X97367085Y-114868834D01*
X97325213Y-114924767D01*
X97259749Y-114949184D01*
X97250903Y-114949500D01*
X85891519Y-114949500D01*
X85824480Y-114929815D01*
X85803838Y-114913181D01*
X85463096Y-114572439D01*
X85429611Y-114511116D01*
X85429174Y-114509021D01*
X85417816Y-114451918D01*
X85361613Y-114316233D01*
X85353704Y-114297139D01*
X85260626Y-114157837D01*
X85142162Y-114039373D01*
X85002860Y-113946295D01*
X84848082Y-113882184D01*
X84848074Y-113882182D01*
X84683771Y-113849500D01*
X84683767Y-113849500D01*
X84516233Y-113849500D01*
X84516228Y-113849500D01*
X84351925Y-113882182D01*
X84351917Y-113882184D01*
X84197139Y-113946295D01*
X84057837Y-114039373D01*
X83939373Y-114157837D01*
X83846295Y-114297139D01*
X83782184Y-114451917D01*
X83782182Y-114451925D01*
X83749500Y-114616228D01*
X83749500Y-114783768D01*
X83752989Y-114801308D01*
X83751111Y-114822292D01*
X83754110Y-114843147D01*
X83748059Y-114856394D01*
X83746762Y-114870900D01*
X83733837Y-114887538D01*
X83725085Y-114906703D01*
X83712833Y-114914576D01*
X83703900Y-114926077D01*
X83684031Y-114933086D01*
X83666307Y-114944477D01*
X83641724Y-114948011D01*
X83638010Y-114949322D01*
X83631372Y-114949500D01*
X83541519Y-114949500D01*
X83474480Y-114929815D01*
X83453838Y-114913181D01*
X78836819Y-110296162D01*
X78803334Y-110234839D01*
X78800500Y-110208481D01*
X78800500Y-108948995D01*
X79899499Y-108948995D01*
X79926418Y-109084322D01*
X79926421Y-109084332D01*
X79979221Y-109211804D01*
X79979228Y-109211817D01*
X80055885Y-109326541D01*
X80055888Y-109326545D01*
X80153454Y-109424111D01*
X80153458Y-109424114D01*
X80268182Y-109500771D01*
X80268195Y-109500778D01*
X80395667Y-109553578D01*
X80395672Y-109553580D01*
X80395676Y-109553580D01*
X80395677Y-109553581D01*
X80531004Y-109580500D01*
X80531007Y-109580500D01*
X80668995Y-109580500D01*
X80760041Y-109562389D01*
X80804328Y-109553580D01*
X80931811Y-109500775D01*
X81046542Y-109424114D01*
X81144114Y-109326542D01*
X81220775Y-109211811D01*
X81273580Y-109084328D01*
X81293737Y-108982993D01*
X81300500Y-108948995D01*
X86699499Y-108948995D01*
X86726418Y-109084322D01*
X86726421Y-109084332D01*
X86779221Y-109211804D01*
X86779228Y-109211817D01*
X86855885Y-109326541D01*
X86855888Y-109326545D01*
X86953454Y-109424111D01*
X86953458Y-109424114D01*
X87068182Y-109500771D01*
X87068195Y-109500778D01*
X87195667Y-109553578D01*
X87195672Y-109553580D01*
X87195676Y-109553580D01*
X87195677Y-109553581D01*
X87331004Y-109580500D01*
X87331007Y-109580500D01*
X87468995Y-109580500D01*
X87560041Y-109562389D01*
X87604328Y-109553580D01*
X87731811Y-109500775D01*
X87846542Y-109424114D01*
X87944114Y-109326542D01*
X88020775Y-109211811D01*
X88073580Y-109084328D01*
X88093737Y-108982993D01*
X88100500Y-108948995D01*
X88100500Y-108811004D01*
X88073581Y-108675677D01*
X88073580Y-108675676D01*
X88073580Y-108675672D01*
X88059526Y-108641742D01*
X88020778Y-108548195D01*
X88020771Y-108548182D01*
X87944114Y-108433458D01*
X87944111Y-108433454D01*
X87846545Y-108335888D01*
X87846541Y-108335885D01*
X87731817Y-108259228D01*
X87731804Y-108259221D01*
X87604332Y-108206421D01*
X87604322Y-108206418D01*
X87468995Y-108179500D01*
X87468993Y-108179500D01*
X87331007Y-108179500D01*
X87331005Y-108179500D01*
X87195677Y-108206418D01*
X87195667Y-108206421D01*
X87068195Y-108259221D01*
X87068182Y-108259228D01*
X86953458Y-108335885D01*
X86953454Y-108335888D01*
X86855888Y-108433454D01*
X86855885Y-108433458D01*
X86779228Y-108548182D01*
X86779221Y-108548195D01*
X86726421Y-108675667D01*
X86726418Y-108675677D01*
X86699500Y-108811004D01*
X86699500Y-108811007D01*
X86699500Y-108948993D01*
X86699500Y-108948995D01*
X86699499Y-108948995D01*
X81300500Y-108948995D01*
X81300500Y-108811004D01*
X81273581Y-108675677D01*
X81273580Y-108675676D01*
X81273580Y-108675672D01*
X81259526Y-108641742D01*
X81220778Y-108548195D01*
X81220771Y-108548182D01*
X81144114Y-108433458D01*
X81144111Y-108433454D01*
X81046545Y-108335888D01*
X81046541Y-108335885D01*
X80931817Y-108259228D01*
X80931804Y-108259221D01*
X80804332Y-108206421D01*
X80804322Y-108206418D01*
X80668995Y-108179500D01*
X80668993Y-108179500D01*
X80531007Y-108179500D01*
X80531005Y-108179500D01*
X80395677Y-108206418D01*
X80395667Y-108206421D01*
X80268195Y-108259221D01*
X80268182Y-108259228D01*
X80153458Y-108335885D01*
X80153454Y-108335888D01*
X80055888Y-108433454D01*
X80055885Y-108433458D01*
X79979228Y-108548182D01*
X79979221Y-108548195D01*
X79926421Y-108675667D01*
X79926418Y-108675677D01*
X79899500Y-108811004D01*
X79899500Y-108811007D01*
X79899500Y-108948993D01*
X79899500Y-108948995D01*
X79899499Y-108948995D01*
X78800500Y-108948995D01*
X78800500Y-107191519D01*
X78820185Y-107124480D01*
X78836819Y-107103838D01*
X81144112Y-104796545D01*
X81144114Y-104796543D01*
X81220775Y-104681811D01*
X81233745Y-104650500D01*
X81271480Y-104559397D01*
X81273580Y-104554328D01*
X81290124Y-104471158D01*
X81300500Y-104418996D01*
X81300500Y-102391518D01*
X81320185Y-102324479D01*
X81336815Y-102303841D01*
X81694586Y-101946069D01*
X81734810Y-101919192D01*
X81832529Y-101878717D01*
X81879173Y-101859397D01*
X81879176Y-101859395D01*
X81879179Y-101859394D01*
X82010289Y-101771789D01*
X82121789Y-101660289D01*
X82209394Y-101529179D01*
X82269737Y-101383497D01*
X82300500Y-101228842D01*
X82300500Y-101071158D01*
X82300500Y-101071155D01*
X82300499Y-101071153D01*
X82269737Y-100916503D01*
X82269191Y-100915184D01*
X82209397Y-100770827D01*
X82209390Y-100770814D01*
X82121789Y-100639711D01*
X82121786Y-100639707D01*
X82010292Y-100528213D01*
X82010288Y-100528210D01*
X81879185Y-100440609D01*
X81879172Y-100440602D01*
X81733501Y-100380264D01*
X81733489Y-100380261D01*
X81578845Y-100349500D01*
X81578842Y-100349500D01*
X81421158Y-100349500D01*
X81421155Y-100349500D01*
X81266510Y-100380261D01*
X81266498Y-100380264D01*
X81120827Y-100440602D01*
X81120814Y-100440609D01*
X80989711Y-100528210D01*
X80989707Y-100528213D01*
X80878213Y-100639707D01*
X80878210Y-100639711D01*
X80790609Y-100770814D01*
X80790604Y-100770823D01*
X80730809Y-100915184D01*
X80703929Y-100955412D01*
X80055887Y-101603454D01*
X79979222Y-101718192D01*
X79926421Y-101845667D01*
X79926420Y-101845671D01*
X79926420Y-101845672D01*
X79909834Y-101929057D01*
X79909834Y-101929058D01*
X79899500Y-101981006D01*
X79899500Y-104008480D01*
X79879815Y-104075519D01*
X79863181Y-104096161D01*
X77555890Y-106403451D01*
X77555889Y-106403452D01*
X77555886Y-106403457D01*
X77519332Y-106458165D01*
X77499278Y-106488177D01*
X77479225Y-106518188D01*
X77479221Y-106518195D01*
X77426421Y-106645667D01*
X77426418Y-106645677D01*
X77399500Y-106781004D01*
X77399500Y-106781007D01*
X77399500Y-110481006D01*
X77399500Y-110618994D01*
X77399500Y-110618996D01*
X77399499Y-110618996D01*
X77426418Y-110754322D01*
X77426421Y-110754332D01*
X77479222Y-110881807D01*
X77555887Y-110996545D01*
X77577161Y-111017819D01*
X77610646Y-111079142D01*
X77605662Y-111148834D01*
X77563790Y-111204767D01*
X77498326Y-111229184D01*
X77489480Y-111229500D01*
X76225719Y-111229500D01*
X76158680Y-111209815D01*
X76115235Y-111161795D01*
X76095052Y-111122185D01*
X76095051Y-111122184D01*
X75970109Y-110950213D01*
X75819786Y-110799890D01*
X75647817Y-110674949D01*
X75638504Y-110670204D01*
X75587707Y-110622230D01*
X75570912Y-110554409D01*
X75593449Y-110488274D01*
X75638507Y-110449232D01*
X75647555Y-110444622D01*
X75701716Y-110405270D01*
X75701717Y-110405270D01*
X75069408Y-109772962D01*
X75132993Y-109755925D01*
X75247007Y-109690099D01*
X75340099Y-109597007D01*
X75405925Y-109482993D01*
X75422962Y-109419409D01*
X76055270Y-110051717D01*
X76055270Y-110051716D01*
X76094622Y-109997554D01*
X76191095Y-109808217D01*
X76256757Y-109606130D01*
X76256757Y-109606127D01*
X76290000Y-109396246D01*
X76290000Y-109183753D01*
X76256757Y-108973872D01*
X76256757Y-108973869D01*
X76191095Y-108771782D01*
X76094624Y-108582449D01*
X76055270Y-108528282D01*
X76055269Y-108528282D01*
X75422962Y-109160590D01*
X75405925Y-109097007D01*
X75340099Y-108982993D01*
X75247007Y-108889901D01*
X75132993Y-108824075D01*
X75069409Y-108807037D01*
X75701716Y-108174728D01*
X75647547Y-108135373D01*
X75647547Y-108135372D01*
X75638500Y-108130763D01*
X75587706Y-108082788D01*
X75570912Y-108014966D01*
X75593451Y-107948832D01*
X75638508Y-107909793D01*
X75647816Y-107905051D01*
X75734147Y-107842328D01*
X75819786Y-107780109D01*
X75819788Y-107780106D01*
X75819792Y-107780104D01*
X75970104Y-107629792D01*
X75970106Y-107629788D01*
X75970109Y-107629786D01*
X76095048Y-107457820D01*
X76095047Y-107457820D01*
X76095051Y-107457816D01*
X76191557Y-107268412D01*
X76257246Y-107066243D01*
X76290500Y-106856287D01*
X76290500Y-106643713D01*
X76257246Y-106433757D01*
X76191557Y-106231588D01*
X76095051Y-106042184D01*
X76095049Y-106042181D01*
X76095048Y-106042179D01*
X75970109Y-105870213D01*
X75819786Y-105719890D01*
X75647820Y-105594951D01*
X75458414Y-105498444D01*
X75458413Y-105498443D01*
X75458412Y-105498443D01*
X75256243Y-105432754D01*
X75256241Y-105432753D01*
X75256240Y-105432753D01*
X75094957Y-105407208D01*
X75046287Y-105399500D01*
X74833713Y-105399500D01*
X74785042Y-105407208D01*
X74623760Y-105432753D01*
X74421585Y-105498444D01*
X74232179Y-105594951D01*
X74060215Y-105719889D01*
X73946673Y-105833431D01*
X73885350Y-105866915D01*
X73815658Y-105861931D01*
X73759725Y-105820059D01*
X73742810Y-105789082D01*
X73693797Y-105657671D01*
X73693793Y-105657664D01*
X73607547Y-105542455D01*
X73607544Y-105542452D01*
X73492335Y-105456206D01*
X73492328Y-105456202D01*
X73357482Y-105405908D01*
X73357483Y-105405908D01*
X73297883Y-105399501D01*
X73297881Y-105399500D01*
X73297873Y-105399500D01*
X73297864Y-105399500D01*
X71502129Y-105399500D01*
X71502123Y-105399501D01*
X71442516Y-105405908D01*
X71307671Y-105456202D01*
X71307664Y-105456206D01*
X71192455Y-105542452D01*
X71192452Y-105542455D01*
X71106206Y-105657664D01*
X71106202Y-105657671D01*
X71055908Y-105792517D01*
X71049501Y-105852116D01*
X71049500Y-105852135D01*
X71049500Y-107647870D01*
X71049501Y-107647876D01*
X71055908Y-107707483D01*
X71106202Y-107842328D01*
X71106206Y-107842335D01*
X71192452Y-107957544D01*
X71192455Y-107957547D01*
X71307664Y-108043793D01*
X71307671Y-108043797D01*
X71439082Y-108092810D01*
X71495016Y-108134681D01*
X71519433Y-108200145D01*
X71504582Y-108268418D01*
X71483431Y-108296673D01*
X71369889Y-108410215D01*
X71244951Y-108582179D01*
X71148444Y-108771585D01*
X71082753Y-108973760D01*
X71049500Y-109183713D01*
X71049500Y-109396287D01*
X71049541Y-109396545D01*
X71082735Y-109606127D01*
X71082754Y-109606243D01*
X71088387Y-109623581D01*
X71148444Y-109808414D01*
X71244951Y-109997820D01*
X71369890Y-110169786D01*
X71520213Y-110320109D01*
X71692182Y-110445050D01*
X71700946Y-110449516D01*
X71751742Y-110497491D01*
X71768536Y-110565312D01*
X71745998Y-110631447D01*
X71700946Y-110670484D01*
X71692182Y-110674949D01*
X71520213Y-110799890D01*
X71369890Y-110950213D01*
X71244951Y-111122179D01*
X71148444Y-111311585D01*
X71082753Y-111513760D01*
X71051523Y-111710939D01*
X71049500Y-111723713D01*
X71049500Y-111936287D01*
X71082754Y-112146243D01*
X71125431Y-112277590D01*
X71148444Y-112348414D01*
X71244951Y-112537820D01*
X71369890Y-112709786D01*
X71520213Y-112860109D01*
X71692182Y-112985050D01*
X71700946Y-112989516D01*
X71751742Y-113037491D01*
X71768536Y-113105312D01*
X71745998Y-113171447D01*
X71700946Y-113210484D01*
X71692182Y-113214949D01*
X71520213Y-113339890D01*
X71369890Y-113490213D01*
X71244951Y-113662179D01*
X71148444Y-113851585D01*
X71082753Y-114053760D01*
X71049500Y-114263713D01*
X71049500Y-114410903D01*
X71043261Y-114432148D01*
X71041682Y-114454237D01*
X71033609Y-114465020D01*
X71029815Y-114477942D01*
X71013081Y-114492441D01*
X70999810Y-114510170D01*
X70987189Y-114514877D01*
X70977011Y-114523697D01*
X70955093Y-114526848D01*
X70934346Y-114534587D01*
X70921185Y-114531724D01*
X70907853Y-114533641D01*
X70887709Y-114524441D01*
X70866073Y-114519735D01*
X70848347Y-114506466D01*
X70844297Y-114504616D01*
X70837819Y-114498584D01*
X70736819Y-114397584D01*
X70703334Y-114336261D01*
X70700500Y-114309903D01*
X70700500Y-104174500D01*
X70720185Y-104107461D01*
X70772989Y-104061706D01*
X70824500Y-104050500D01*
X76013331Y-104050500D01*
X76013347Y-104050501D01*
X76020943Y-104050501D01*
X76179054Y-104050501D01*
X76179057Y-104050501D01*
X76331785Y-104009577D01*
X76394211Y-103973535D01*
X76468716Y-103930520D01*
X76580520Y-103818716D01*
X76580520Y-103818714D01*
X76590724Y-103808511D01*
X76590727Y-103808506D01*
X77960520Y-102438716D01*
X78039577Y-102301784D01*
X78080501Y-102149057D01*
X78080501Y-101990942D01*
X78080501Y-101983347D01*
X78080500Y-101983329D01*
X78080500Y-99495718D01*
X78100185Y-99428679D01*
X78148207Y-99385233D01*
X78187815Y-99365052D01*
X78187815Y-99365051D01*
X78187816Y-99365051D01*
X78329082Y-99262416D01*
X78359786Y-99240109D01*
X78359788Y-99240106D01*
X78359792Y-99240104D01*
X78510104Y-99089792D01*
X78510106Y-99089788D01*
X78510109Y-99089786D01*
X78595890Y-98971717D01*
X78635051Y-98917816D01*
X78639793Y-98908508D01*
X78687763Y-98857711D01*
X78755583Y-98840911D01*
X78821719Y-98863445D01*
X78860763Y-98908500D01*
X78865373Y-98917547D01*
X78904728Y-98971716D01*
X79537037Y-98339408D01*
X79554075Y-98402993D01*
X79619901Y-98517007D01*
X79712993Y-98610099D01*
X79827007Y-98675925D01*
X79890590Y-98692962D01*
X79258282Y-99325269D01*
X79258282Y-99325270D01*
X79312449Y-99364624D01*
X79501782Y-99461095D01*
X79703870Y-99526757D01*
X79913754Y-99560000D01*
X80126246Y-99560000D01*
X80336127Y-99526757D01*
X80336130Y-99526757D01*
X80538217Y-99461095D01*
X80727554Y-99364622D01*
X80781716Y-99325270D01*
X80781717Y-99325270D01*
X80149408Y-98692962D01*
X80212993Y-98675925D01*
X80327007Y-98610099D01*
X80420099Y-98517007D01*
X80485925Y-98402993D01*
X80502962Y-98339409D01*
X81135270Y-98971717D01*
X81135270Y-98971716D01*
X81174622Y-98917555D01*
X81179232Y-98908507D01*
X81227205Y-98857709D01*
X81295025Y-98840912D01*
X81361161Y-98863447D01*
X81400204Y-98908504D01*
X81404949Y-98917817D01*
X81529890Y-99089786D01*
X81680213Y-99240109D01*
X81852179Y-99365048D01*
X81852181Y-99365049D01*
X81852184Y-99365051D01*
X82041588Y-99461557D01*
X82243757Y-99527246D01*
X82453713Y-99560500D01*
X82453714Y-99560500D01*
X82666286Y-99560500D01*
X82666287Y-99560500D01*
X82876243Y-99527246D01*
X83078412Y-99461557D01*
X83267816Y-99365051D01*
X83322572Y-99325269D01*
X83439786Y-99240109D01*
X83439788Y-99240106D01*
X83439792Y-99240104D01*
X83590104Y-99089792D01*
X83590106Y-99089788D01*
X83590109Y-99089786D01*
X83715048Y-98917820D01*
X83715047Y-98917820D01*
X83715051Y-98917816D01*
X83719514Y-98909054D01*
X83767488Y-98858259D01*
X83835308Y-98841463D01*
X83901444Y-98863999D01*
X83940486Y-98909056D01*
X83944951Y-98917820D01*
X84069890Y-99089786D01*
X84220213Y-99240109D01*
X84392179Y-99365048D01*
X84392181Y-99365049D01*
X84392184Y-99365051D01*
X84581588Y-99461557D01*
X84783757Y-99527246D01*
X84993713Y-99560500D01*
X84993714Y-99560500D01*
X85206286Y-99560500D01*
X85206287Y-99560500D01*
X85416243Y-99527246D01*
X85618412Y-99461557D01*
X85807816Y-99365051D01*
X85862572Y-99325269D01*
X85979786Y-99240109D01*
X85979788Y-99240106D01*
X85979792Y-99240104D01*
X86130104Y-99089792D01*
X86130106Y-99089788D01*
X86130109Y-99089786D01*
X86255048Y-98917820D01*
X86255047Y-98917820D01*
X86255051Y-98917816D01*
X86351557Y-98728412D01*
X86417246Y-98526243D01*
X86450500Y-98316287D01*
X86450500Y-98103713D01*
X86417246Y-97893757D01*
X86351557Y-97691588D01*
X86255051Y-97502184D01*
X86255049Y-97502181D01*
X86255048Y-97502179D01*
X86130109Y-97330213D01*
X85979786Y-97179890D01*
X85807815Y-97054948D01*
X85807814Y-97054947D01*
X85768205Y-97034765D01*
X85717409Y-96986791D01*
X85700500Y-96924281D01*
X85700500Y-95939060D01*
X85700501Y-95939047D01*
X85700501Y-95770944D01*
X85686760Y-95719662D01*
X85659577Y-95618216D01*
X85620481Y-95550499D01*
X85580524Y-95481290D01*
X85580518Y-95481282D01*
X85397961Y-95298726D01*
X85397959Y-95298723D01*
X85268717Y-95169481D01*
X85268709Y-95169475D01*
X85180789Y-95118715D01*
X85180788Y-95118715D01*
X85160077Y-95106757D01*
X85131785Y-95090423D01*
X84979057Y-95049499D01*
X84820943Y-95049499D01*
X84813347Y-95049499D01*
X84813331Y-95049500D01*
X69686670Y-95049500D01*
X69686654Y-95049499D01*
X69679058Y-95049499D01*
X69520943Y-95049499D01*
X69444579Y-95069961D01*
X69368214Y-95090423D01*
X69368209Y-95090426D01*
X69231290Y-95169475D01*
X69231282Y-95169481D01*
X68119479Y-96281284D01*
X68116284Y-96286819D01*
X68091054Y-96330520D01*
X68040423Y-96418215D01*
X67999499Y-96570943D01*
X67999499Y-96729057D01*
X67999499Y-96729059D01*
X67999500Y-96739053D01*
X67999500Y-123183330D01*
X67999499Y-123183348D01*
X67999499Y-123349054D01*
X67999498Y-123349054D01*
X67000500Y-123349054D01*
X67000500Y-94535258D01*
X88849500Y-94535258D01*
X88849500Y-94764741D01*
X88857940Y-94828842D01*
X88879452Y-94992238D01*
X88916553Y-95130701D01*
X88938842Y-95213887D01*
X89026650Y-95425876D01*
X89026657Y-95425890D01*
X89141392Y-95624617D01*
X89281081Y-95806661D01*
X89281089Y-95806670D01*
X89443330Y-95968911D01*
X89443338Y-95968918D01*
X89625382Y-96108607D01*
X89625385Y-96108608D01*
X89625388Y-96108611D01*
X89824112Y-96223344D01*
X89824117Y-96223346D01*
X89824123Y-96223349D01*
X89889672Y-96250500D01*
X90036113Y-96311158D01*
X90257762Y-96370548D01*
X90485266Y-96400500D01*
X90485273Y-96400500D01*
X90714727Y-96400500D01*
X90714734Y-96400500D01*
X90942238Y-96370548D01*
X91163887Y-96311158D01*
X91375888Y-96223344D01*
X91574612Y-96108611D01*
X91756661Y-95968919D01*
X91756665Y-95968914D01*
X91756670Y-95968911D01*
X91918911Y-95806670D01*
X91918914Y-95806665D01*
X91918919Y-95806661D01*
X91977125Y-95730806D01*
X92033553Y-95689604D01*
X92103299Y-95685449D01*
X92164219Y-95719662D01*
X92196971Y-95781379D01*
X92199500Y-95806293D01*
X92199500Y-101370234D01*
X92179815Y-101437273D01*
X92178602Y-101439125D01*
X92090609Y-101570814D01*
X92090602Y-101570827D01*
X92030264Y-101716498D01*
X92030261Y-101716510D01*
X91999500Y-101871153D01*
X91999500Y-102028846D01*
X92030261Y-102183489D01*
X92030264Y-102183501D01*
X92090602Y-102329172D01*
X92090609Y-102329185D01*
X92178210Y-102460288D01*
X92178213Y-102460292D01*
X92289707Y-102571786D01*
X92289711Y-102571789D01*
X92420814Y-102659390D01*
X92420827Y-102659397D01*
X92537812Y-102707853D01*
X92566503Y-102719737D01*
X92721153Y-102750499D01*
X92721156Y-102750500D01*
X92721158Y-102750500D01*
X92878844Y-102750500D01*
X92878845Y-102750499D01*
X93033497Y-102719737D01*
X93179179Y-102659394D01*
X93310289Y-102571789D01*
X93342105Y-102539972D01*
X93352640Y-102534219D01*
X93360283Y-102524963D01*
X93382735Y-102517785D01*
X93403426Y-102506487D01*
X93417064Y-102506811D01*
X93426835Y-102503688D01*
X93461880Y-102507878D01*
X93468211Y-102509574D01*
X93468216Y-102509577D01*
X93580019Y-102539534D01*
X93620942Y-102550500D01*
X93620943Y-102550500D01*
X103220234Y-102550500D01*
X103287273Y-102570185D01*
X103289125Y-102571398D01*
X103420814Y-102659390D01*
X103420827Y-102659397D01*
X103537812Y-102707853D01*
X103566503Y-102719737D01*
X103721153Y-102750499D01*
X103721156Y-102750500D01*
X103721158Y-102750500D01*
X103878844Y-102750500D01*
X103878845Y-102750499D01*
X104033497Y-102719737D01*
X104179179Y-102659394D01*
X104310289Y-102571789D01*
X104421789Y-102460289D01*
X104509394Y-102329179D01*
X104569737Y-102183497D01*
X104600500Y-102028842D01*
X104600500Y-101871158D01*
X104600500Y-101871155D01*
X104600499Y-101871153D01*
X104580734Y-101771789D01*
X104569737Y-101716503D01*
X104546452Y-101660288D01*
X104509397Y-101570827D01*
X104509390Y-101570814D01*
X104421789Y-101439711D01*
X104421786Y-101439707D01*
X104310292Y-101328213D01*
X104310288Y-101328210D01*
X104179185Y-101240609D01*
X104179172Y-101240602D01*
X104033501Y-101180264D01*
X104033489Y-101180261D01*
X103878845Y-101149500D01*
X103878842Y-101149500D01*
X103721158Y-101149500D01*
X103721155Y-101149500D01*
X103566510Y-101180261D01*
X103566498Y-101180264D01*
X103420827Y-101240602D01*
X103420814Y-101240609D01*
X103289125Y-101328602D01*
X103222447Y-101349480D01*
X103220234Y-101349500D01*
X94324500Y-101349500D01*
X94257461Y-101329815D01*
X94211706Y-101277011D01*
X94200500Y-101225500D01*
X94200500Y-95253439D01*
X94220185Y-95186400D01*
X94272989Y-95140645D01*
X94342147Y-95130701D01*
X94405703Y-95159726D01*
X94427602Y-95184548D01*
X94478210Y-95260288D01*
X94478213Y-95260292D01*
X94589707Y-95371786D01*
X94589711Y-95371789D01*
X94720814Y-95459390D01*
X94720827Y-95459397D01*
X94866498Y-95519735D01*
X94866503Y-95519737D01*
X95021153Y-95550499D01*
X95021156Y-95550500D01*
X95021158Y-95550500D01*
X95178844Y-95550500D01*
X95178845Y-95550499D01*
X95333497Y-95519737D01*
X95479179Y-95459394D01*
X95610289Y-95371789D01*
X95721789Y-95260289D01*
X95809394Y-95129179D01*
X95869737Y-94983497D01*
X95900500Y-94828842D01*
X95900638Y-94828150D01*
X95933023Y-94766239D01*
X95934518Y-94764716D01*
X99480519Y-91218716D01*
X99559577Y-91081785D01*
X99600501Y-90929057D01*
X99600501Y-90770943D01*
X99559577Y-90618215D01*
X99535199Y-90575992D01*
X99517113Y-90544665D01*
X99500500Y-90482665D01*
X99500500Y-89881902D01*
X118599500Y-89881902D01*
X118599500Y-90118097D01*
X118636446Y-90351368D01*
X118709433Y-90575996D01*
X118773262Y-90701266D01*
X118816657Y-90786433D01*
X118955483Y-90977510D01*
X119122490Y-91144517D01*
X119313567Y-91283343D01*
X119412991Y-91334002D01*
X119524003Y-91390566D01*
X119524005Y-91390566D01*
X119524008Y-91390568D01*
X119644412Y-91429689D01*
X119748631Y-91463553D01*
X119981903Y-91500500D01*
X119981908Y-91500500D01*
X120218097Y-91500500D01*
X120451368Y-91463553D01*
X120675992Y-91390568D01*
X120886433Y-91283343D01*
X121077510Y-91144517D01*
X121244517Y-90977510D01*
X121383343Y-90786433D01*
X121490568Y-90575992D01*
X121563553Y-90351368D01*
X121571689Y-90299998D01*
X121600500Y-90118097D01*
X121600500Y-89881902D01*
X121563553Y-89648631D01*
X121490566Y-89424003D01*
X121434002Y-89312991D01*
X121383343Y-89213567D01*
X121244517Y-89022490D01*
X121077510Y-88855483D01*
X120886433Y-88716657D01*
X120675996Y-88609433D01*
X120451368Y-88536446D01*
X120218097Y-88499500D01*
X120218092Y-88499500D01*
X119981908Y-88499500D01*
X119981903Y-88499500D01*
X119748631Y-88536446D01*
X119524003Y-88609433D01*
X119313566Y-88716657D01*
X119224193Y-88781591D01*
X119122490Y-88855483D01*
X119122488Y-88855485D01*
X119122487Y-88855485D01*
X118955485Y-89022487D01*
X118955485Y-89022488D01*
X118955483Y-89022490D01*
X118895862Y-89104550D01*
X118816657Y-89213566D01*
X118709433Y-89424003D01*
X118636446Y-89648631D01*
X118599500Y-89881902D01*
X99500500Y-89881902D01*
X99500500Y-88050096D01*
X99520185Y-87983057D01*
X99536814Y-87962420D01*
X102658506Y-84840727D01*
X102658511Y-84840724D01*
X102668714Y-84830520D01*
X102668716Y-84830520D01*
X102780520Y-84718716D01*
X102859577Y-84581784D01*
X102900500Y-84429057D01*
X102900500Y-82450097D01*
X102920185Y-82383058D01*
X102936819Y-82362416D01*
X109712416Y-75586819D01*
X109773739Y-75553334D01*
X109800097Y-75550500D01*
X112913331Y-75550500D01*
X112913347Y-75550501D01*
X112920943Y-75550501D01*
X113079054Y-75550501D01*
X113079057Y-75550501D01*
X113231785Y-75509577D01*
X113281904Y-75480639D01*
X113368716Y-75430520D01*
X113480520Y-75318716D01*
X113480520Y-75318714D01*
X113680520Y-75118716D01*
X113759577Y-74981784D01*
X113800501Y-74829057D01*
X113800501Y-74670942D01*
X113800501Y-74663347D01*
X113800500Y-74663329D01*
X113800500Y-72652135D01*
X116274500Y-72652135D01*
X116274500Y-74447870D01*
X116274501Y-74447876D01*
X116280908Y-74507483D01*
X116331202Y-74642328D01*
X116331206Y-74642335D01*
X116417452Y-74757544D01*
X116417455Y-74757547D01*
X116532664Y-74843793D01*
X116532671Y-74843797D01*
X116667517Y-74894091D01*
X116667516Y-74894091D01*
X116674444Y-74894835D01*
X116727127Y-74900500D01*
X118522872Y-74900499D01*
X118582483Y-74894091D01*
X118717331Y-74843796D01*
X118832546Y-74757546D01*
X118918796Y-74642331D01*
X118969091Y-74507483D01*
X118975500Y-74447873D01*
X118975499Y-74423979D01*
X118978330Y-74410963D01*
X118988940Y-74391525D01*
X118995179Y-74370275D01*
X119011803Y-74349643D01*
X119011808Y-74349636D01*
X119011811Y-74349634D01*
X119011818Y-74349626D01*
X119682037Y-73679408D01*
X119699075Y-73742993D01*
X119764901Y-73857007D01*
X119857993Y-73950099D01*
X119972007Y-74015925D01*
X120035590Y-74032962D01*
X119403282Y-74665269D01*
X119403282Y-74665270D01*
X119457449Y-74704624D01*
X119646782Y-74801095D01*
X119848870Y-74866757D01*
X120058754Y-74900000D01*
X120271246Y-74900000D01*
X120481127Y-74866757D01*
X120481130Y-74866757D01*
X120683217Y-74801095D01*
X120872554Y-74704622D01*
X120926716Y-74665270D01*
X120926717Y-74665270D01*
X120294408Y-74032962D01*
X120357993Y-74015925D01*
X120472007Y-73950099D01*
X120565099Y-73857007D01*
X120630925Y-73742993D01*
X120647962Y-73679408D01*
X121280270Y-74311717D01*
X121280270Y-74311716D01*
X121319622Y-74257554D01*
X121416095Y-74068217D01*
X121481757Y-73866130D01*
X121481757Y-73866127D01*
X121515000Y-73656246D01*
X121515000Y-73443753D01*
X121481757Y-73233872D01*
X121481757Y-73233869D01*
X121416095Y-73031782D01*
X121319624Y-72842449D01*
X121280270Y-72788282D01*
X121280269Y-72788282D01*
X120647962Y-73420590D01*
X120630925Y-73357007D01*
X120565099Y-73242993D01*
X120472007Y-73149901D01*
X120357993Y-73084075D01*
X120294409Y-73067037D01*
X120926716Y-72434728D01*
X120872550Y-72395375D01*
X120683217Y-72298904D01*
X120481129Y-72233242D01*
X120271246Y-72200000D01*
X120058754Y-72200000D01*
X119848872Y-72233242D01*
X119848869Y-72233242D01*
X119646782Y-72298904D01*
X119457439Y-72395380D01*
X119403282Y-72434727D01*
X119403282Y-72434728D01*
X120035591Y-73067037D01*
X119972007Y-73084075D01*
X119857993Y-73149901D01*
X119764901Y-73242993D01*
X119699075Y-73357007D01*
X119682037Y-73420591D01*
X119011818Y-72750372D01*
X118978333Y-72689049D01*
X118978330Y-72689036D01*
X118975499Y-72676015D01*
X118975499Y-72652128D01*
X118969091Y-72592517D01*
X118940926Y-72517002D01*
X118918798Y-72457673D01*
X118918793Y-72457664D01*
X118832547Y-72342455D01*
X118832544Y-72342452D01*
X118717335Y-72256206D01*
X118717328Y-72256202D01*
X118582482Y-72205908D01*
X118582483Y-72205908D01*
X118522883Y-72199501D01*
X118522881Y-72199500D01*
X118522873Y-72199500D01*
X118522864Y-72199500D01*
X116727129Y-72199500D01*
X116727123Y-72199501D01*
X116667516Y-72205908D01*
X116532671Y-72256202D01*
X116532664Y-72256206D01*
X116417455Y-72342452D01*
X116417452Y-72342455D01*
X116331206Y-72457664D01*
X116331202Y-72457671D01*
X116280908Y-72592517D01*
X116274501Y-72652116D01*
X116274500Y-72652135D01*
X113800500Y-72652135D01*
X113800500Y-71624499D01*
X113820185Y-71557460D01*
X113872989Y-71511705D01*
X113924500Y-71500499D01*
X114097871Y-71500499D01*
X114097872Y-71500499D01*
X114157483Y-71494091D01*
X114292331Y-71443796D01*
X114407546Y-71357546D01*
X114493796Y-71242331D01*
X114544091Y-71107483D01*
X114550500Y-71047873D01*
X114550499Y-70067648D01*
X117599500Y-70067648D01*
X117599500Y-70272351D01*
X117631522Y-70474534D01*
X117694781Y-70669223D01*
X117787715Y-70851613D01*
X117908028Y-71017213D01*
X118052786Y-71161971D01*
X118163400Y-71242335D01*
X118218390Y-71282287D01*
X118334607Y-71341503D01*
X118400776Y-71375218D01*
X118400778Y-71375218D01*
X118400781Y-71375220D01*
X118481832Y-71401555D01*
X118595465Y-71438477D01*
X118696557Y-71454488D01*
X118797648Y-71470500D01*
X118797649Y-71470500D01*
X119002351Y-71470500D01*
X119002352Y-71470500D01*
X119204534Y-71438477D01*
X119399219Y-71375220D01*
X119581610Y-71282287D01*
X119722246Y-71180110D01*
X119747213Y-71161971D01*
X119747215Y-71161968D01*
X119747219Y-71161966D01*
X119891966Y-71017219D01*
X119891968Y-71017215D01*
X119891971Y-71017213D01*
X119944732Y-70944590D01*
X120012287Y-70851610D01*
X120105220Y-70669219D01*
X120168477Y-70474534D01*
X120200500Y-70272352D01*
X120200500Y-70067648D01*
X120168477Y-69865466D01*
X120105220Y-69670781D01*
X120105218Y-69670778D01*
X120105218Y-69670776D01*
X120071503Y-69604607D01*
X120012287Y-69488390D01*
X119978717Y-69442184D01*
X119891971Y-69322786D01*
X119747213Y-69178028D01*
X119581613Y-69057715D01*
X119581612Y-69057714D01*
X119581610Y-69057713D01*
X119524653Y-69028691D01*
X119399223Y-68964781D01*
X119204534Y-68901522D01*
X119029995Y-68873878D01*
X119002352Y-68869500D01*
X118797648Y-68869500D01*
X118773329Y-68873351D01*
X118595465Y-68901522D01*
X118400776Y-68964781D01*
X118218386Y-69057715D01*
X118052786Y-69178028D01*
X117908028Y-69322786D01*
X117787715Y-69488386D01*
X117694781Y-69670776D01*
X117631522Y-69865465D01*
X117599500Y-70067648D01*
X114550499Y-70067648D01*
X114550499Y-69252128D01*
X114544091Y-69192517D01*
X114542810Y-69189083D01*
X114493797Y-69057671D01*
X114493793Y-69057664D01*
X114407547Y-68942455D01*
X114407544Y-68942452D01*
X114292335Y-68856206D01*
X114292328Y-68856202D01*
X114157482Y-68805908D01*
X114157483Y-68805908D01*
X114097883Y-68799501D01*
X114097881Y-68799500D01*
X114097873Y-68799500D01*
X114097864Y-68799500D01*
X112302129Y-68799500D01*
X112302123Y-68799501D01*
X112242516Y-68805908D01*
X112107671Y-68856202D01*
X112107664Y-68856206D01*
X111992455Y-68942452D01*
X111992452Y-68942455D01*
X111906206Y-69057664D01*
X111906203Y-69057669D01*
X111857189Y-69189083D01*
X111815317Y-69245016D01*
X111749853Y-69269433D01*
X111681580Y-69254581D01*
X111653326Y-69233430D01*
X111539786Y-69119890D01*
X111367820Y-68994951D01*
X111178414Y-68898444D01*
X111178413Y-68898443D01*
X111178412Y-68898443D01*
X110976243Y-68832754D01*
X110976241Y-68832753D01*
X110976240Y-68832753D01*
X110814957Y-68807208D01*
X110766287Y-68799500D01*
X110553713Y-68799500D01*
X110505042Y-68807208D01*
X110343760Y-68832753D01*
X110141585Y-68898444D01*
X109952179Y-68994951D01*
X109780213Y-69119890D01*
X109629890Y-69270213D01*
X109504949Y-69442182D01*
X109500484Y-69450946D01*
X109452509Y-69501742D01*
X109384688Y-69518536D01*
X109318553Y-69495998D01*
X109279516Y-69450946D01*
X109275050Y-69442182D01*
X109150109Y-69270213D01*
X108999786Y-69119890D01*
X108827820Y-68994951D01*
X108638414Y-68898444D01*
X108638413Y-68898443D01*
X108638412Y-68898443D01*
X108436243Y-68832754D01*
X108436241Y-68832753D01*
X108436240Y-68832753D01*
X108274957Y-68807208D01*
X108226287Y-68799500D01*
X108013713Y-68799500D01*
X107965042Y-68807208D01*
X107803760Y-68832753D01*
X107601585Y-68898444D01*
X107412179Y-68994951D01*
X107240213Y-69119890D01*
X107089890Y-69270213D01*
X106964949Y-69442182D01*
X106960484Y-69450946D01*
X106912509Y-69501742D01*
X106844688Y-69518536D01*
X106778553Y-69495998D01*
X106739516Y-69450946D01*
X106735050Y-69442182D01*
X106610109Y-69270213D01*
X106459786Y-69119890D01*
X106287820Y-68994951D01*
X106098414Y-68898444D01*
X106098413Y-68898443D01*
X106098412Y-68898443D01*
X105896243Y-68832754D01*
X105896241Y-68832753D01*
X105896240Y-68832753D01*
X105734957Y-68807208D01*
X105686287Y-68799500D01*
X105473713Y-68799500D01*
X105425042Y-68807208D01*
X105263760Y-68832753D01*
X105061585Y-68898444D01*
X104872179Y-68994951D01*
X104700213Y-69119890D01*
X104549890Y-69270213D01*
X104424949Y-69442182D01*
X104420484Y-69450946D01*
X104372509Y-69501742D01*
X104304688Y-69518536D01*
X104238553Y-69495998D01*
X104199516Y-69450946D01*
X104195050Y-69442182D01*
X104070109Y-69270213D01*
X103919786Y-69119890D01*
X103747820Y-68994951D01*
X103558414Y-68898444D01*
X103558413Y-68898443D01*
X103558412Y-68898443D01*
X103356243Y-68832754D01*
X103356241Y-68832753D01*
X103356240Y-68832753D01*
X103194957Y-68807208D01*
X103146287Y-68799500D01*
X102933713Y-68799500D01*
X102885042Y-68807208D01*
X102723760Y-68832753D01*
X102521585Y-68898444D01*
X102332179Y-68994951D01*
X102160213Y-69119890D01*
X102009890Y-69270213D01*
X101884949Y-69442182D01*
X101880484Y-69450946D01*
X101832509Y-69501742D01*
X101764688Y-69518536D01*
X101698553Y-69495998D01*
X101659516Y-69450946D01*
X101655050Y-69442182D01*
X101530109Y-69270213D01*
X101379786Y-69119890D01*
X101207820Y-68994951D01*
X101018414Y-68898444D01*
X101018413Y-68898443D01*
X101018412Y-68898443D01*
X100816243Y-68832754D01*
X100816241Y-68832753D01*
X100816240Y-68832753D01*
X100654957Y-68807208D01*
X100606287Y-68799500D01*
X100393713Y-68799500D01*
X100345042Y-68807208D01*
X100183760Y-68832753D01*
X99981585Y-68898444D01*
X99792179Y-68994951D01*
X99620213Y-69119890D01*
X99469890Y-69270213D01*
X99344951Y-69442179D01*
X99248444Y-69631585D01*
X99182753Y-69833760D01*
X99149500Y-70043713D01*
X99149500Y-70256287D01*
X99159534Y-70319644D01*
X99182753Y-70466239D01*
X99248444Y-70668414D01*
X99344951Y-70857820D01*
X99469890Y-71029786D01*
X99620213Y-71180109D01*
X99792179Y-71305048D01*
X99792181Y-71305049D01*
X99792184Y-71305051D01*
X99981588Y-71401557D01*
X100183757Y-71467246D01*
X100393713Y-71500500D01*
X100393714Y-71500500D01*
X100606286Y-71500500D01*
X100606287Y-71500500D01*
X100816243Y-71467246D01*
X101018412Y-71401557D01*
X101207816Y-71305051D01*
X101294138Y-71242335D01*
X101379786Y-71180109D01*
X101379788Y-71180106D01*
X101379792Y-71180104D01*
X101530104Y-71029792D01*
X101530106Y-71029788D01*
X101530109Y-71029786D01*
X101655048Y-70857820D01*
X101655047Y-70857820D01*
X101655051Y-70857816D01*
X101659514Y-70849054D01*
X101707488Y-70798259D01*
X101775308Y-70781463D01*
X101841444Y-70803999D01*
X101880484Y-70849054D01*
X101884591Y-70857115D01*
X101884951Y-70857820D01*
X102009890Y-71029786D01*
X102160213Y-71180109D01*
X102332179Y-71305048D01*
X102332181Y-71305049D01*
X102332184Y-71305051D01*
X102521588Y-71401557D01*
X102723757Y-71467246D01*
X102933713Y-71500500D01*
X102933714Y-71500500D01*
X103146286Y-71500500D01*
X103146287Y-71500500D01*
X103356243Y-71467246D01*
X103558412Y-71401557D01*
X103747816Y-71305051D01*
X103834138Y-71242335D01*
X103919786Y-71180109D01*
X103919788Y-71180106D01*
X103919792Y-71180104D01*
X104070104Y-71029792D01*
X104070106Y-71029788D01*
X104070109Y-71029786D01*
X104195048Y-70857820D01*
X104195047Y-70857820D01*
X104195051Y-70857816D01*
X104199514Y-70849054D01*
X104247488Y-70798259D01*
X104315308Y-70781463D01*
X104381444Y-70803999D01*
X104420484Y-70849054D01*
X104424591Y-70857115D01*
X104424951Y-70857820D01*
X104549890Y-71029786D01*
X104700213Y-71180109D01*
X104872179Y-71305048D01*
X104872181Y-71305049D01*
X104872184Y-71305051D01*
X105061588Y-71401557D01*
X105263757Y-71467246D01*
X105473713Y-71500500D01*
X105473714Y-71500500D01*
X105686286Y-71500500D01*
X105686287Y-71500500D01*
X105896243Y-71467246D01*
X106098412Y-71401557D01*
X106287816Y-71305051D01*
X106374138Y-71242335D01*
X106459786Y-71180109D01*
X106459788Y-71180106D01*
X106459792Y-71180104D01*
X106610104Y-71029792D01*
X106610106Y-71029788D01*
X106610109Y-71029786D01*
X106735048Y-70857820D01*
X106735047Y-70857820D01*
X106735051Y-70857816D01*
X106739514Y-70849054D01*
X106787488Y-70798259D01*
X106855308Y-70781463D01*
X106921444Y-70803999D01*
X106960484Y-70849054D01*
X106964591Y-70857115D01*
X106964951Y-70857820D01*
X107089890Y-71029786D01*
X107240213Y-71180109D01*
X107412184Y-71305051D01*
X107412184Y-71305052D01*
X107451793Y-71325233D01*
X107502590Y-71373206D01*
X107519500Y-71435718D01*
X107519500Y-73129902D01*
X107499815Y-73196941D01*
X107483181Y-73217583D01*
X99619481Y-81081282D01*
X99619479Y-81081285D01*
X99569361Y-81168094D01*
X99569359Y-81168096D01*
X99540425Y-81218209D01*
X99540424Y-81218210D01*
X99540423Y-81218215D01*
X99499499Y-81370943D01*
X99499499Y-81370945D01*
X99499499Y-81539046D01*
X99499500Y-81539059D01*
X99499500Y-83049902D01*
X99479815Y-83116941D01*
X99463181Y-83137583D01*
X96719481Y-85881282D01*
X96719479Y-85881285D01*
X96669361Y-85968094D01*
X96669359Y-85968096D01*
X96640425Y-86018209D01*
X96640424Y-86018210D01*
X96640423Y-86018215D01*
X96599499Y-86170943D01*
X96599499Y-86170945D01*
X96599499Y-86339046D01*
X96599500Y-86339059D01*
X96599500Y-89149902D01*
X96579815Y-89216941D01*
X96563181Y-89237583D01*
X92319481Y-93481282D01*
X92319479Y-93481284D01*
X92291797Y-93529232D01*
X92280096Y-93549500D01*
X92240423Y-93618215D01*
X92240412Y-93618253D01*
X92236329Y-93625329D01*
X92216393Y-93644341D01*
X92198958Y-93665679D01*
X92191467Y-93668115D01*
X92185768Y-93673551D01*
X92158715Y-93678768D01*
X92132515Y-93687291D01*
X92124897Y-93685291D01*
X92117163Y-93686783D01*
X92091584Y-93676546D01*
X92064935Y-93669551D01*
X92057499Y-93662905D01*
X92052295Y-93660823D01*
X92047261Y-93653756D01*
X92030559Y-93638830D01*
X91918918Y-93493338D01*
X91918911Y-93493330D01*
X91756670Y-93331089D01*
X91756661Y-93331081D01*
X91574617Y-93191392D01*
X91375890Y-93076657D01*
X91375876Y-93076650D01*
X91163887Y-92988842D01*
X90942238Y-92929452D01*
X90904215Y-92924446D01*
X90714741Y-92899500D01*
X90714734Y-92899500D01*
X90485266Y-92899500D01*
X90485258Y-92899500D01*
X90268715Y-92928009D01*
X90257762Y-92929452D01*
X90164076Y-92954554D01*
X90036112Y-92988842D01*
X89824123Y-93076650D01*
X89824109Y-93076657D01*
X89625382Y-93191392D01*
X89443338Y-93331081D01*
X89281081Y-93493338D01*
X89141392Y-93675382D01*
X89026657Y-93874109D01*
X89026650Y-93874123D01*
X88938842Y-94086112D01*
X88879453Y-94307759D01*
X88879451Y-94307770D01*
X88849500Y-94535258D01*
X67000500Y-94535258D01*
X67000500Y-88435305D01*
X92250000Y-88435305D01*
X92250000Y-88664694D01*
X92250001Y-88664710D01*
X92279942Y-88892137D01*
X92339318Y-89113730D01*
X92427102Y-89325659D01*
X92427106Y-89325669D01*
X92541799Y-89524324D01*
X92541805Y-89524331D01*
X92598381Y-89598064D01*
X93435387Y-88761058D01*
X93440889Y-88781591D01*
X93519881Y-88918408D01*
X93631592Y-89030119D01*
X93768409Y-89109111D01*
X93788940Y-89114612D01*
X92951934Y-89951617D01*
X92951934Y-89951618D01*
X93025666Y-90008194D01*
X93224330Y-90122893D01*
X93224340Y-90122897D01*
X93436269Y-90210681D01*
X93657862Y-90270057D01*
X93885289Y-90299998D01*
X93885306Y-90300000D01*
X94114694Y-90300000D01*
X94114710Y-90299998D01*
X94342137Y-90270057D01*
X94563730Y-90210681D01*
X94775659Y-90122897D01*
X94775668Y-90122893D01*
X94974327Y-90008197D01*
X94974334Y-90008192D01*
X95048064Y-89951617D01*
X94211059Y-89114612D01*
X94231591Y-89109111D01*
X94368408Y-89030119D01*
X94480119Y-88918408D01*
X94559111Y-88781591D01*
X94564612Y-88761059D01*
X95401617Y-89598064D01*
X95458192Y-89524334D01*
X95458197Y-89524327D01*
X95572893Y-89325668D01*
X95572897Y-89325659D01*
X95660681Y-89113730D01*
X95720057Y-88892137D01*
X95749998Y-88664710D01*
X95750000Y-88664694D01*
X95750000Y-88435305D01*
X95749998Y-88435289D01*
X95720057Y-88207862D01*
X95660681Y-87986269D01*
X95572897Y-87774340D01*
X95572893Y-87774330D01*
X95458194Y-87575666D01*
X95401618Y-87501934D01*
X95401617Y-87501934D01*
X94564612Y-88338939D01*
X94559111Y-88318409D01*
X94480119Y-88181592D01*
X94368408Y-88069881D01*
X94231591Y-87990889D01*
X94211057Y-87985387D01*
X95048064Y-87148381D01*
X95048064Y-87148380D01*
X94974331Y-87091805D01*
X94974324Y-87091799D01*
X94775669Y-86977106D01*
X94775659Y-86977102D01*
X94563730Y-86889318D01*
X94342137Y-86829942D01*
X94114710Y-86800001D01*
X94114694Y-86800000D01*
X93885306Y-86800000D01*
X93885289Y-86800001D01*
X93657862Y-86829942D01*
X93436269Y-86889318D01*
X93224340Y-86977102D01*
X93224330Y-86977106D01*
X93025673Y-87091801D01*
X93025659Y-87091810D01*
X92951934Y-87148380D01*
X93788940Y-87985387D01*
X93768409Y-87990889D01*
X93631592Y-88069881D01*
X93519881Y-88181592D01*
X93440889Y-88318409D01*
X93435387Y-88338940D01*
X92598380Y-87501934D01*
X92541810Y-87575659D01*
X92541801Y-87575673D01*
X92427106Y-87774330D01*
X92427102Y-87774340D01*
X92339318Y-87986269D01*
X92279942Y-88207862D01*
X92250001Y-88435289D01*
X92250000Y-88435305D01*
X67000500Y-88435305D01*
X67000500Y-82635258D01*
X95249500Y-82635258D01*
X95249500Y-82864741D01*
X95273878Y-83049902D01*
X95279452Y-83092238D01*
X95279453Y-83092240D01*
X95338842Y-83313887D01*
X95426650Y-83525876D01*
X95426657Y-83525890D01*
X95541392Y-83724617D01*
X95681081Y-83906661D01*
X95681089Y-83906670D01*
X95843330Y-84068911D01*
X95843338Y-84068918D01*
X96025382Y-84208607D01*
X96025385Y-84208608D01*
X96025388Y-84208611D01*
X96224112Y-84323344D01*
X96224117Y-84323346D01*
X96224123Y-84323349D01*
X96315480Y-84361190D01*
X96436113Y-84411158D01*
X96657762Y-84470548D01*
X96885266Y-84500500D01*
X96885273Y-84500500D01*
X97114727Y-84500500D01*
X97114734Y-84500500D01*
X97342238Y-84470548D01*
X97563887Y-84411158D01*
X97775888Y-84323344D01*
X97974612Y-84208611D01*
X98156661Y-84068919D01*
X98156665Y-84068914D01*
X98156670Y-84068911D01*
X98318911Y-83906670D01*
X98318914Y-83906665D01*
X98318919Y-83906661D01*
X98458611Y-83724612D01*
X98573344Y-83525888D01*
X98661158Y-83313887D01*
X98720548Y-83092238D01*
X98750500Y-82864734D01*
X98750500Y-82635266D01*
X98720548Y-82407762D01*
X98661158Y-82186113D01*
X98573344Y-81974112D01*
X98458611Y-81775388D01*
X98458608Y-81775385D01*
X98458607Y-81775382D01*
X98318918Y-81593338D01*
X98318911Y-81593330D01*
X98156670Y-81431089D01*
X98156661Y-81431081D01*
X97974617Y-81291392D01*
X97775890Y-81176657D01*
X97775876Y-81176650D01*
X97563887Y-81088842D01*
X97342238Y-81029452D01*
X97304215Y-81024446D01*
X97114741Y-80999500D01*
X97114734Y-80999500D01*
X96885266Y-80999500D01*
X96885258Y-80999500D01*
X96668715Y-81028009D01*
X96657762Y-81029452D01*
X96564076Y-81054554D01*
X96436112Y-81088842D01*
X96224123Y-81176650D01*
X96224109Y-81176657D01*
X96025382Y-81291392D01*
X95843338Y-81431081D01*
X95681081Y-81593338D01*
X95541392Y-81775382D01*
X95426657Y-81974109D01*
X95426650Y-81974123D01*
X95338842Y-82186112D01*
X95279453Y-82407759D01*
X95279451Y-82407770D01*
X95249500Y-82635258D01*
X67000500Y-82635258D01*
X67000500Y-62931902D01*
X68249500Y-62931902D01*
X68249500Y-63168097D01*
X68286446Y-63401368D01*
X68359433Y-63625996D01*
X68440355Y-63784812D01*
X68466657Y-63836433D01*
X68605483Y-64027510D01*
X68772490Y-64194517D01*
X68963567Y-64333343D01*
X69062991Y-64384002D01*
X69174003Y-64440566D01*
X69174005Y-64440566D01*
X69174008Y-64440568D01*
X69294412Y-64479689D01*
X69398631Y-64513553D01*
X69631903Y-64550500D01*
X69631908Y-64550500D01*
X69868097Y-64550500D01*
X70101368Y-64513553D01*
X70325992Y-64440568D01*
X70536433Y-64333343D01*
X70727510Y-64194517D01*
X70894517Y-64027510D01*
X71033343Y-63836433D01*
X71140568Y-63625992D01*
X71213553Y-63401368D01*
X71237084Y-63252799D01*
X71250500Y-63168097D01*
X71250500Y-62931902D01*
X71213553Y-62698631D01*
X71140566Y-62474003D01*
X71033342Y-62263566D01*
X70894517Y-62072490D01*
X70772010Y-61949983D01*
X117599500Y-61949983D01*
X117599500Y-63150001D01*
X117599501Y-63150018D01*
X117610000Y-63252796D01*
X117610001Y-63252799D01*
X117659233Y-63401368D01*
X117665186Y-63419334D01*
X117757288Y-63568656D01*
X117881344Y-63692712D01*
X118030666Y-63784814D01*
X118197203Y-63839999D01*
X118299991Y-63850500D01*
X119500008Y-63850499D01*
X119602797Y-63839999D01*
X119769334Y-63784814D01*
X119918656Y-63692712D01*
X120042712Y-63568656D01*
X120134814Y-63419334D01*
X120189999Y-63252797D01*
X120200500Y-63150009D01*
X120200499Y-61949992D01*
X120189999Y-61847203D01*
X120134814Y-61680666D01*
X120042712Y-61531344D01*
X119918656Y-61407288D01*
X119769334Y-61315186D01*
X119602797Y-61260001D01*
X119602795Y-61260000D01*
X119500010Y-61249500D01*
X118299998Y-61249500D01*
X118299981Y-61249501D01*
X118197203Y-61260000D01*
X118197200Y-61260001D01*
X118030668Y-61315185D01*
X118030663Y-61315187D01*
X117881342Y-61407289D01*
X117757289Y-61531342D01*
X117665187Y-61680663D01*
X117665186Y-61680666D01*
X117610001Y-61847203D01*
X117610001Y-61847204D01*
X117610000Y-61847204D01*
X117599500Y-61949983D01*
X70772010Y-61949983D01*
X70727510Y-61905483D01*
X70536433Y-61766657D01*
X70325996Y-61659433D01*
X70101368Y-61586446D01*
X69868097Y-61549500D01*
X69868092Y-61549500D01*
X69631908Y-61549500D01*
X69631903Y-61549500D01*
X69398631Y-61586446D01*
X69174003Y-61659433D01*
X68963566Y-61766657D01*
X68854550Y-61845862D01*
X68772490Y-61905483D01*
X68772488Y-61905485D01*
X68772487Y-61905485D01*
X68605485Y-62072487D01*
X68605485Y-62072488D01*
X68605483Y-62072490D01*
X68545862Y-62154550D01*
X68466657Y-62263566D01*
X68359433Y-62474003D01*
X68286446Y-62698631D01*
X68249500Y-62931902D01*
X67000500Y-62931902D01*
X67000500Y-60374500D01*
X67020185Y-60307461D01*
X67072989Y-60261706D01*
X67124500Y-60250500D01*
X68434108Y-60250500D01*
X121334108Y-60250500D01*
X122775500Y-60250500D01*
X122842539Y-60270185D01*
G37*
G04 #@! TD.AperFunction*
M02*
